<svg width="836" height="507" viewBox="0 0 836 507" fill="none" xmlns="http://www.w3.org/2000/svg">
<rect y="16" width="824" height="475" fill="#252525"/>
<rect x="226" y="413" width="532" height="78" fill="#0B0B0B"/>
<rect y="16" width="824" height="419" fill="url(#paint0_linear_201_2)"/>
<g filter="url(#filter0_d_201_2)">
<path d="M824 491H754C751.791 491 750 489.209 750 487V20C750 17.7909 751.791 16 754 16H824L824 491Z" fill="url(#paint1_radial_201_2)"/>
</g>
<circle cx="787" cy="439" r="29" fill="url(#paint2_radial_201_2)" fill-opacity="0.6"/>
<circle cx="787" cy="438" r="16.5" fill="url(#paint3_radial_201_2)" stroke="#542155"/>
<path d="M782.917 408.364C782.917 409.157 782.767 409.831 782.466 410.388C782.168 410.944 781.76 411.369 781.244 411.663C780.731 411.954 780.153 412.099 779.511 412.099C778.865 412.099 778.285 411.953 777.771 411.659C777.258 411.366 776.852 410.941 776.553 410.384C776.255 409.828 776.106 409.154 776.106 408.364C776.106 407.571 776.255 406.896 776.553 406.339C776.852 405.783 777.258 405.359 777.771 405.068C778.285 404.775 778.865 404.628 779.511 404.628C780.153 404.628 780.731 404.775 781.244 405.068C781.76 405.359 782.168 405.783 782.466 406.339C782.767 406.896 782.917 407.571 782.917 408.364ZM781.358 408.364C781.358 407.85 781.281 407.417 781.127 407.064C780.976 406.711 780.761 406.444 780.484 406.261C780.207 406.079 779.883 405.988 779.511 405.988C779.14 405.988 778.815 406.079 778.538 406.261C778.261 406.444 778.046 406.711 777.892 407.064C777.741 407.417 777.665 407.85 777.665 408.364C777.665 408.877 777.741 409.311 777.892 409.663C778.046 410.016 778.261 410.284 778.538 410.466C778.815 410.648 779.14 410.739 779.511 410.739C779.883 410.739 780.207 410.648 780.484 410.466C780.761 410.284 780.976 410.016 781.127 409.663C781.281 409.311 781.358 408.877 781.358 408.364ZM788.548 404.727H790.086V409.45C790.086 409.981 789.959 410.445 789.706 410.842C789.455 411.24 789.103 411.55 788.651 411.773C788.199 411.993 787.672 412.103 787.071 412.103C786.467 412.103 785.939 411.993 785.487 411.773C785.035 411.55 784.683 411.24 784.432 410.842C784.181 410.445 784.056 409.981 784.056 409.45V404.727H785.594V409.319C785.594 409.596 785.654 409.842 785.775 410.058C785.898 410.273 786.071 410.442 786.293 410.565C786.516 410.688 786.775 410.75 787.071 410.75C787.369 410.75 787.628 410.688 787.849 410.565C788.071 410.442 788.243 410.273 788.363 410.058C788.487 409.842 788.548 409.596 788.548 409.319V404.727ZM791.074 405.995V404.727H797.047V405.995H794.82V412H793.3V405.995H791.074Z" fill="#434343"/>
<circle cx="787" cy="66" r="29" fill="url(#paint4_radial_201_2)" fill-opacity="0.5"/>
<circle cx="787" cy="66" r="16.5" fill="url(#paint5_radial_201_2)" stroke="#542155"/>
<path d="M777.581 31.7273H779.478L781.48 36.6136H781.566L783.569 31.7273H785.465V39H783.973V34.2663H783.913L782.031 38.9645H781.015L779.133 34.2486H779.073V39H777.581V31.7273ZM788.269 31.7273V39H786.732V31.7273H788.269ZM790.976 31.7273L792.443 34.206H792.5L793.973 31.7273H795.71L793.49 35.3636L795.76 39H793.991L792.5 36.5178H792.443L790.951 39H789.19L791.466 35.3636L789.233 31.7273H790.976Z" fill="#434343"/>
<rect y="16" width="74" height="475" fill="url(#paint6_radial_201_2)"/>
<path d="M53 16H243C246.314 16 249 18.6863 249 22V485C249 488.314 246.314 491 243 491H53V16Z" fill="url(#paint7_linear_201_2)"/>
<path d="M74 16H242C245.314 16 248 18.6863 248 22V485C248 488.314 245.314 491 242 491H74V16Z" fill="url(#paint8_radial_201_2)"/>
<ellipse cx="160" cy="266.5" rx="39" ry="39.5" fill="url(#paint9_radial_201_2)" fill-opacity="0.5"/>
<path d="M181.436 265.792C181.436 277.007 172.488 286.085 161.468 286.085C150.447 286.085 141.5 277.007 141.5 265.792C141.5 254.578 150.447 245.5 161.468 245.5C172.488 245.5 181.436 254.578 181.436 265.792Z" fill="url(#paint10_radial_201_2)" stroke="#542155"/>
<path d="M122.865 229.727H124.761L126.764 234.614H126.849L128.852 229.727H130.748V237H129.257V232.266H129.196L127.314 236.964H126.298L124.416 232.249H124.356V237H122.865V229.727ZM133.268 237H131.621L134.131 229.727H136.113L138.62 237H136.972L135.151 231.389H135.094L133.268 237ZM133.165 234.141H137.058V235.342H133.165V234.141ZM143.275 231.819C143.246 231.532 143.124 231.31 142.909 231.151C142.693 230.993 142.401 230.913 142.032 230.913C141.781 230.913 141.569 230.949 141.396 231.02C141.223 231.089 141.091 231.184 140.998 231.308C140.908 231.431 140.863 231.57 140.863 231.727C140.859 231.857 140.886 231.97 140.945 232.067C141.007 232.165 141.091 232.249 141.197 232.32C141.304 232.388 141.427 232.449 141.567 232.501C141.706 232.55 141.855 232.593 142.014 232.629L142.667 232.785C142.985 232.856 143.276 232.951 143.541 233.069C143.806 233.187 144.036 233.333 144.23 233.506C144.424 233.679 144.574 233.882 144.681 234.116C144.79 234.351 144.845 234.62 144.848 234.923C144.845 235.368 144.732 235.754 144.507 236.08C144.284 236.405 143.962 236.657 143.541 236.837C143.122 237.014 142.617 237.103 142.025 237.103C141.438 237.103 140.926 237.013 140.491 236.833C140.057 236.653 139.719 236.387 139.475 236.034C139.233 235.679 139.107 235.24 139.095 234.717H140.583C140.599 234.96 140.669 235.164 140.792 235.327C140.918 235.488 141.085 235.61 141.293 235.693C141.504 235.774 141.742 235.814 142.007 235.814C142.267 235.814 142.493 235.776 142.685 235.7C142.879 235.625 143.03 235.519 143.136 235.384C143.243 235.249 143.296 235.094 143.296 234.919C143.296 234.756 143.247 234.618 143.15 234.507C143.056 234.396 142.916 234.301 142.731 234.223C142.549 234.145 142.325 234.074 142.06 234.01L141.268 233.811C140.655 233.662 140.171 233.429 139.816 233.112C139.461 232.794 139.284 232.367 139.287 231.83C139.284 231.389 139.402 231.004 139.638 230.675C139.877 230.346 140.205 230.089 140.622 229.905C141.039 229.72 141.512 229.628 142.042 229.628C142.582 229.628 143.053 229.72 143.456 229.905C143.861 230.089 144.175 230.346 144.4 230.675C144.625 231.004 144.741 231.386 144.748 231.819H143.275ZM145.882 237V229.727H147.42V232.934H147.516L150.133 229.727H151.976L149.277 232.984L152.008 237H150.168L148.176 234.01L147.42 234.933V237H145.882ZM152.777 237V229.727H157.677V230.995H154.314V232.728H157.425V233.996H154.314V235.732H157.691V237H152.777ZM161.478 237H158.9V229.727H161.499C162.231 229.727 162.86 229.873 163.388 230.164C163.916 230.453 164.322 230.868 164.606 231.411C164.893 231.953 165.036 232.601 165.036 233.357C165.036 234.114 164.893 234.765 164.606 235.31C164.322 235.854 163.914 236.272 163.381 236.563C162.851 236.854 162.216 237 161.478 237ZM160.437 235.683H161.414C161.868 235.683 162.251 235.602 162.561 235.441C162.873 235.278 163.108 235.026 163.264 234.685C163.423 234.341 163.502 233.899 163.502 233.357C163.502 232.819 163.423 232.38 163.264 232.039C163.108 231.698 162.875 231.447 162.564 231.286C162.254 231.125 161.872 231.045 161.417 231.045H160.437V235.683ZM168.49 237V229.727H173.305V230.995H170.027V232.728H172.985V233.996H170.027V237H168.49ZM174.339 237V229.727H177.208C177.758 229.727 178.226 229.826 178.615 230.022C179.005 230.216 179.302 230.492 179.506 230.849C179.712 231.205 179.815 231.622 179.815 232.103C179.815 232.586 179.711 233.001 179.502 233.349C179.294 233.695 178.992 233.96 178.597 234.145C178.204 234.33 177.728 234.422 177.169 234.422H175.248V233.186H176.921C177.214 233.186 177.458 233.146 177.652 233.065C177.846 232.985 177.991 232.864 178.086 232.703C178.183 232.542 178.231 232.342 178.231 232.103C178.231 231.862 178.183 231.658 178.086 231.492C177.991 231.326 177.845 231.201 177.649 231.116C177.455 231.028 177.21 230.984 176.914 230.984H175.877V237H174.339ZM178.267 233.69L180.074 237H178.377L176.608 233.69H178.267ZM180.902 237V229.727H185.802V230.995H182.439V232.728H185.55V233.996H182.439V235.732H185.816V237H180.902ZM189.77 234.472H191.077L191.733 235.317L192.38 236.07L193.598 237.597H192.163L191.325 236.567L190.895 235.956L189.77 234.472ZM193.708 233.364C193.708 234.157 193.558 234.831 193.257 235.388C192.959 235.944 192.551 236.369 192.035 236.663C191.522 236.954 190.944 237.099 190.302 237.099C189.656 237.099 189.076 236.953 188.562 236.659C188.049 236.366 187.643 235.941 187.344 235.384C187.046 234.828 186.897 234.154 186.897 233.364C186.897 232.571 187.046 231.896 187.344 231.339C187.643 230.783 188.049 230.359 188.562 230.068C189.076 229.775 189.656 229.628 190.302 229.628C190.944 229.628 191.522 229.775 192.035 230.068C192.551 230.359 192.959 230.783 193.257 231.339C193.558 231.896 193.708 232.571 193.708 233.364ZM192.149 233.364C192.149 232.85 192.072 232.417 191.918 232.064C191.767 231.711 191.552 231.444 191.275 231.261C190.998 231.079 190.674 230.988 190.302 230.988C189.931 230.988 189.606 231.079 189.329 231.261C189.052 231.444 188.837 231.711 188.683 232.064C188.532 232.417 188.456 232.85 188.456 233.364C188.456 233.877 188.532 234.311 188.683 234.663C188.837 235.016 189.052 235.284 189.329 235.466C189.606 235.648 189.931 235.739 190.302 235.739C190.674 235.739 190.998 235.648 191.275 235.466C191.552 235.284 191.767 235.016 191.918 234.663C192.072 234.311 192.149 233.877 192.149 233.364ZM198.792 231.819C198.764 231.532 198.642 231.31 198.426 231.151C198.211 230.993 197.919 230.913 197.549 230.913C197.298 230.913 197.087 230.949 196.914 231.02C196.741 231.089 196.608 231.184 196.516 231.308C196.426 231.431 196.381 231.57 196.381 231.727C196.376 231.857 196.404 231.97 196.463 232.067C196.524 232.165 196.608 232.249 196.715 232.32C196.821 232.388 196.944 232.449 197.084 232.501C197.224 232.55 197.373 232.593 197.532 232.629L198.185 232.785C198.502 232.856 198.793 232.951 199.059 233.069C199.324 233.187 199.553 233.333 199.748 233.506C199.942 233.679 200.092 233.882 200.199 234.116C200.307 234.351 200.363 234.62 200.365 234.923C200.363 235.368 200.249 235.754 200.025 236.08C199.802 236.405 199.48 236.657 199.059 236.837C198.64 237.014 198.134 237.103 197.542 237.103C196.955 237.103 196.444 237.013 196.008 236.833C195.575 236.653 195.236 236.387 194.993 236.034C194.751 235.679 194.624 235.24 194.613 234.717H196.1C196.117 234.96 196.187 235.164 196.31 235.327C196.435 235.488 196.602 235.61 196.811 235.693C197.021 235.774 197.259 235.814 197.525 235.814C197.785 235.814 198.011 235.776 198.203 235.7C198.397 235.625 198.547 235.519 198.654 235.384C198.76 235.249 198.814 235.094 198.814 234.919C198.814 234.756 198.765 234.618 198.668 234.507C198.573 234.396 198.434 234.301 198.249 234.223C198.067 234.145 197.843 234.074 197.578 234.01L196.786 233.811C196.173 233.662 195.689 233.429 195.333 233.112C194.978 232.794 194.802 232.367 194.804 231.83C194.802 231.389 194.919 231.004 195.156 230.675C195.395 230.346 195.723 230.089 196.14 229.905C196.556 229.72 197.03 229.628 197.56 229.628C198.1 229.628 198.571 229.72 198.973 229.905C199.378 230.089 199.693 230.346 199.918 230.675C200.143 231.004 200.259 231.386 200.266 231.819H198.792Z" fill="#434343"/>
<path d="M195.29 280V272.727H198.159C198.708 272.727 199.177 272.826 199.565 273.022C199.956 273.216 200.253 273.492 200.457 273.849C200.663 274.205 200.766 274.622 200.766 275.103C200.766 275.586 200.661 276.001 200.453 276.349C200.245 276.695 199.943 276.96 199.548 277.145C199.155 277.33 198.679 277.422 198.12 277.422H196.199V276.186H197.871C198.165 276.186 198.409 276.146 198.603 276.065C198.797 275.985 198.941 275.864 199.036 275.703C199.133 275.542 199.182 275.342 199.182 275.103C199.182 274.862 199.133 274.658 199.036 274.492C198.941 274.326 198.796 274.201 198.599 274.116C198.405 274.028 198.16 273.984 197.864 273.984H196.827V280H195.29ZM199.217 276.69L201.025 280H199.327L197.559 276.69H199.217ZM201.852 280V272.727H206.753V273.995H203.39V275.728H206.501V276.996H203.39V278.732H206.767V280H201.852ZM209.289 272.727L211.047 278.253H211.114L212.876 272.727H214.58L212.073 280H210.092L207.581 272.727H209.289ZM215.456 280V272.727H220.356V273.995H216.993V275.728H220.104V276.996H216.993V278.732H220.371V280H215.456ZM222.832 280H221.185L223.695 272.727H225.677L228.184 280H226.536L224.714 274.389H224.658L222.832 280ZM222.729 277.141H226.621V278.342H222.729V277.141ZM229.059 280V272.727H230.597V278.732H233.715V280H229.059Z" fill="#7C7C7C"/>
<path d="M193.29 363V355.727H196.159C196.708 355.727 197.177 355.826 197.565 356.022C197.956 356.216 198.253 356.492 198.457 356.849C198.663 357.205 198.766 357.622 198.766 358.103C198.766 358.586 198.661 359.001 198.453 359.349C198.245 359.695 197.943 359.96 197.548 360.145C197.155 360.33 196.679 360.422 196.12 360.422H194.199V359.186H195.871C196.165 359.186 196.409 359.146 196.603 359.065C196.797 358.985 196.941 358.864 197.036 358.703C197.133 358.542 197.182 358.342 197.182 358.103C197.182 357.862 197.133 357.658 197.036 357.492C196.941 357.326 196.796 357.201 196.599 357.116C196.405 357.028 196.16 356.984 195.864 356.984H194.827V363H193.29ZM197.217 359.69L199.025 363H197.327L195.559 359.69H197.217ZM199.852 363V355.727H204.753V356.995H201.39V358.728H204.501V359.996H201.39V361.732H204.767V363H199.852ZM207.289 355.727L209.047 361.253H209.114L210.876 355.727H212.58L210.073 363H208.092L205.581 355.727H207.289ZM213.456 363V355.727H218.356V356.995H214.993V358.728H218.104V359.996H214.993V361.732H218.371V363H213.456ZM220.832 363H219.185L221.695 355.727H223.677L226.184 363H224.536L222.714 357.389H222.658L220.832 363ZM220.729 360.141H224.621V361.342H220.729V360.141ZM227.059 363V355.727H228.597V361.732H231.715V363H227.059Z" fill="#7C7C7C"/>
<path d="M97.3054 280V272.727H100.217C100.752 272.727 101.199 272.807 101.556 272.965C101.914 273.124 102.182 273.344 102.362 273.626C102.542 273.905 102.632 274.227 102.632 274.592C102.632 274.876 102.575 275.125 102.462 275.341C102.348 275.554 102.192 275.729 101.993 275.866C101.796 276.001 101.571 276.097 101.318 276.154V276.225C101.595 276.237 101.854 276.315 102.096 276.46C102.34 276.604 102.537 276.806 102.689 277.067C102.84 277.325 102.916 277.633 102.916 277.99C102.916 278.376 102.82 278.72 102.629 279.023C102.439 279.324 102.159 279.562 101.787 279.737C101.415 279.912 100.957 280 100.413 280H97.3054ZM98.843 278.743H100.097C100.525 278.743 100.838 278.661 101.034 278.498C101.231 278.332 101.329 278.112 101.329 277.837C101.329 277.636 101.28 277.459 101.183 277.305C101.086 277.151 100.948 277.03 100.768 276.942C100.59 276.855 100.378 276.811 100.132 276.811H98.843V278.743ZM98.843 275.771H99.9829C100.194 275.771 100.381 275.734 100.544 275.661C100.71 275.585 100.84 275.478 100.935 275.341C101.032 275.204 101.08 275.039 101.08 274.847C101.08 274.585 100.987 274.373 100.8 274.212C100.615 274.051 100.352 273.97 100.011 273.97H98.843V275.771ZM108.409 272.727H109.947V277.45C109.947 277.981 109.82 278.445 109.567 278.842C109.316 279.24 108.964 279.55 108.512 279.773C108.06 279.993 107.533 280.103 106.932 280.103C106.328 280.103 105.8 279.993 105.348 279.773C104.896 279.55 104.544 279.24 104.293 278.842C104.042 278.445 103.917 277.981 103.917 277.45V272.727H105.454V277.319C105.454 277.596 105.515 277.842 105.635 278.058C105.759 278.273 105.931 278.442 106.154 278.565C106.376 278.688 106.636 278.75 106.932 278.75C107.23 278.75 107.489 278.688 107.709 278.565C107.932 278.442 108.103 278.273 108.224 278.058C108.347 277.842 108.409 277.596 108.409 277.319V272.727ZM111.212 280V272.727H114.081C114.63 272.727 115.099 272.826 115.487 273.022C115.878 273.216 116.175 273.492 116.379 273.849C116.584 274.205 116.687 274.622 116.687 275.103C116.687 275.586 116.583 276.001 116.375 276.349C116.167 276.695 115.865 276.96 115.469 277.145C115.076 277.33 114.601 277.422 114.042 277.422H112.121V276.186H113.793C114.087 276.186 114.331 276.146 114.525 276.065C114.719 275.985 114.863 275.864 114.958 275.703C115.055 275.542 115.104 275.342 115.104 275.103C115.104 274.862 115.055 274.658 114.958 274.492C114.863 274.326 114.718 274.201 114.521 274.116C114.327 274.028 114.082 273.984 113.786 273.984H112.749V280H111.212ZM115.139 276.69L116.947 280H115.249L113.481 276.69H115.139ZM117.045 272.727H118.768L120.426 275.859H120.497L122.155 272.727H123.878L121.225 277.429V280H119.698V277.429L117.045 272.727Z" fill="#7C7C7C"/>
<path d="M97.3054 363V355.727H100.217C100.752 355.727 101.199 355.807 101.556 355.965C101.914 356.124 102.182 356.344 102.362 356.626C102.542 356.905 102.632 357.227 102.632 357.592C102.632 357.876 102.575 358.125 102.462 358.341C102.348 358.554 102.192 358.729 101.993 358.866C101.796 359.001 101.571 359.097 101.318 359.154V359.225C101.595 359.237 101.854 359.315 102.096 359.46C102.34 359.604 102.537 359.806 102.689 360.067C102.84 360.325 102.916 360.633 102.916 360.99C102.916 361.376 102.82 361.72 102.629 362.023C102.439 362.324 102.159 362.562 101.787 362.737C101.415 362.912 100.957 363 100.413 363H97.3054ZM98.843 361.743H100.097C100.525 361.743 100.838 361.661 101.034 361.498C101.231 361.332 101.329 361.112 101.329 360.837C101.329 360.636 101.28 360.459 101.183 360.305C101.086 360.151 100.948 360.03 100.768 359.942C100.59 359.855 100.378 359.811 100.132 359.811H98.843V361.743ZM98.843 358.771H99.9829C100.194 358.771 100.381 358.734 100.544 358.661C100.71 358.585 100.84 358.478 100.935 358.341C101.032 358.204 101.08 358.039 101.08 357.847C101.08 357.585 100.987 357.373 100.8 357.212C100.615 357.051 100.352 356.97 100.011 356.97H98.843V358.771ZM108.409 355.727H109.947V360.45C109.947 360.981 109.82 361.445 109.567 361.842C109.316 362.24 108.964 362.55 108.512 362.773C108.06 362.993 107.533 363.103 106.932 363.103C106.328 363.103 105.8 362.993 105.348 362.773C104.896 362.55 104.544 362.24 104.293 361.842C104.042 361.445 103.917 360.981 103.917 360.45V355.727H105.454V360.319C105.454 360.596 105.515 360.842 105.635 361.058C105.759 361.273 105.931 361.442 106.154 361.565C106.376 361.688 106.636 361.75 106.932 361.75C107.23 361.75 107.489 361.688 107.709 361.565C107.932 361.442 108.103 361.273 108.224 361.058C108.347 360.842 108.409 360.596 108.409 360.319V355.727ZM111.212 363V355.727H114.081C114.63 355.727 115.099 355.826 115.487 356.022C115.878 356.216 116.175 356.492 116.379 356.849C116.584 357.205 116.687 357.622 116.687 358.103C116.687 358.586 116.583 359.001 116.375 359.349C116.167 359.695 115.865 359.96 115.469 360.145C115.076 360.33 114.601 360.422 114.042 360.422H112.121V359.186H113.793C114.087 359.186 114.331 359.146 114.525 359.065C114.719 358.985 114.863 358.864 114.958 358.703C115.055 358.542 115.104 358.342 115.104 358.103C115.104 357.862 115.055 357.658 114.958 357.492C114.863 357.326 114.718 357.201 114.521 357.116C114.327 357.028 114.082 356.984 113.786 356.984H112.749V363H111.212ZM115.139 359.69L116.947 363H115.249L113.481 359.69H115.139ZM117.045 355.727H118.768L120.426 358.859H120.497L122.155 355.727H123.878L121.225 360.429V363H119.698V360.429L117.045 355.727Z" fill="#7C7C7C"/>
<path d="M133.257 313.273H131.702C131.673 313.072 131.615 312.893 131.528 312.737C131.44 312.579 131.328 312.444 131.19 312.332C131.053 312.221 130.894 312.136 130.714 312.077C130.537 312.018 130.344 311.988 130.136 311.988C129.759 311.988 129.431 312.081 129.152 312.268C128.873 312.453 128.656 312.723 128.502 313.078C128.348 313.431 128.271 313.859 128.271 314.364C128.271 314.882 128.348 315.318 128.502 315.67C128.658 316.023 128.876 316.29 129.155 316.469C129.435 316.649 129.758 316.739 130.125 316.739C130.331 316.739 130.521 316.712 130.697 316.658C130.874 316.603 131.032 316.524 131.169 316.42C131.306 316.313 131.42 316.184 131.51 316.033C131.602 315.881 131.666 315.708 131.702 315.514L133.257 315.521C133.217 315.855 133.116 316.177 132.955 316.487C132.797 316.795 132.582 317.071 132.312 317.315C132.045 317.556 131.725 317.748 131.354 317.89C130.984 318.03 130.566 318.099 130.1 318.099C129.451 318.099 128.871 317.953 128.36 317.659C127.851 317.366 127.449 316.941 127.153 316.384C126.859 315.828 126.712 315.154 126.712 314.364C126.712 313.571 126.861 312.896 127.16 312.339C127.458 311.783 127.863 311.359 128.374 311.068C128.886 310.775 129.461 310.628 130.1 310.628C130.521 310.628 130.912 310.687 131.272 310.805C131.634 310.924 131.955 311.097 132.234 311.324C132.514 311.549 132.741 311.825 132.916 312.151C133.094 312.478 133.207 312.852 133.257 313.273ZM134.36 318V310.727H135.897V316.732H139.015V318H134.36ZM140.033 318V310.727H144.934V311.995H141.571V313.728H144.682V314.996H141.571V316.732H144.948V318H140.033ZM147.41 318H145.762L148.273 310.727H150.255L152.762 318H151.114L149.292 312.389H149.235L147.41 318ZM147.307 315.141H151.199V316.342H147.307V315.141ZM153.637 318V310.727H156.506C157.056 310.727 157.524 310.826 157.913 311.022C158.303 311.216 158.6 311.492 158.804 311.849C159.01 312.205 159.113 312.622 159.113 313.103C159.113 313.586 159.009 314.001 158.8 314.349C158.592 314.695 158.29 314.96 157.895 315.145C157.502 315.33 157.026 315.422 156.467 315.422H154.546V314.186H156.219C156.512 314.186 156.756 314.146 156.95 314.065C157.144 313.985 157.289 313.864 157.383 313.703C157.48 313.542 157.529 313.342 157.529 313.103C157.529 312.862 157.48 312.658 157.383 312.492C157.289 312.326 157.143 312.201 156.947 312.116C156.753 312.028 156.507 311.984 156.212 311.984H155.175V318H153.637ZM157.565 314.69L159.372 318H157.675L155.906 314.69H157.565ZM162.514 318V310.727H167.329V311.995H164.052V313.728H167.01V314.996H164.052V318H162.514ZM168.364 318V310.727H171.233C171.782 310.727 172.251 310.826 172.639 311.022C173.03 311.216 173.327 311.492 173.53 311.849C173.736 312.205 173.839 312.622 173.839 313.103C173.839 313.586 173.735 314.001 173.527 314.349C173.319 314.695 173.017 314.96 172.621 315.145C172.228 315.33 171.753 315.422 171.194 315.422H169.273V314.186H170.945C171.239 314.186 171.483 314.146 171.677 314.065C171.871 313.985 172.015 313.864 172.11 313.703C172.207 313.542 172.256 313.342 172.256 313.103C172.256 312.862 172.207 312.658 172.11 312.492C172.015 312.326 171.87 312.201 171.673 312.116C171.479 312.028 171.234 311.984 170.938 311.984H169.901V318H168.364ZM172.291 314.69L174.099 318H172.401L170.633 314.69H172.291ZM174.926 318V310.727H179.827V311.995H176.464V313.728H179.574V314.996H176.464V316.732H179.841V318H174.926ZM183.794 315.472H185.101L185.758 316.317L186.404 317.07L187.622 318.597H186.188L185.35 317.567L184.92 316.956L183.794 315.472ZM187.732 314.364C187.732 315.157 187.582 315.831 187.281 316.388C186.983 316.944 186.576 317.369 186.06 317.663C185.546 317.954 184.968 318.099 184.327 318.099C183.68 318.099 183.1 317.953 182.587 317.659C182.073 317.366 181.667 316.941 181.369 316.384C181.07 315.828 180.921 315.154 180.921 314.364C180.921 313.571 181.07 312.896 181.369 312.339C181.667 311.783 182.073 311.359 182.587 311.068C183.1 310.775 183.68 310.628 184.327 310.628C184.968 310.628 185.546 310.775 186.06 311.068C186.576 311.359 186.983 311.783 187.281 312.339C187.582 312.896 187.732 313.571 187.732 314.364ZM186.173 314.364C186.173 313.85 186.096 313.417 185.943 313.064C185.791 312.711 185.577 312.444 185.3 312.261C185.023 312.079 184.698 311.988 184.327 311.988C183.955 311.988 183.631 312.079 183.354 312.261C183.077 312.444 182.861 312.711 182.707 313.064C182.556 313.417 182.48 313.85 182.48 314.364C182.48 314.877 182.556 315.311 182.707 315.663C182.861 316.016 183.077 316.284 183.354 316.466C183.631 316.648 183.955 316.739 184.327 316.739C184.698 316.739 185.023 316.648 185.3 316.466C185.577 316.284 185.791 316.016 185.943 315.663C186.096 315.311 186.173 314.877 186.173 314.364ZM192.817 312.819C192.788 312.532 192.666 312.31 192.451 312.151C192.235 311.993 191.943 311.913 191.574 311.913C191.323 311.913 191.111 311.949 190.938 312.02C190.765 312.089 190.633 312.184 190.54 312.308C190.45 312.431 190.405 312.57 190.405 312.727C190.401 312.857 190.428 312.97 190.487 313.067C190.549 313.165 190.633 313.249 190.739 313.32C190.846 313.388 190.969 313.449 191.109 313.501C191.248 313.55 191.397 313.593 191.556 313.629L192.209 313.785C192.527 313.856 192.818 313.951 193.083 314.069C193.348 314.187 193.578 314.333 193.772 314.506C193.966 314.679 194.116 314.882 194.223 315.116C194.332 315.351 194.387 315.62 194.39 315.923C194.387 316.368 194.274 316.754 194.049 317.08C193.826 317.405 193.504 317.657 193.083 317.837C192.664 318.014 192.159 318.103 191.567 318.103C190.98 318.103 190.468 318.013 190.033 317.833C189.599 317.653 189.261 317.387 189.017 317.034C188.775 316.679 188.649 316.24 188.637 315.717H190.125C190.141 315.96 190.211 316.164 190.334 316.327C190.46 316.488 190.627 316.61 190.835 316.693C191.046 316.774 191.284 316.814 191.549 316.814C191.809 316.814 192.035 316.776 192.227 316.7C192.421 316.625 192.572 316.519 192.678 316.384C192.785 316.249 192.838 316.094 192.838 315.919C192.838 315.756 192.789 315.618 192.692 315.507C192.598 315.396 192.458 315.301 192.273 315.223C192.091 315.145 191.867 315.074 191.602 315.01L190.81 314.811C190.197 314.662 189.713 314.429 189.358 314.112C189.003 313.794 188.826 313.367 188.829 312.83C188.826 312.389 188.944 312.004 189.18 311.675C189.419 311.346 189.747 311.089 190.164 310.905C190.581 310.72 191.054 310.628 191.584 310.628C192.124 310.628 192.595 310.72 192.998 310.905C193.403 311.089 193.717 311.346 193.942 311.675C194.167 312.004 194.283 312.386 194.29 312.819H192.817Z" fill="#434343"/>
<ellipse cx="161" cy="347.5" rx="39" ry="39.5" fill="url(#paint11_radial_201_2)" fill-opacity="0.5"/>
<path d="M181.436 346.792C181.436 358.007 172.488 367.085 161.468 367.085C150.447 367.085 141.5 358.007 141.5 346.792C141.5 335.578 150.447 326.5 161.468 326.5C172.488 326.5 181.436 335.578 181.436 346.792Z" fill="url(#paint12_radial_201_2)" stroke="#542155"/>
<path d="M108.796 438.995V437.727H114.769V438.995H112.542V445H111.022V438.995H108.796ZM115.752 445V437.727H117.29V440.728H120.411V437.727H121.945V445H120.411V441.996H117.29V445H115.752ZM123.213 445V437.727H126.082C126.632 437.727 127.1 437.826 127.489 438.022C127.879 438.216 128.176 438.492 128.38 438.849C128.586 439.205 128.689 439.622 128.689 440.103C128.689 440.586 128.585 441.001 128.377 441.349C128.168 441.695 127.866 441.96 127.471 442.145C127.078 442.33 126.602 442.422 126.043 442.422H124.122V441.186H125.795C126.088 441.186 126.332 441.146 126.526 441.065C126.72 440.985 126.865 440.864 126.96 440.703C127.057 440.542 127.105 440.342 127.105 440.103C127.105 439.862 127.057 439.658 126.96 439.492C126.865 439.326 126.719 439.201 126.523 439.116C126.329 439.028 126.084 438.984 125.788 438.984H124.751V445H123.213ZM127.141 441.69L128.948 445H127.251L125.482 441.69H127.141ZM129.776 445V437.727H134.676V438.995H131.313V440.728H134.424V441.996H131.313V443.732H134.69V445H129.776ZM139.844 439.819C139.816 439.532 139.694 439.31 139.478 439.151C139.263 438.993 138.97 438.913 138.601 438.913C138.35 438.913 138.138 438.949 137.965 439.02C137.793 439.089 137.66 439.184 137.568 439.308C137.478 439.431 137.433 439.57 137.433 439.727C137.428 439.857 137.455 439.97 137.514 440.067C137.576 440.165 137.66 440.249 137.767 440.32C137.873 440.388 137.996 440.449 138.136 440.501C138.276 440.55 138.425 440.593 138.583 440.629L139.237 440.785C139.554 440.856 139.845 440.951 140.11 441.069C140.376 441.187 140.605 441.333 140.799 441.506C140.993 441.679 141.144 441.882 141.25 442.116C141.359 442.351 141.415 442.62 141.417 442.923C141.415 443.368 141.301 443.754 141.076 444.08C140.854 444.405 140.532 444.657 140.11 444.837C139.691 445.014 139.186 445.103 138.594 445.103C138.007 445.103 137.496 445.013 137.06 444.833C136.627 444.653 136.288 444.387 136.044 444.034C135.803 443.679 135.676 443.24 135.664 442.717H137.152C137.169 442.96 137.239 443.164 137.362 443.327C137.487 443.488 137.654 443.61 137.862 443.693C138.073 443.774 138.311 443.814 138.576 443.814C138.837 443.814 139.063 443.776 139.255 443.7C139.449 443.625 139.599 443.519 139.706 443.384C139.812 443.249 139.865 443.094 139.865 442.919C139.865 442.756 139.817 442.618 139.72 442.507C139.625 442.396 139.485 442.301 139.301 442.223C139.118 442.145 138.895 442.074 138.63 442.01L137.838 441.811C137.224 441.662 136.74 441.429 136.385 441.112C136.03 440.794 135.854 440.367 135.856 439.83C135.854 439.389 135.971 439.004 136.208 438.675C136.447 438.346 136.775 438.089 137.191 437.905C137.608 437.72 138.081 437.628 138.612 437.628C139.152 437.628 139.623 437.72 140.025 437.905C140.43 438.089 140.745 438.346 140.97 438.675C141.195 439.004 141.311 439.386 141.318 439.819H139.844ZM142.451 445V437.727H143.989V440.728H147.111V437.727H148.645V445H147.111V441.996H143.989V445H142.451ZM156.596 441.364C156.596 442.157 156.445 442.831 156.145 443.388C155.846 443.944 155.439 444.369 154.923 444.663C154.409 444.954 153.832 445.099 153.19 445.099C152.544 445.099 151.964 444.953 151.45 444.659C150.936 444.366 150.53 443.941 150.232 443.384C149.934 442.828 149.785 442.154 149.785 441.364C149.785 440.571 149.934 439.896 150.232 439.339C150.53 438.783 150.936 438.359 151.45 438.068C151.964 437.775 152.544 437.628 153.19 437.628C153.832 437.628 154.409 437.775 154.923 438.068C155.439 438.359 155.846 438.783 156.145 439.339C156.445 439.896 156.596 440.571 156.596 441.364ZM155.037 441.364C155.037 440.85 154.96 440.417 154.806 440.064C154.654 439.711 154.44 439.444 154.163 439.261C153.886 439.079 153.562 438.988 153.19 438.988C152.818 438.988 152.494 439.079 152.217 439.261C151.94 439.444 151.725 439.711 151.571 440.064C151.419 440.417 151.343 440.85 151.343 441.364C151.343 441.877 151.419 442.311 151.571 442.663C151.725 443.016 151.94 443.284 152.217 443.466C152.494 443.648 152.818 443.739 153.19 443.739C153.562 443.739 153.886 443.648 154.163 443.466C154.44 443.284 154.654 443.016 154.806 442.663C154.96 442.311 155.037 441.877 155.037 441.364ZM157.735 445V437.727H159.272V443.732H162.39V445H157.735ZM165.987 445H163.408V437.727H166.008C166.739 437.727 167.369 437.873 167.897 438.164C168.425 438.453 168.831 438.868 169.115 439.411C169.402 439.953 169.545 440.601 169.545 441.357C169.545 442.114 169.402 442.765 169.115 443.31C168.831 443.854 168.423 444.272 167.89 444.563C167.36 444.854 166.725 445 165.987 445ZM164.946 443.683H165.923C166.377 443.683 166.76 443.602 167.07 443.441C167.382 443.278 167.617 443.026 167.773 442.685C167.931 442.341 168.011 441.899 168.011 441.357C168.011 440.819 167.931 440.38 167.773 440.039C167.617 439.698 167.383 439.447 167.073 439.286C166.763 439.125 166.381 439.045 165.926 439.045H164.946V443.683ZM174.536 437.727V445H172.998V437.727H174.536ZM181.884 437.727V445H180.556L177.392 440.423H177.339V445H175.801V437.727H177.15L180.29 442.301H180.354V437.727H181.884ZM188.214 442.472H189.521L190.178 443.317L190.824 444.07L192.042 445.597H190.608L189.769 444.567L189.34 443.956L188.214 442.472ZM192.152 441.364C192.152 442.157 192.002 442.831 191.701 443.388C191.403 443.944 190.996 444.369 190.48 444.663C189.966 444.954 189.388 445.099 188.747 445.099C188.1 445.099 187.52 444.953 187.007 444.659C186.493 444.366 186.087 443.941 185.789 443.384C185.49 442.828 185.341 442.154 185.341 441.364C185.341 440.571 185.49 439.896 185.789 439.339C186.087 438.783 186.493 438.359 187.007 438.068C187.52 437.775 188.1 437.628 188.747 437.628C189.388 437.628 189.966 437.775 190.48 438.068C190.996 438.359 191.403 438.783 191.701 439.339C192.002 439.896 192.152 440.571 192.152 441.364ZM190.593 441.364C190.593 440.85 190.516 440.417 190.362 440.064C190.211 439.711 189.997 439.444 189.72 439.261C189.443 439.079 189.118 438.988 188.747 438.988C188.375 438.988 188.051 439.079 187.774 439.261C187.497 439.444 187.281 439.711 187.127 440.064C186.976 440.417 186.9 440.85 186.9 441.364C186.9 441.877 186.976 442.311 187.127 442.663C187.281 443.016 187.497 443.284 187.774 443.466C188.051 443.648 188.375 443.739 188.747 443.739C189.118 443.739 189.443 443.648 189.72 443.466C189.997 443.284 190.211 443.016 190.362 442.663C190.516 442.311 190.593 441.877 190.593 441.364ZM197.783 437.727H199.321V442.45C199.321 442.981 199.194 443.445 198.941 443.842C198.69 444.24 198.339 444.55 197.886 444.773C197.434 444.993 196.908 445.103 196.306 445.103C195.703 445.103 195.175 444.993 194.722 444.773C194.27 444.55 193.919 444.24 193.668 443.842C193.417 443.445 193.291 442.981 193.291 442.45V437.727H194.829V442.319C194.829 442.596 194.889 442.842 195.01 443.058C195.133 443.273 195.306 443.442 195.528 443.565C195.751 443.688 196.01 443.75 196.306 443.75C196.604 443.75 196.864 443.688 197.084 443.565C197.306 443.442 197.478 443.273 197.599 443.058C197.722 442.842 197.783 442.596 197.783 442.319V437.727ZM202.124 437.727V445H200.586V437.727H202.124ZM203.389 445V437.727H208.29V438.995H204.927V440.728H208.037V441.996H204.927V443.732H208.304V445H203.389ZM209.235 438.995V437.727H215.208V438.995H212.981V445H211.462V438.995H209.235Z" fill="#434343"/>
<path d="M131.126 396.819C131.098 396.532 130.976 396.31 130.76 396.151C130.545 395.993 130.253 395.913 129.883 395.913C129.632 395.913 129.421 395.949 129.248 396.02C129.075 396.089 128.942 396.184 128.85 396.308C128.76 396.431 128.715 396.57 128.715 396.727C128.71 396.857 128.738 396.97 128.797 397.067C128.858 397.165 128.942 397.249 129.049 397.32C129.155 397.388 129.278 397.449 129.418 397.501C129.558 397.55 129.707 397.593 129.866 397.629L130.519 397.785C130.836 397.856 131.127 397.951 131.393 398.069C131.658 398.187 131.887 398.333 132.081 398.506C132.276 398.679 132.426 398.882 132.532 399.116C132.641 399.351 132.697 399.62 132.699 399.923C132.697 400.368 132.583 400.754 132.358 401.08C132.136 401.405 131.814 401.657 131.393 401.837C130.974 402.014 130.468 402.103 129.876 402.103C129.289 402.103 128.778 402.013 128.342 401.833C127.909 401.653 127.57 401.387 127.327 401.034C127.085 400.679 126.958 400.24 126.947 399.717H128.434C128.451 399.96 128.521 400.164 128.644 400.327C128.769 400.488 128.936 400.61 129.145 400.693C129.355 400.774 129.593 400.814 129.858 400.814C130.119 400.814 130.345 400.776 130.537 400.7C130.731 400.625 130.881 400.519 130.988 400.384C131.094 400.249 131.148 400.094 131.148 399.919C131.148 399.756 131.099 399.618 131.002 399.507C130.907 399.396 130.768 399.301 130.583 399.223C130.401 399.145 130.177 399.074 129.912 399.01L129.12 398.811C128.507 398.662 128.023 398.429 127.667 398.112C127.312 397.794 127.136 397.367 127.138 396.83C127.136 396.389 127.253 396.004 127.49 395.675C127.729 395.346 128.057 395.089 128.474 394.905C128.89 394.72 129.364 394.628 129.894 394.628C130.434 394.628 130.905 394.72 131.307 394.905C131.712 395.089 132.027 395.346 132.252 395.675C132.477 396.004 132.593 396.386 132.6 396.819H131.126ZM133.457 395.995V394.727H139.43V395.995H137.203V402H135.683V395.995H133.457ZM140.413 402V394.727H145.314V395.995H141.951V397.728H145.062V398.996H141.951V400.732H145.328V402H140.413ZM146.536 402V394.727H149.406C149.955 394.727 150.424 394.826 150.812 395.022C151.203 395.216 151.5 395.492 151.703 395.849C151.909 396.205 152.012 396.622 152.012 397.103C152.012 397.586 151.908 398.001 151.7 398.349C151.491 398.695 151.19 398.96 150.794 399.145C150.401 399.33 149.925 399.422 149.367 399.422H147.445V398.186H149.118C149.412 398.186 149.655 398.146 149.85 398.065C150.044 397.985 150.188 397.864 150.283 397.703C150.38 397.542 150.428 397.342 150.428 397.103C150.428 396.862 150.38 396.658 150.283 396.492C150.188 396.326 150.043 396.201 149.846 396.116C149.652 396.028 149.407 395.984 149.111 395.984H148.074V402H146.536ZM150.464 398.69L152.271 402H150.574L148.806 398.69H150.464ZM153.099 402V394.727H157.999V395.995H154.637V397.728H157.747V398.996H154.637V400.732H158.014V402H153.099ZM165.905 398.364C165.905 399.157 165.755 399.831 165.454 400.388C165.156 400.944 164.749 401.369 164.233 401.663C163.719 401.954 163.141 402.099 162.5 402.099C161.853 402.099 161.273 401.953 160.76 401.659C160.246 401.366 159.84 400.941 159.542 400.384C159.243 399.828 159.094 399.154 159.094 398.364C159.094 397.571 159.243 396.896 159.542 396.339C159.84 395.783 160.246 395.359 160.76 395.068C161.273 394.775 161.853 394.628 162.5 394.628C163.141 394.628 163.719 394.775 164.233 395.068C164.749 395.359 165.156 395.783 165.454 396.339C165.755 396.896 165.905 397.571 165.905 398.364ZM164.346 398.364C164.346 397.85 164.269 397.417 164.115 397.064C163.964 396.711 163.75 396.444 163.473 396.261C163.196 396.079 162.871 395.988 162.5 395.988C162.128 395.988 161.804 396.079 161.527 396.261C161.25 396.444 161.034 396.711 160.88 397.064C160.729 397.417 160.653 397.85 160.653 398.364C160.653 398.877 160.729 399.311 160.88 399.663C161.034 400.016 161.25 400.284 161.527 400.466C161.804 400.648 162.128 400.739 162.5 400.739C162.871 400.739 163.196 400.648 163.473 400.466C163.75 400.284 163.964 400.016 164.115 399.663C164.269 399.311 164.346 398.877 164.346 398.364ZM169.359 402V394.727H170.896V400.732H174.014V402H169.359ZM176.57 394.727V402H175.032V394.727H176.57ZM183.918 394.727V402H182.59L179.426 397.423H179.373V402H177.835V394.727H179.185L182.324 399.301H182.388V394.727H183.918ZM185.189 402V394.727H186.726V397.934H186.822L189.439 394.727H191.282L188.584 397.984L191.314 402H189.475L187.483 399.01L186.726 399.933V402H185.189Z" fill="#434343"/>
<ellipse cx="161" cy="156.5" rx="53" ry="53.5" fill="url(#paint13_radial_201_2)" fill-opacity="0.5"/>
<path d="M192.02 155.518C192.02 172.939 178.121 187.035 161.01 187.035C143.898 187.035 130 172.939 130 155.518C130 138.096 143.898 124 161.01 124C178.121 124 192.02 138.096 192.02 155.518Z" fill="url(#paint14_radial_201_2)" stroke="#452B45" stroke-width="2"/>
<path d="M114.344 109.819C114.316 109.532 114.194 109.31 113.978 109.151C113.763 108.993 113.47 108.913 113.101 108.913C112.85 108.913 112.638 108.949 112.465 109.02C112.293 109.089 112.16 109.184 112.068 109.308C111.978 109.431 111.933 109.57 111.933 109.727C111.928 109.857 111.955 109.97 112.014 110.067C112.076 110.165 112.16 110.249 112.267 110.32C112.373 110.388 112.496 110.449 112.636 110.501C112.776 110.55 112.925 110.593 113.083 110.629L113.737 110.785C114.054 110.856 114.345 110.951 114.61 111.069C114.876 111.187 115.105 111.333 115.299 111.506C115.493 111.679 115.644 111.882 115.75 112.116C115.859 112.351 115.915 112.62 115.917 112.923C115.915 113.368 115.801 113.754 115.576 114.08C115.354 114.405 115.032 114.657 114.61 114.837C114.191 115.014 113.686 115.103 113.094 115.103C112.507 115.103 111.996 115.013 111.56 114.833C111.127 114.653 110.788 114.387 110.544 114.034C110.303 113.679 110.176 113.24 110.164 112.717H111.652C111.669 112.96 111.739 113.164 111.862 113.327C111.987 113.488 112.154 113.61 112.362 113.693C112.573 113.774 112.811 113.814 113.076 113.814C113.337 113.814 113.563 113.776 113.755 113.7C113.949 113.625 114.099 113.519 114.206 113.384C114.312 113.249 114.365 113.094 114.365 112.919C114.365 112.756 114.317 112.618 114.22 112.507C114.125 112.396 113.985 112.301 113.801 112.223C113.618 112.145 113.395 112.074 113.13 112.01L112.338 111.811C111.724 111.662 111.24 111.429 110.885 111.112C110.53 110.794 110.354 110.367 110.356 109.83C110.354 109.389 110.471 109.004 110.708 108.675C110.947 108.346 111.275 108.089 111.691 107.905C112.108 107.72 112.581 107.628 113.112 107.628C113.652 107.628 114.123 107.72 114.525 107.905C114.93 108.089 115.245 108.346 115.47 108.675C115.695 109.004 115.811 109.386 115.818 109.819H114.344ZM118.489 107.727V115H116.951V107.727H118.489ZM122.332 115H119.754V107.727H122.354C123.085 107.727 123.715 107.873 124.243 108.164C124.771 108.453 125.177 108.868 125.461 109.411C125.747 109.953 125.891 110.601 125.891 111.357C125.891 112.114 125.747 112.765 125.461 113.31C125.177 113.854 124.768 114.272 124.236 114.563C123.705 114.854 123.071 115 122.332 115ZM121.292 113.683H122.268C122.723 113.683 123.105 113.602 123.415 113.441C123.728 113.278 123.962 113.026 124.119 112.685C124.277 112.341 124.356 111.899 124.356 111.357C124.356 110.819 124.277 110.38 124.119 110.039C123.962 109.698 123.729 109.447 123.419 109.286C123.109 109.125 122.726 109.045 122.272 109.045H121.292V113.683ZM127.03 115V107.727H131.93V108.995H128.567V110.728H131.678V111.996H128.567V113.732H131.944V115H127.03ZM139.57 110.273H138.014C137.986 110.072 137.928 109.893 137.84 109.737C137.753 109.579 137.64 109.444 137.503 109.332C137.365 109.221 137.207 109.136 137.027 109.077C136.849 109.018 136.656 108.988 136.448 108.988C136.072 108.988 135.744 109.081 135.464 109.268C135.185 109.453 134.968 109.723 134.815 110.078C134.661 110.431 134.584 110.859 134.584 111.364C134.584 111.882 134.661 112.318 134.815 112.67C134.971 113.023 135.189 113.29 135.468 113.469C135.747 113.649 136.07 113.739 136.437 113.739C136.643 113.739 136.834 113.712 137.009 113.658C137.187 113.603 137.344 113.524 137.481 113.42C137.619 113.313 137.732 113.184 137.822 113.033C137.915 112.881 137.979 112.708 138.014 112.514L139.57 112.521C139.529 112.855 139.429 113.177 139.268 113.487C139.109 113.795 138.895 114.071 138.625 114.315C138.357 114.556 138.038 114.748 137.666 114.89C137.297 115.03 136.879 115.099 136.413 115.099C135.764 115.099 135.184 114.953 134.672 114.659C134.164 114.366 133.761 113.941 133.465 113.384C133.172 112.828 133.025 112.154 133.025 111.364C133.025 110.571 133.174 109.896 133.472 109.339C133.771 108.783 134.175 108.359 134.687 108.068C135.198 107.775 135.773 107.628 136.413 107.628C136.834 107.628 137.225 107.687 137.584 107.805C137.947 107.924 138.267 108.097 138.547 108.324C138.826 108.549 139.053 108.825 139.229 109.151C139.406 109.478 139.52 109.852 139.57 110.273ZM140.672 115V107.727H142.21V110.728H145.331V107.727H146.865V115H145.331V111.996H142.21V115H140.672ZM149.387 115H147.739L150.25 107.727H152.231L154.738 115H153.09L151.269 109.389H151.212L149.387 115ZM149.284 112.141H153.176V113.342H149.284V112.141ZM157.151 107.727V115H155.614V107.727H157.151ZM164.499 107.727V115H163.171L160.007 110.423H159.954V115H158.416V107.727H159.766L162.905 112.301H162.969V107.727H164.499ZM169.338 115H167.69L170.201 107.727H172.182L174.689 115H173.042L171.22 109.389H171.163L169.338 115ZM169.235 112.141H173.127V113.342H169.235V112.141ZM175.565 107.727H177.461L179.464 112.614H179.549L181.552 107.727H183.448V115H181.957V110.266H181.896L180.014 114.964H178.999L177.117 110.249H177.056V115H175.565V107.727ZM191.398 111.364C191.398 112.157 191.248 112.831 190.947 113.388C190.649 113.944 190.242 114.369 189.726 114.663C189.212 114.954 188.634 115.099 187.993 115.099C187.347 115.099 186.766 114.953 186.253 114.659C185.739 114.366 185.333 113.941 185.035 113.384C184.736 112.828 184.587 112.154 184.587 111.364C184.587 110.571 184.736 109.896 185.035 109.339C185.333 108.783 185.739 108.359 186.253 108.068C186.766 107.775 187.347 107.628 187.993 107.628C188.634 107.628 189.212 107.775 189.726 108.068C190.242 108.359 190.649 108.783 190.947 109.339C191.248 109.896 191.398 110.571 191.398 111.364ZM189.839 111.364C189.839 110.85 189.762 110.417 189.609 110.064C189.457 109.711 189.243 109.444 188.966 109.261C188.689 109.079 188.364 108.988 187.993 108.988C187.621 108.988 187.297 109.079 187.02 109.261C186.743 109.444 186.527 109.711 186.373 110.064C186.222 110.417 186.146 110.85 186.146 111.364C186.146 111.877 186.222 112.311 186.373 112.663C186.527 113.016 186.743 113.284 187.02 113.466C187.297 113.648 187.621 113.739 187.993 113.739C188.364 113.739 188.689 113.648 188.966 113.466C189.243 113.284 189.457 113.016 189.609 112.663C189.762 112.311 189.839 111.877 189.839 111.364ZM197.03 107.727H198.567V112.45C198.567 112.981 198.441 113.445 198.187 113.842C197.936 114.24 197.585 114.55 197.133 114.773C196.68 114.993 196.154 115.103 195.552 115.103C194.949 115.103 194.421 114.993 193.968 114.773C193.516 114.55 193.165 114.24 192.914 113.842C192.663 113.445 192.537 112.981 192.537 112.45V107.727H194.075V112.319C194.075 112.596 194.135 112.842 194.256 113.058C194.379 113.273 194.552 113.442 194.775 113.565C194.997 113.688 195.256 113.75 195.552 113.75C195.851 113.75 196.11 113.688 196.33 113.565C196.553 113.442 196.724 113.273 196.845 113.058C196.968 112.842 197.03 112.596 197.03 112.319V107.727ZM205.915 107.727V115H204.587L201.423 110.423H201.37V115H199.832V107.727H201.182L204.321 112.301H204.385V107.727H205.915ZM206.909 108.995V107.727H212.882V108.995H210.655V115H209.135V108.995H206.909Z" fill="#434343"/>
<rect x="87" y="30" width="149" height="59" rx="6" fill="#F9F9F9"/>
<path d="M101.86 73.31C101.86 73.7967 101.967 74.1967 102.18 74.51C102.393 74.8167 102.743 74.97 103.23 74.97C103.43 74.97 103.637 74.9433 103.85 74.89C104.07 74.8367 104.34 74.7467 104.66 74.62L105.03 75.66C104.67 75.82 104.337 75.9333 104.03 76C103.73 76.0667 103.44 76.1 103.16 76.1C102.6 76.1 102.13 75.98 101.75 75.74C101.377 75.5 101.097 75.17 100.91 74.75C100.723 74.33 100.63 73.85 100.63 73.31V71.88C100.63 71.34 100.723 70.86 100.91 70.44C101.097 70.02 101.377 69.6933 101.75 69.46C102.13 69.22 102.6 69.1 103.16 69.1C103.433 69.1 103.717 69.1333 104.01 69.2C104.303 69.26 104.623 69.3667 104.97 69.52L104.6 70.58C104.293 70.4533 104.037 70.3633 103.83 70.31C103.623 70.2567 103.423 70.23 103.23 70.23C102.743 70.23 102.393 70.3833 102.18 70.69C101.967 70.9967 101.86 71.3933 101.86 71.88V73.31ZM107.312 69.97H106.102V68.78H107.312V69.97ZM107.282 76H106.132V70.93H107.282V76ZM111.346 71.9C111.18 71.9 110.99 71.94 110.776 72.02C110.563 72.1 110.31 72.2567 110.016 72.49V76H108.866V70.93H109.956V71.61C110.27 71.3367 110.566 71.14 110.846 71.02C111.126 70.8933 111.41 70.83 111.696 70.83C112.183 70.83 112.553 70.9867 112.806 71.3C113.06 71.6067 113.186 72.04 113.186 72.6V76H112.036V72.74C112.036 72.18 111.806 71.9 111.346 71.9ZM118.556 75.71C118.209 75.85 117.883 75.95 117.576 76.01C117.269 76.07 116.979 76.1 116.706 76.1C115.953 76.1 115.383 75.8867 114.996 75.46C114.609 75.0333 114.416 74.4667 114.416 73.76V73.16C114.416 72.6867 114.503 72.2767 114.676 71.93C114.849 71.5833 115.096 71.3133 115.416 71.12C115.736 70.9267 116.113 70.83 116.546 70.83C116.899 70.83 117.229 70.9033 117.536 71.05C117.849 71.19 118.103 71.4133 118.296 71.72C118.496 72.02 118.596 72.4067 118.596 72.88C118.596 73.02 118.586 73.17 118.566 73.33C118.546 73.4833 118.513 73.6467 118.466 73.82H115.526C115.539 74.2333 115.643 74.5433 115.836 74.75C116.029 74.9567 116.339 75.06 116.766 75.06C116.993 75.06 117.226 75.0333 117.466 74.98C117.713 74.9267 117.966 74.8467 118.226 74.74L118.556 75.71ZM116.546 71.8C116.239 71.8 115.999 71.9 115.826 72.1C115.659 72.2933 115.563 72.5733 115.536 72.94H117.456C117.463 72.9067 117.466 72.8767 117.466 72.85C117.466 72.8167 117.466 72.7867 117.466 72.76C117.466 72.44 117.376 72.2 117.196 72.04C117.016 71.88 116.799 71.8 116.546 71.8ZM121.071 72.49V76H119.921V70.93H121.011V71.6C121.324 71.3267 121.614 71.13 121.881 71.01C122.148 70.89 122.421 70.83 122.701 70.83C123.321 70.83 123.744 71.1033 123.971 71.65C124.304 71.3567 124.614 71.1467 124.901 71.02C125.188 70.8933 125.478 70.83 125.771 70.83C126.238 70.83 126.594 70.9867 126.841 71.3C127.088 71.6067 127.211 72.04 127.211 72.6V76H126.061V72.74C126.061 72.18 125.848 71.9 125.421 71.9C125.254 71.9 125.071 71.94 124.871 72.02C124.671 72.1 124.428 72.2567 124.141 72.49V76H122.991V72.74C122.991 72.18 122.778 71.9 122.351 71.9C122.184 71.9 122.001 71.94 121.801 72.02C121.601 72.1 121.358 72.2567 121.071 72.49ZM130.633 76.5C130.413 77.1133 130.133 77.5533 129.793 77.82C129.453 78.0933 128.986 78.23 128.393 78.23V77.08C128.746 77.0667 129.023 76.9867 129.223 76.84C129.43 76.7 129.583 76.5033 129.683 76.25L129.773 76.02L127.963 70.93H129.103L129.973 73.46L130.313 74.53L130.643 73.46L131.473 70.93H132.613L130.633 76.5ZM134.993 75.1C135.24 75.1 135.443 75.06 135.603 74.98C135.763 74.8933 135.843 74.7667 135.843 74.6C135.843 74.4533 135.79 74.34 135.683 74.26C135.583 74.1733 135.4 74.0967 135.133 74.03L134.563 73.88C134.123 73.7667 133.797 73.5767 133.583 73.31C133.377 73.0433 133.273 72.7267 133.273 72.36C133.273 71.9267 133.423 71.5633 133.723 71.27C134.023 70.9767 134.487 70.83 135.113 70.83C135.367 70.83 135.633 70.86 135.913 70.92C136.193 70.98 136.487 71.0767 136.793 71.21L136.463 72.19C136.183 72.0567 135.93 71.9633 135.703 71.91C135.477 71.8567 135.277 71.83 135.103 71.83C134.63 71.83 134.393 71.99 134.393 72.31C134.393 72.4367 134.433 72.5367 134.513 72.61C134.6 72.6833 134.757 72.75 134.983 72.81L135.553 72.96C136.04 73.0867 136.393 73.28 136.613 73.54C136.84 73.8 136.953 74.1267 136.953 74.52C136.953 74.9867 136.793 75.3667 136.473 75.66C136.16 75.9533 135.663 76.1 134.983 76.1C134.403 76.1 133.793 75.9667 133.153 75.7L133.463 74.75C133.777 74.8767 134.06 74.9667 134.313 75.02C134.567 75.0733 134.793 75.1 134.993 75.1ZM141.184 75.83C141.01 75.91 140.81 75.9733 140.584 76.02C140.357 76.0733 140.127 76.1 139.894 76.1C139.507 76.1 139.197 76.02 138.964 75.86C138.73 75.7 138.56 75.4767 138.454 75.19C138.354 74.9033 138.304 74.5767 138.304 74.21V71.93H137.484V70.93H138.304V69.61H139.454V70.93H141.034V71.93H139.454V74.21C139.454 74.5167 139.51 74.73 139.624 74.85C139.744 74.9633 139.914 75.02 140.134 75.02C140.24 75.02 140.354 75.01 140.474 74.99C140.6 74.9633 140.74 74.92 140.894 74.86L141.184 75.83ZM143.288 69.97H142.078V68.78H143.288V69.97ZM143.258 76H142.108V70.93H143.258V76ZM145.723 73.17V73.76C145.723 74.1867 145.799 74.5067 145.953 74.72C146.106 74.9333 146.353 75.04 146.693 75.04C146.859 75.04 147.046 75.02 147.253 74.98C147.466 74.9333 147.696 74.8633 147.943 74.77L148.273 75.74C147.973 75.86 147.689 75.95 147.423 76.01C147.156 76.07 146.893 76.1 146.633 76.1C145.966 76.1 145.456 75.8867 145.103 75.46C144.749 75.0333 144.573 74.4667 144.573 73.76V73.17C144.573 72.4567 144.749 71.89 145.103 71.47C145.456 71.0433 145.966 70.83 146.633 70.83C146.886 70.83 147.143 70.86 147.403 70.92C147.663 70.98 147.936 71.0667 148.223 71.18L147.893 72.17C147.413 71.9833 147.013 71.89 146.693 71.89C146.353 71.89 146.106 71.9967 145.953 72.21C145.799 72.4167 145.723 72.7367 145.723 73.17ZM150.745 75.1C150.992 75.1 151.195 75.06 151.355 74.98C151.515 74.8933 151.595 74.7667 151.595 74.6C151.595 74.4533 151.542 74.34 151.435 74.26C151.335 74.1733 151.152 74.0967 150.885 74.03L150.315 73.88C149.875 73.7667 149.548 73.5767 149.335 73.31C149.128 73.0433 149.025 72.7267 149.025 72.36C149.025 71.9267 149.175 71.5633 149.475 71.27C149.775 70.9767 150.238 70.83 150.865 70.83C151.118 70.83 151.385 70.86 151.665 70.92C151.945 70.98 152.238 71.0767 152.545 71.21L152.215 72.19C151.935 72.0567 151.682 71.9633 151.455 71.91C151.228 71.8567 151.028 71.83 150.855 71.83C150.382 71.83 150.145 71.99 150.145 72.31C150.145 72.4367 150.185 72.5367 150.265 72.61C150.352 72.6833 150.508 72.75 150.735 72.81L151.305 72.96C151.792 73.0867 152.145 73.28 152.365 73.54C152.592 73.8 152.705 74.1267 152.705 74.52C152.705 74.9867 152.545 75.3667 152.225 75.66C151.912 75.9533 151.415 76.1 150.735 76.1C150.155 76.1 149.545 75.9667 148.905 75.7L149.215 74.75C149.528 74.8767 149.812 74.9667 150.065 75.02C150.318 75.0733 150.545 75.1 150.745 75.1Z" fill="#6F6F6F"/>
<path d="M202.7 69.2L200.54 76H199.31L197.14 69.2H198.46L199.49 72.62L199.96 74.38L200.46 72.61L201.48 69.2H202.7ZM204.942 70.17L206.672 69.2H207.672V76H206.492V70.52L205.472 71.08L204.942 70.17ZM210.076 76H208.866V74.81H210.076V76ZM215.878 71.88V73.31C215.878 74.1767 215.674 74.86 215.268 75.36C214.861 75.8533 214.264 76.1 213.478 76.1C212.691 76.1 212.094 75.8533 211.688 75.36C211.281 74.86 211.078 74.1767 211.078 73.31V71.88C211.078 71.0133 211.281 70.3333 211.688 69.84C212.094 69.3467 212.691 69.1 213.478 69.1C214.264 69.1 214.861 69.3467 215.268 69.84C215.674 70.3333 215.878 71.0133 215.878 71.88ZM214.668 71.88C214.668 70.7667 214.271 70.21 213.478 70.21C213.071 70.21 212.771 70.35 212.578 70.63C212.384 70.91 212.288 71.3267 212.288 71.88V73.31C212.288 73.8633 212.384 74.2833 212.578 74.57C212.771 74.85 213.071 74.99 213.478 74.99C214.271 74.99 214.668 74.43 214.668 73.31V71.88Z" fill="#6F6F6F"/>
<path d="M100.312 45.44V42.68H112.312V45.44H107.752V59H104.872V45.44H100.312ZM120.481 49.16C120.081 49.16 119.625 49.256 119.113 49.448C118.601 49.64 117.993 50.016 117.289 50.576V59H114.529V41.24H117.289V48.344C118.025 47.72 118.713 47.272 119.353 47C119.993 46.728 120.649 46.592 121.321 46.592C122.489 46.592 123.377 46.968 123.985 47.72C124.593 48.456 124.897 49.496 124.897 50.84V59H122.137V51.176C122.137 49.832 121.585 49.16 120.481 49.16ZM137.784 58.304C136.952 58.64 136.168 58.88 135.432 59.024C134.696 59.168 134 59.24 133.344 59.24C131.536 59.24 130.168 58.728 129.24 57.704C128.312 56.68 127.848 55.32 127.848 53.624V52.184C127.848 51.048 128.056 50.064 128.472 49.232C128.888 48.4 129.48 47.752 130.248 47.288C131.016 46.824 131.92 46.592 132.96 46.592C133.808 46.592 134.6 46.768 135.336 47.12C136.088 47.456 136.696 47.992 137.16 48.728C137.64 49.448 137.88 50.376 137.88 51.512C137.88 51.848 137.856 52.208 137.808 52.592C137.76 52.96 137.68 53.352 137.568 53.768H130.512C130.544 54.76 130.792 55.504 131.256 56C131.72 56.496 132.464 56.744 133.488 56.744C134.032 56.744 134.592 56.68 135.168 56.552C135.76 56.424 136.368 56.232 136.992 55.976L137.784 58.304ZM132.96 48.92C132.224 48.92 131.648 49.16 131.232 49.64C130.832 50.104 130.6 50.776 130.536 51.656H135.144C135.16 51.576 135.168 51.504 135.168 51.44C135.168 51.36 135.168 51.288 135.168 51.224C135.168 50.456 134.952 49.88 134.52 49.496C134.088 49.112 133.568 48.92 132.96 48.92ZM144.564 42.68L149.124 53.84L153.66 42.68H156.804V59H154.044V52.76L154.404 47.048L150.348 57.08H147.78L143.82 47.024L144.18 52.76V59H141.42V42.68H144.564ZM170.175 59.12C169.359 59.12 168.703 58.952 168.207 58.616C167.727 58.28 167.375 57.864 167.151 57.368C166.463 58.008 165.799 58.48 165.159 58.784C164.519 59.088 163.831 59.24 163.095 59.24C162.023 59.24 161.231 58.896 160.719 58.208C160.223 57.52 159.975 56.648 159.975 55.592C159.975 54.888 160.103 54.272 160.359 53.744C160.631 53.2 161.071 52.776 161.679 52.472C162.287 52.168 163.119 52.016 164.175 52.016C164.591 52.016 165.023 52.048 165.471 52.112C165.919 52.16 166.367 52.224 166.815 52.304V50.888C166.815 50.216 166.631 49.76 166.263 49.52C165.895 49.264 165.399 49.136 164.775 49.136C164.295 49.136 163.767 49.2 163.191 49.328C162.631 49.456 162.023 49.656 161.367 49.928L160.575 47.576C162.191 46.92 163.655 46.592 164.967 46.592C166.151 46.592 167.063 46.792 167.703 47.192C168.359 47.592 168.815 48.12 169.071 48.776C169.327 49.432 169.455 50.136 169.455 50.888V55.568C169.455 55.808 169.519 56.04 169.647 56.264C169.791 56.472 170.063 56.576 170.463 56.576H170.727V59.12H170.175ZM162.639 55.544C162.639 55.976 162.735 56.32 162.927 56.576C163.119 56.816 163.399 56.936 163.767 56.936C164.135 56.936 164.551 56.84 165.015 56.648C165.479 56.456 166.079 56.008 166.815 55.304V54.272C165.983 54.128 165.167 54.056 164.367 54.056C163.743 54.056 163.295 54.184 163.023 54.44C162.767 54.696 162.639 55.064 162.639 55.544ZM176.531 56.84C177.123 56.84 177.611 56.744 177.995 56.552C178.379 56.344 178.571 56.04 178.571 55.64C178.571 55.288 178.443 55.016 178.187 54.824C177.947 54.616 177.507 54.432 176.867 54.272L175.499 53.912C174.443 53.64 173.659 53.184 173.147 52.544C172.651 51.904 172.403 51.144 172.403 50.264C172.403 49.224 172.763 48.352 173.483 47.648C174.203 46.944 175.315 46.592 176.819 46.592C177.427 46.592 178.067 46.664 178.739 46.808C179.411 46.952 180.115 47.184 180.851 47.504L180.059 49.856C179.387 49.536 178.779 49.312 178.235 49.184C177.691 49.056 177.211 48.992 176.795 48.992C175.659 48.992 175.091 49.376 175.091 50.144C175.091 50.448 175.187 50.688 175.379 50.864C175.587 51.04 175.963 51.2 176.507 51.344L177.875 51.704C179.043 52.008 179.891 52.472 180.419 53.096C180.963 53.72 181.235 54.504 181.235 55.448C181.235 56.568 180.851 57.48 180.083 58.184C179.331 58.888 178.139 59.24 176.507 59.24C175.115 59.24 173.651 58.92 172.115 58.28L172.859 56C173.611 56.304 174.291 56.52 174.899 56.648C175.507 56.776 176.051 56.84 176.531 56.84ZM191.34 59L188.34 53.936C187.86 54.416 187.356 54.896 186.828 55.376V59H184.068V41.24H186.828V52.328C187.74 51.4 188.524 50.512 189.18 49.664C189.852 48.8 190.468 47.856 191.028 46.832H194.196C193.668 47.792 193.092 48.704 192.468 49.568C191.844 50.432 191.156 51.304 190.404 52.184L194.676 59H191.34ZM205.73 58.304C204.898 58.64 204.114 58.88 203.378 59.024C202.642 59.168 201.946 59.24 201.29 59.24C199.482 59.24 198.114 58.728 197.186 57.704C196.258 56.68 195.794 55.32 195.794 53.624V52.184C195.794 51.048 196.002 50.064 196.418 49.232C196.834 48.4 197.426 47.752 198.194 47.288C198.962 46.824 199.866 46.592 200.906 46.592C201.754 46.592 202.546 46.768 203.282 47.12C204.034 47.456 204.642 47.992 205.106 48.728C205.586 49.448 205.826 50.376 205.826 51.512C205.826 51.848 205.802 52.208 205.754 52.592C205.706 52.96 205.626 53.352 205.514 53.768H198.458C198.49 54.76 198.738 55.504 199.202 56C199.666 56.496 200.41 56.744 201.434 56.744C201.978 56.744 202.538 56.68 203.114 56.552C203.706 56.424 204.314 56.232 204.938 55.976L205.73 58.304ZM200.906 48.92C200.17 48.92 199.594 49.16 199.178 49.64C198.778 50.104 198.546 50.776 198.482 51.656H203.09C203.106 51.576 203.114 51.504 203.114 51.44C203.114 51.36 203.114 51.288 203.114 51.224C203.114 50.456 202.898 49.88 202.466 49.496C202.034 49.112 201.514 48.92 200.906 48.92ZM215.869 49.352C215.117 49.352 214.397 49.472 213.709 49.712C213.037 49.936 212.389 50.304 211.765 50.816V59H209.005V46.832H211.621V48.704C212.437 47.936 213.165 47.392 213.805 47.072C214.445 46.752 215.133 46.592 215.869 46.592V49.352Z" fill="#434343"/>
<circle cx="37" cy="439" r="27" fill="url(#paint15_radial_201_2)" fill-opacity="0.6"/>
<circle cx="37" cy="438" r="16.5" fill="url(#paint16_radial_201_2)" stroke="#542155"/>
<path d="M33.5916 403.727V411H32.054V403.727H33.5916ZM40.9398 403.727V411H39.6117L36.4476 406.423H36.3944V411H34.8567V403.727H36.2061L39.3453 408.301H39.4093V403.727H40.9398Z" fill="#434343"/>
<line x1="278" y1="462" x2="295" y2="462" stroke="#D5D5D5" stroke-width="4" stroke-linecap="round"/>
<path d="M306.592 458.727V466H305.054V458.727H306.592ZM313.94 458.727V466H312.612L309.448 461.423H309.394V466H307.857V458.727H309.206L312.345 463.301H312.409V458.727H313.94Z" fill="#D5D5D5"/>
<line x1="328" y1="462" x2="345" y2="462" stroke="#FFC700" stroke-width="4" stroke-linecap="round"/>
<path d="M357.041 460.819C357.013 460.532 356.891 460.31 356.676 460.151C356.46 459.993 356.168 459.913 355.798 459.913C355.547 459.913 355.336 459.949 355.163 460.02C354.99 460.089 354.857 460.184 354.765 460.308C354.675 460.431 354.63 460.57 354.63 460.727C354.625 460.857 354.653 460.97 354.712 461.067C354.773 461.165 354.857 461.249 354.964 461.32C355.07 461.388 355.194 461.449 355.333 461.501C355.473 461.55 355.622 461.593 355.781 461.629L356.434 461.785C356.751 461.856 357.042 461.951 357.308 462.069C357.573 462.187 357.802 462.333 357.997 462.506C358.191 462.679 358.341 462.882 358.448 463.116C358.556 463.351 358.612 463.62 358.614 463.923C358.612 464.368 358.498 464.754 358.274 465.08C358.051 465.405 357.729 465.657 357.308 465.837C356.889 466.014 356.383 466.103 355.791 466.103C355.204 466.103 354.693 466.013 354.257 465.833C353.824 465.653 353.485 465.387 353.242 465.034C353 464.679 352.873 464.24 352.862 463.717H354.35C354.366 463.96 354.436 464.164 354.559 464.327C354.685 464.488 354.851 464.61 355.06 464.693C355.27 464.774 355.508 464.814 355.774 464.814C356.034 464.814 356.26 464.776 356.452 464.7C356.646 464.625 356.796 464.519 356.903 464.384C357.009 464.249 357.063 464.094 357.063 463.919C357.063 463.756 357.014 463.618 356.917 463.507C356.822 463.396 356.683 463.301 356.498 463.223C356.316 463.145 356.092 463.074 355.827 463.01L355.035 462.811C354.422 462.662 353.938 462.429 353.582 462.112C353.227 461.794 353.051 461.367 353.053 460.83C353.051 460.389 353.168 460.004 353.405 459.675C353.644 459.346 353.972 459.089 354.389 458.905C354.805 458.72 355.279 458.628 355.809 458.628C356.349 458.628 356.82 458.72 357.222 458.905C357.627 459.089 357.942 459.346 358.167 459.675C358.392 460.004 358.508 460.386 358.515 460.819H357.041ZM366.066 461.273H364.51C364.482 461.072 364.424 460.893 364.336 460.737C364.249 460.579 364.136 460.444 363.999 460.332C363.862 460.221 363.703 460.136 363.523 460.077C363.345 460.018 363.152 459.988 362.944 459.988C362.568 459.988 362.24 460.081 361.96 460.268C361.681 460.453 361.465 460.723 361.311 461.078C361.157 461.431 361.08 461.859 361.08 462.364C361.08 462.882 361.157 463.318 361.311 463.67C361.467 464.023 361.685 464.29 361.964 464.469C362.243 464.649 362.567 464.739 362.934 464.739C363.139 464.739 363.33 464.712 363.505 464.658C363.683 464.603 363.84 464.524 363.978 464.42C364.115 464.313 364.228 464.184 364.318 464.033C364.411 463.881 364.475 463.708 364.51 463.514L366.066 463.521C366.025 463.855 365.925 464.177 365.764 464.487C365.605 464.795 365.391 465.071 365.121 465.315C364.853 465.556 364.534 465.748 364.162 465.89C363.793 466.03 363.375 466.099 362.909 466.099C362.26 466.099 361.68 465.953 361.169 465.659C360.66 465.366 360.257 464.941 359.961 464.384C359.668 463.828 359.521 463.154 359.521 462.364C359.521 461.571 359.67 460.896 359.968 460.339C360.267 459.783 360.671 459.359 361.183 459.068C361.694 458.775 362.269 458.628 362.909 458.628C363.33 458.628 363.721 458.687 364.081 458.805C364.443 458.924 364.764 459.097 365.043 459.324C365.322 459.549 365.55 459.825 365.725 460.151C365.902 460.478 366.016 460.852 366.066 461.273Z" fill="#FFC700"/>
<line x1="625" y1="462" x2="642" y2="462" stroke="#B84DBA" stroke-width="4" stroke-linecap="round"/>
<path d="M652.378 466H649.8V458.727H652.4C653.131 458.727 653.761 458.873 654.289 459.164C654.817 459.453 655.223 459.868 655.507 460.411C655.793 460.953 655.936 461.601 655.936 462.357C655.936 463.114 655.793 463.765 655.507 464.31C655.223 464.854 654.814 465.272 654.282 465.563C653.751 465.854 653.117 466 652.378 466ZM651.338 464.683H652.314C652.769 464.683 653.151 464.602 653.461 464.441C653.774 464.278 654.008 464.026 654.164 463.685C654.323 463.341 654.402 462.899 654.402 462.357C654.402 461.819 654.323 461.38 654.164 461.039C654.008 460.698 653.775 460.447 653.465 460.286C653.155 460.125 652.772 460.045 652.318 460.045H651.338V464.683ZM659.533 466.107C658.972 466.107 658.489 465.993 658.084 465.766C657.682 465.536 657.371 465.212 657.154 464.793C656.936 464.371 656.827 463.873 656.827 463.298C656.827 462.737 656.936 462.244 657.154 461.82C657.371 461.397 657.678 461.066 658.073 460.83C658.471 460.593 658.937 460.474 659.472 460.474C659.832 460.474 660.167 460.532 660.477 460.648C660.79 460.762 661.062 460.934 661.294 461.163C661.529 461.393 661.711 461.682 661.841 462.03C661.971 462.375 662.036 462.78 662.036 463.244V463.66H657.431V462.722H660.612C660.612 462.504 660.565 462.312 660.47 462.143C660.376 461.975 660.244 461.844 660.076 461.749C659.91 461.652 659.718 461.604 659.497 461.604C659.268 461.604 659.064 461.657 658.887 461.763C658.711 461.868 658.574 462.009 658.475 462.186C658.375 462.361 658.324 462.557 658.322 462.772V463.663C658.322 463.933 658.372 464.166 658.471 464.363C658.573 464.559 658.716 464.711 658.901 464.817C659.085 464.924 659.304 464.977 659.558 464.977C659.726 464.977 659.88 464.954 660.019 464.906C660.159 464.859 660.279 464.788 660.378 464.693C660.477 464.598 660.553 464.482 660.605 464.345L662.004 464.438C661.933 464.774 661.788 465.067 661.568 465.318C661.35 465.567 661.068 465.761 660.722 465.901C660.379 466.038 659.983 466.107 659.533 466.107ZM664.536 458.727V466H663.024V458.727H664.536ZM668.65 460.545V461.682H665.365V460.545H668.65ZM666.11 459.239H667.623V464.324C667.623 464.464 667.645 464.572 667.687 464.651C667.73 464.726 667.789 464.78 667.865 464.81C667.943 464.841 668.033 464.857 668.135 464.857C668.206 464.857 668.277 464.851 668.348 464.839C668.419 464.825 668.473 464.814 668.511 464.807L668.749 465.933C668.673 465.956 668.567 465.983 668.429 466.014C668.292 466.047 668.125 466.067 667.929 466.075C667.564 466.089 667.244 466.04 666.97 465.929C666.698 465.818 666.486 465.645 666.334 465.411C666.183 465.176 666.108 464.88 666.11 464.523V459.239ZM671.19 466.103C670.842 466.103 670.532 466.043 670.26 465.922C669.988 465.799 669.772 465.618 669.614 465.379C669.457 465.137 669.379 464.836 669.379 464.477C669.379 464.174 669.435 463.919 669.546 463.713C669.657 463.507 669.809 463.341 670.001 463.216C670.192 463.09 670.41 462.996 670.654 462.932C670.9 462.868 671.158 462.823 671.428 462.797C671.746 462.764 672.001 462.733 672.195 462.705C672.389 462.674 672.53 462.629 672.618 462.57C672.705 462.51 672.749 462.423 672.749 462.307V462.286C672.749 462.061 672.678 461.887 672.536 461.763C672.397 461.64 672.198 461.579 671.94 461.579C671.667 461.579 671.451 461.639 671.29 461.76C671.129 461.878 671.022 462.027 670.97 462.207L669.571 462.094C669.642 461.762 669.782 461.476 669.99 461.234C670.198 460.991 670.467 460.804 670.796 460.673C671.128 460.541 671.511 460.474 671.947 460.474C672.25 460.474 672.54 460.51 672.817 460.581C673.096 460.652 673.344 460.762 673.559 460.911C673.777 461.06 673.948 461.252 674.074 461.487C674.199 461.719 674.262 461.997 674.262 462.321V466H672.827V465.244H672.785C672.697 465.414 672.58 465.564 672.433 465.695C672.286 465.822 672.11 465.923 671.904 465.996C671.698 466.067 671.46 466.103 671.19 466.103ZM671.624 465.059C671.846 465.059 672.043 465.015 672.213 464.928C672.384 464.838 672.517 464.717 672.614 464.565C672.711 464.414 672.76 464.242 672.76 464.05V463.472C672.713 463.502 672.647 463.531 672.565 463.557C672.484 463.58 672.393 463.603 672.291 463.624C672.189 463.643 672.088 463.661 671.986 463.678C671.884 463.692 671.792 463.705 671.709 463.717C671.531 463.743 671.376 463.784 671.244 463.841C671.111 463.898 671.008 463.975 670.935 464.072C670.861 464.166 670.825 464.285 670.825 464.427C670.825 464.633 670.899 464.79 671.048 464.899C671.2 465.006 671.392 465.059 671.624 465.059Z" fill="#B84DBA"/>
<line x1="686" y1="462" x2="703" y2="462" stroke="#0C9600" stroke-width="4" stroke-linecap="round"/>
<path d="M719.417 462.364C719.417 463.157 719.267 463.831 718.966 464.388C718.668 464.944 718.26 465.369 717.744 465.663C717.231 465.954 716.653 466.099 716.011 466.099C715.365 466.099 714.785 465.953 714.271 465.659C713.758 465.366 713.352 464.941 713.053 464.384C712.755 463.828 712.606 463.154 712.606 462.364C712.606 461.571 712.755 460.896 713.053 460.339C713.352 459.783 713.758 459.359 714.271 459.068C714.785 458.775 715.365 458.628 716.011 458.628C716.653 458.628 717.231 458.775 717.744 459.068C718.26 459.359 718.668 459.783 718.966 460.339C719.267 460.896 719.417 461.571 719.417 462.364ZM717.858 462.364C717.858 461.85 717.781 461.417 717.627 461.064C717.476 460.711 717.261 460.444 716.984 460.261C716.707 460.079 716.383 459.988 716.011 459.988C715.64 459.988 715.315 460.079 715.038 460.261C714.761 460.444 714.546 460.711 714.392 461.064C714.241 461.417 714.165 461.85 714.165 462.364C714.165 462.877 714.241 463.311 714.392 463.663C714.546 464.016 714.761 464.284 715.038 464.466C715.315 464.648 715.64 464.739 716.011 464.739C716.383 464.739 716.707 464.648 716.984 464.466C717.261 464.284 717.476 464.016 717.627 463.663C717.781 463.311 717.858 462.877 717.858 462.364ZM725.048 458.727H726.586V463.45C726.586 463.981 726.459 464.445 726.206 464.842C725.955 465.24 725.603 465.55 725.151 465.773C724.699 465.993 724.172 466.103 723.571 466.103C722.967 466.103 722.439 465.993 721.987 465.773C721.535 465.55 721.183 465.24 720.932 464.842C720.681 464.445 720.556 463.981 720.556 463.45V458.727H722.094V463.319C722.094 463.596 722.154 463.842 722.275 464.058C722.398 464.273 722.571 464.442 722.793 464.565C723.016 464.688 723.275 464.75 723.571 464.75C723.869 464.75 724.128 464.688 724.349 464.565C724.571 464.442 724.743 464.273 724.863 464.058C724.987 463.842 725.048 463.596 725.048 463.319V458.727ZM727.574 459.995V458.727H733.547V459.995H731.32V466H729.8V459.995H727.574Z" fill="#0C9600"/>
<rect x="10" y="37" width="24.7869" height="21.16" rx="6" fill="white" fill-opacity="0.5"/>
<path d="M17.9429 40.9186L15.4031 43.4123L17.9429 45.906" stroke="#434343" stroke-width="2.4" stroke-linecap="round" stroke-linejoin="round"/>
<path d="M15.4032 43.4123H24.4514C27.1991 43.4123 29.456 45.5435 29.5631 48.2393C29.6763 51.0879 27.3549 53.4578 24.4514 53.4578H17.7977" stroke="#434343" stroke-width="2.4" stroke-linecap="round" stroke-linejoin="round"/>
<rect x="10" y="61.84" width="24.7869" height="21.16" rx="6" fill="white" fill-opacity="0.5"/>
<path d="M27.119 65.7586L29.6588 68.2524L27.119 70.7461" stroke="#434343" stroke-width="2.4" stroke-linecap="round" stroke-linejoin="round"/>
<path d="M29.6587 68.2523H20.6104C17.8628 68.2523 15.6059 70.3835 15.4988 73.0793C15.3856 75.9279 17.707 78.2978 20.6104 78.2978H27.2641" stroke="#434343" stroke-width="2.4" stroke-linecap="round" stroke-linejoin="round"/>
<rect x="39.2131" y="61.84" width="24.7869" height="21.16" rx="6" fill="white" fill-opacity="0.5"/>
<path d="M52.294 66.8356L50.9999 65.5108C50.4337 64.9312 49.7057 64.6 48.9778 64.6H45.8233C44.61 64.6 43.6393 65.5936 43.6393 66.8356V77.1856C43.6393 78.5104 44.61 79.504 45.8233 79.504H57.3899C58.6031 79.504 59.5738 78.5104 59.5738 77.2684V69.154C59.5738 67.912 58.6031 66.9184 57.3899 66.9184H52.294V66.8356Z" fill="#434343"/>
<path d="M54.0764 73.3768C53.8374 73.0456 53.2797 72.9628 52.961 73.2112L52.3236 73.7908V71.4724C52.3236 70.9756 52.0049 70.6444 51.5269 70.6444C51.0489 70.6444 50.7302 70.9756 50.7302 71.4724V73.7908L50.0131 73.2112C49.6944 72.9628 49.2164 73.0456 48.8977 73.3768C48.6587 73.708 48.6587 74.2876 49.0571 74.536L51.0489 76.192L51.1285 76.2748C51.1285 76.2748 51.2082 76.2748 51.2082 76.3576C51.2879 76.4404 51.4472 76.4404 51.5269 76.4404C51.6066 76.4404 51.7659 76.4404 51.8456 76.3576L51.9252 76.2748C51.9252 76.2748 51.9252 76.2748 52.0049 76.2748L53.9967 74.6188C54.3154 74.2876 54.3154 73.708 54.0764 73.3768Z" fill="#D5D5D5"/>
<rect x="39.2131" y="37" width="24.7869" height="21.16" rx="6" fill="white" fill-opacity="0.5"/>
<path d="M54.0035 50.708H49.2096C48.9916 50.708 48.7737 50.955 48.7737 51.2019V55.4H54.4393V51.2019C54.4393 50.955 54.2214 50.708 54.0035 50.708Z" fill="#434343"/>
<path d="M57.8954 43.0444L55.7618 40.6984C55.1928 40.151 54.4105 39.76 53.557 39.76H47.0138C45.5914 39.76 44.5246 41.0112 44.5246 42.497V52.7412C44.5246 54.227 45.5914 55.4 47.0138 55.4H47.4405V54.618V53.836V51.4118C47.4405 50.2388 48.294 49.3786 49.2897 49.3786H53.9126C54.9795 49.3786 55.7618 50.317 55.7618 51.4118V53.836V54.618V55.4H56.1885C57.5398 55.4 58.6777 54.227 58.6777 52.7412V45.4686C58.7489 44.5302 58.4644 43.7482 57.8954 43.0444Z" fill="#434343"/>
<defs>
<filter id="filter0_d_201_2" x="730" y="0" width="106" height="507" filterUnits="userSpaceOnUse" color-interpolation-filters="sRGB">
<feFlood flood-opacity="0" result="BackgroundImageFix"/>
<feColorMatrix in="SourceAlpha" type="matrix" values="0 0 0 0 0 0 0 0 0 0 0 0 0 0 0 0 0 0 127 0" result="hardAlpha"/>
<feOffset dx="-4"/>
<feGaussianBlur stdDeviation="8"/>
<feComposite in2="hardAlpha" operator="out"/>
<feColorMatrix type="matrix" values="0 0 0 0 0 0 0 0 0 0 0 0 0 0 0 0 0 0 0.5 0"/>
<feBlend mode="normal" in2="BackgroundImageFix" result="effect1_dropShadow_201_2"/>
<feBlend mode="normal" in="SourceGraphic" in2="effect1_dropShadow_201_2" result="shape"/>
</filter>
<linearGradient id="paint0_linear_201_2" x1="412" y1="16" x2="412" y2="435" gradientUnits="userSpaceOnUse">
<stop stop-color="#0A0A0A"/>
<stop offset="0.474181" stop-color="#222222" stop-opacity="0"/>
<stop offset="1" stop-color="#0A0A0A"/>
</linearGradient>
<radialGradient id="paint1_radial_201_2" cx="0" cy="0" r="1" gradientUnits="userSpaceOnUse" gradientTransform="translate(787 253.5) rotate(-90) scale(237.5 37)">
<stop stop-color="#DFDFDF"/>
<stop offset="1" stop-color="#BFBFBF"/>
</radialGradient>
<radialGradient id="paint2_radial_201_2" cx="0" cy="0" r="1" gradientUnits="userSpaceOnUse" gradientTransform="translate(789.231 440.468) rotate(94.6323) scale(27.6219 27.6173)">
<stop stop-opacity="0.5"/>
<stop offset="1" stop-color="#C2C2C2" stop-opacity="0"/>
</radialGradient>
<radialGradient id="paint3_radial_201_2" cx="0" cy="0" r="1" gradientUnits="userSpaceOnUse" gradientTransform="translate(786.997 435.457) rotate(89.9912) scale(19.5431)">
<stop offset="0.375" stop-color="#9A3C9D"/>
<stop offset="0.473958" stop-color="#963C99"/>
<stop offset="0.71875" stop-color="#863D88"/>
<stop offset="1" stop-color="#571D58"/>
</radialGradient>
<radialGradient id="paint4_radial_201_2" cx="0" cy="0" r="1" gradientUnits="userSpaceOnUse" gradientTransform="translate(789.231 67.4684) rotate(94.6323) scale(27.6219 27.6173)">
<stop stop-opacity="0.5"/>
<stop offset="1" stop-color="#C2C2C2" stop-opacity="0"/>
</radialGradient>
<radialGradient id="paint5_radial_201_2" cx="0" cy="0" r="1" gradientUnits="userSpaceOnUse" gradientTransform="translate(786.997 63.4569) rotate(89.9912) scale(19.5431)">
<stop offset="0.375" stop-color="#9A3C9D"/>
<stop offset="0.473958" stop-color="#963C99"/>
<stop offset="0.71875" stop-color="#863D88"/>
<stop offset="1" stop-color="#571D58"/>
</radialGradient>
<radialGradient id="paint6_radial_201_2" cx="0" cy="0" r="1" gradientUnits="userSpaceOnUse" gradientTransform="translate(37 253.5) rotate(90) scale(237.5 37)">
<stop stop-color="#878787"/>
<stop offset="1" stop-color="#848484"/>
</radialGradient>
<linearGradient id="paint7_linear_201_2" x1="53" y1="263.396" x2="249" y2="263.396" gradientUnits="userSpaceOnUse">
<stop stop-color="#424242" stop-opacity="0"/>
<stop offset="1"/>
</linearGradient>
<radialGradient id="paint8_radial_201_2" cx="0" cy="0" r="1" gradientUnits="userSpaceOnUse" gradientTransform="translate(161 253.5) rotate(90) scale(237.5 87)">
<stop stop-color="#DFDFDF"/>
<stop offset="1" stop-color="#BFBFBF"/>
</radialGradient>
<radialGradient id="paint9_radial_201_2" cx="0" cy="0" r="1" gradientUnits="userSpaceOnUse" gradientTransform="translate(163 268.5) rotate(94.5739) scale(37.6198 37.1436)">
<stop stop-opacity="0.5"/>
<stop offset="1" stop-color="#D5D5D5" stop-opacity="0"/>
</radialGradient>
<radialGradient id="paint10_radial_201_2" cx="0" cy="0" r="1" gradientUnits="userSpaceOnUse" gradientTransform="translate(161.464 262.682) rotate(89.9913) scale(23.9027 23.5296)">
<stop offset="0.375" stop-color="#9A3C9D"/>
<stop offset="0.473958" stop-color="#963C99"/>
<stop offset="0.71875" stop-color="#863D88"/>
<stop offset="1" stop-color="#571D58"/>
</radialGradient>
<radialGradient id="paint11_radial_201_2" cx="0" cy="0" r="1" gradientUnits="userSpaceOnUse" gradientTransform="translate(164 349.5) rotate(94.5739) scale(37.6198 37.1436)">
<stop stop-opacity="0.5"/>
<stop offset="1" stop-color="#D5D5D5" stop-opacity="0"/>
</radialGradient>
<radialGradient id="paint12_radial_201_2" cx="0" cy="0" r="1" gradientUnits="userSpaceOnUse" gradientTransform="translate(161.464 343.682) rotate(89.9913) scale(23.9027 23.5296)">
<stop offset="0.375" stop-color="#9A3C9D"/>
<stop offset="0.473958" stop-color="#963C99"/>
<stop offset="0.71875" stop-color="#863D88"/>
<stop offset="1" stop-color="#571D58"/>
</radialGradient>
<radialGradient id="paint13_radial_201_2" cx="0" cy="0" r="1" gradientUnits="userSpaceOnUse" gradientTransform="translate(161 156.5) rotate(90) scale(53.5 53)">
<stop stop-opacity="0.5"/>
<stop offset="1" stop-color="#D5D5D5" stop-opacity="0"/>
</radialGradient>
<radialGradient id="paint14_radial_201_2" cx="0" cy="0" r="1" gradientUnits="userSpaceOnUse" gradientTransform="translate(161.396 152.58) rotate(90.6234) scale(35.4573 34.4724)">
<stop offset="0.328125" stop-color="#983E9A"/>
<stop offset="0.630208" stop-color="#8A3C8B"/>
<stop offset="1" stop-color="#793E7A"/>
</radialGradient>
<radialGradient id="paint15_radial_201_2" cx="0" cy="0" r="1" gradientUnits="userSpaceOnUse" gradientTransform="translate(39.0769 440.367) rotate(94.6323) scale(25.7169 25.7127)">
<stop stop-opacity="0.5"/>
<stop offset="1" stop-color="#595959" stop-opacity="0"/>
</radialGradient>
<radialGradient id="paint16_radial_201_2" cx="0" cy="0" r="1" gradientUnits="userSpaceOnUse" gradientTransform="translate(36.997 435.457) rotate(89.9912) scale(19.5431)">
<stop offset="0.375" stop-color="#9A3C9D"/>
<stop offset="0.473958" stop-color="#963C99"/>
<stop offset="0.71875" stop-color="#863D88"/>
<stop offset="1" stop-color="#571D58"/>
</radialGradient>
</defs>
</svg>
