<?xml version="1.0" encoding="utf-8"?>
<!-- Generator: Adobe Illustrator 16.0.3, SVG Export Plug-In . SVG Version: 6.00 Build 0)  -->
<!DOCTYPE svg PUBLIC "-//W3C//DTD SVG 1.1//EN" "http://www.w3.org/Graphics/SVG/1.1/DTD/svg11.dtd">
<svg version="1.1" id="Livello_1" xmlns="http://www.w3.org/2000/svg" xmlns:xlink="http://www.w3.org/1999/xlink" x="0px" y="0px"
	 width="836px" height="507px" viewBox="0 0 836 507" enable-background="new 0 0 836 507" xml:space="preserve">
<rect y="16" fill="#252525" width="824" height="475"/>
<rect x="226" y="435" fill="#0B0B0B" width="532" height="56"/>
<linearGradient id="SVGID_1_" gradientUnits="userSpaceOnUse" x1="-590" y1="452" x2="-590" y2="33" gradientTransform="matrix(1 0 0 -1 1002 468)">
	<stop  offset="0" style="stop-color:#0A0A0A"/>
	<stop  offset="0.3802" style="stop-color:#181818;stop-opacity:0.4179"/>
	<stop  offset="0.5052" style="stop-color:#222222;stop-opacity:0"/>
	<stop  offset="1" style="stop-color:#0A0A0A"/>
</linearGradient>
<rect y="16" fill="url(#SVGID_1_)" width="824" height="419"/>
<g>
	
		<radialGradient id="SVGID_2_" cx="-666.2944" cy="903.1211" r="1" gradientTransform="matrix(1.454268e-014 -237.5 -37 -2.265597e-015 34202.5 -157991.25)" gradientUnits="userSpaceOnUse">
		<stop  offset="0" style="stop-color:#DFDFDF"/>
		<stop  offset="1" style="stop-color:#BFBFBF"/>
	</radialGradient>
	<path fill="url(#SVGID_2_)" d="M824,491h-70c-2.209,0-4-1.791-4-4V20c0-2.209,1.791-4,4-4h70V491z"/>
</g>
<radialGradient id="SVGID_3_" cx="-648.1416" cy="883.0654" r="1.001" gradientTransform="matrix(-2.2308 27.5317 27.5271 2.2304 -24964.834 16315.3096)" gradientUnits="userSpaceOnUse">
	<stop  offset="0" style="stop-color:#000000;stop-opacity:0.5"/>
	<stop  offset="1" style="stop-color:#C2C2C2;stop-opacity:0"/>
</radialGradient>
<circle fill="url(#SVGID_3_)" fill-opacity="0.6" cx="787" cy="439" r="29"/>
<radialGradient id="SVGID_4_" cx="-642.7046" cy="876.7285" r="0.9997" gradientTransform="matrix(0.003 19.5431 19.5431 -0.003 -16345.0547 12998.541)" gradientUnits="userSpaceOnUse">
	<stop  offset="0.375" style="stop-color:#9A3C9D"/>
	<stop  offset="0.474" style="stop-color:#963C99"/>
	<stop  offset="0.7188" style="stop-color:#863D88"/>
	<stop  offset="1" style="stop-color:#571D58"/>
</radialGradient>
<circle fill="url(#SVGID_4_)" stroke="#542155" cx="787" cy="438" r="16.5"/>
<path fill="#434343" d="M782.917,408.364c0,0.793-0.149,1.467-0.451,2.021c-0.298,0.559-0.706,0.981-1.222,1.275
	c-0.514,0.291-1.091,0.436-1.733,0.436c-0.646,0-1.226-0.146-1.739-0.438c-0.513-0.292-0.92-0.718-1.219-1.275
	c-0.298-0.556-0.447-1.229-0.447-2.02c0-0.793,0.149-1.468,0.447-2.025c0.299-0.556,0.705-0.979,1.219-1.271
	c0.516-0.293,1.096-0.44,1.739-0.44c0.645,0,1.22,0.147,1.733,0.44c0.516,0.291,0.924,0.715,1.222,1.271
	C782.768,406.896,782.917,407.571,782.917,408.364z M781.357,408.364c0-0.517-0.076-0.947-0.23-1.3
	c-0.15-0.354-0.366-0.62-0.643-0.806c-0.277-0.182-0.604-0.271-0.976-0.271c-0.371,0-0.694,0.091-0.973,0.271
	c-0.277,0.186-0.492,0.45-0.646,0.806c-0.149,0.353-0.228,0.783-0.228,1.3c0,0.513,0.076,0.946,0.228,1.299
	c0.153,0.353,0.368,0.621,0.646,0.803c0.274,0.185,0.602,0.273,0.973,0.273c0.372,0,0.696-0.091,0.976-0.273
	c0.274-0.182,0.492-0.45,0.643-0.803C781.281,409.311,781.357,408.877,781.357,408.364z M788.548,404.727h1.538v4.726
	c0,0.528-0.127,0.995-0.38,1.392c-0.251,0.398-0.603,0.708-1.055,0.934c-0.452,0.22-0.979,0.33-1.58,0.33
	c-0.604,0-1.132-0.11-1.584-0.33c-0.452-0.226-0.807-0.533-1.058-0.934c-0.251-0.396-0.376-0.859-0.376-1.392v-4.726h1.538v4.595
	c0,0.274,0.063,0.521,0.184,0.736c0.123,0.218,0.296,0.387,0.518,0.51c0.223,0.12,0.482,0.185,0.778,0.185
	c0.298,0,0.557-0.063,0.775-0.185c0.225-0.123,0.396-0.292,0.517-0.51c0.124-0.216,0.185-0.462,0.185-0.736V404.727L788.548,404.727
	z M791.074,405.995v-1.271h5.973v1.271h-2.227V412H793.3v-6.005H791.074z"/>
<radialGradient id="SVGID_5_" cx="-648.1411" cy="883.0654" r="1.0002" gradientTransform="matrix(-2.2308 27.5317 27.5271 2.2304 -24964.834 15942.3096)" gradientUnits="userSpaceOnUse">
	<stop  offset="0" style="stop-color:#000000;stop-opacity:0.5"/>
	<stop  offset="1" style="stop-color:#C2C2C2;stop-opacity:0"/>
</radialGradient>
<circle fill="url(#SVGID_5_)" fill-opacity="0.5" cx="787" cy="66" r="29"/>
<radialGradient id="SVGID_6_" cx="-642.7046" cy="876.7285" r="1" gradientTransform="matrix(0.003 19.5431 19.5431 -0.003 -16345.0547 12626.5254)" gradientUnits="userSpaceOnUse">
	<stop  offset="0.375" style="stop-color:#9A3C9D"/>
	<stop  offset="0.474" style="stop-color:#963C99"/>
	<stop  offset="0.7188" style="stop-color:#863D88"/>
	<stop  offset="1" style="stop-color:#571D58"/>
</radialGradient>
<circle fill="url(#SVGID_6_)" stroke="#542155" cx="787" cy="66" r="16.5"/>
<path fill="#434343" d="M783.672,31.728h1.897l2.002,4.886h0.086l2.003-4.886h1.896V39h-1.491v-4.734h-0.061l-1.882,4.698h-1.019
	l-1.882-4.716h-0.06V39h-1.492L783.672,31.728L783.672,31.728z"/>
<radialGradient id="SVGID_7_" cx="-662.7065" cy="884.8789" r="1" gradientTransform="matrix(1.454268e-014 237.5 37 -2.265597e-015 -32703.5 157646.25)" gradientUnits="userSpaceOnUse">
	<stop  offset="0" style="stop-color:#878787"/>
	<stop  offset="1" style="stop-color:#848484"/>
</radialGradient>
<rect y="16" fill="url(#SVGID_7_)" width="74" height="475"/>
<linearGradient id="SVGID_8_" gradientUnits="userSpaceOnUse" x1="-949" y1="214.5" x2="-753" y2="214.5" gradientTransform="matrix(1 0 0 -1 1002 468)">
	<stop  offset="0" style="stop-color:#424242;stop-opacity:0"/>
	<stop  offset="1" style="stop-color:#000000"/>
</linearGradient>
<path fill="url(#SVGID_8_)" d="M53,16h190c3.314,0,6,2.687,6,6v463c0,3.314-2.686,6-6,6H53V16z"/>
<radialGradient id="SVGID_9_" cx="-662.7065" cy="890.1211" r="1" gradientTransform="matrix(1.454268e-014 237.5 87 -5.327214e-015 -77279.5 157646.25)" gradientUnits="userSpaceOnUse">
	<stop  offset="0" style="stop-color:#DFDFDF"/>
	<stop  offset="1" style="stop-color:#BFBFBF"/>
</radialGradient>
<path fill="url(#SVGID_9_)" d="M74,16h168c3.314,0,6,2.687,6,6v463c0,3.314-2.686,6-6,6H74V16z"/>
<radialGradient id="SVGID_10_" cx="-652.4971" cy="885.8564" r="1.0003" gradientTransform="matrix(-3 37.5 37.0253 2.962 -34593.6172 22113.2227)" gradientUnits="userSpaceOnUse">
	<stop  offset="0" style="stop-color:#000000;stop-opacity:0.5"/>
	<stop  offset="1" style="stop-color:#D5D5D5;stop-opacity:0"/>
</radialGradient>
<ellipse fill="url(#SVGID_10_)" fill-opacity="0.5" cx="160" cy="266.5" rx="39" ry="39.5"/>
<radialGradient id="SVGID_11_" cx="-646.6792" cy="879.6543" r="0.9992" gradientTransform="matrix(0.0036 23.9027 23.5296 -0.0036 -20534.0879 15723.2285)" gradientUnits="userSpaceOnUse">
	<stop  offset="0.375" style="stop-color:#9A3C9D"/>
	<stop  offset="0.474" style="stop-color:#963C99"/>
	<stop  offset="0.7188" style="stop-color:#863D88"/>
	<stop  offset="1" style="stop-color:#571D58"/>
</radialGradient>
<path fill="url(#SVGID_11_)" stroke="#542155" d="M181.436,265.792c0,11.215-8.948,20.293-19.968,20.293
	c-11.021,0-19.968-9.078-19.968-20.293c0-11.214,8.947-20.292,19.968-20.292C172.488,245.5,181.436,254.578,181.436,265.792z"/>
<path fill="#434343" d="M122.865,229.727h1.896l2.003,4.887h0.085l2.003-4.887h1.896V237h-1.491v-4.734h-0.061l-1.882,4.698h-1.016
	l-1.882-4.715h-0.06V237h-1.491V229.727z M133.268,237h-1.647l2.51-7.273h1.982L138.62,237h-1.648l-1.821-5.611h-0.057L133.268,237z
	 M133.165,234.141h3.893v1.201h-3.893V234.141z M143.275,231.819c-0.029-0.287-0.151-0.509-0.366-0.668
	c-0.216-0.158-0.508-0.238-0.877-0.238c-0.251,0-0.463,0.036-0.636,0.107c-0.173,0.069-0.305,0.164-0.398,0.288
	c-0.09,0.123-0.135,0.262-0.135,0.419c-0.004,0.13,0.023,0.243,0.082,0.34c0.062,0.098,0.146,0.182,0.252,0.253
	c0.107,0.068,0.229,0.129,0.37,0.181c0.139,0.049,0.288,0.092,0.447,0.128l0.653,0.156c0.318,0.071,0.609,0.166,0.874,0.284
	c0.265,0.118,0.495,0.264,0.689,0.437c0.194,0.173,0.344,0.376,0.451,0.61c0.109,0.235,0.164,0.504,0.167,0.807
	c-0.003,0.445-0.116,0.831-0.341,1.157c-0.223,0.325-0.545,0.577-0.966,0.757c-0.419,0.177-0.924,0.266-1.516,0.266
	c-0.587,0-1.099-0.09-1.534-0.27c-0.434-0.18-0.772-0.446-1.016-0.799c-0.242-0.355-0.368-0.794-0.38-1.317h1.488
	c0.016,0.243,0.086,0.447,0.209,0.61c0.126,0.161,0.293,0.283,0.501,0.366c0.211,0.081,0.449,0.121,0.714,0.121
	c0.26,0,0.486-0.038,0.678-0.114c0.194-0.075,0.345-0.181,0.451-0.316c0.107-0.135,0.16-0.29,0.16-0.465
	c0-0.163-0.049-0.301-0.146-0.412c-0.094-0.111-0.234-0.206-0.419-0.284c-0.182-0.078-0.406-0.149-0.671-0.213l-0.792-0.199
	c-0.613-0.149-1.097-0.382-1.452-0.699c-0.355-0.318-0.532-0.745-0.529-1.282c-0.003-0.441,0.115-0.826,0.351-1.155
	c0.239-0.329,0.567-0.586,0.984-0.77c0.417-0.188,0.89-0.277,1.42-0.277c0.54,0,1.011,0.092,1.414,0.277
	c0.405,0.184,0.719,0.441,0.944,0.77c0.225,0.329,0.341,0.711,0.348,1.144H143.275L143.275,231.819z M145.882,237v-7.273h1.538
	v3.207h0.096l2.617-3.207h1.843l-2.699,3.257l2.731,4.016h-1.84l-1.992-2.99l-0.756,0.923V237H145.882z M152.777,237v-7.273h4.9
	v1.268h-3.363v1.733h3.111v1.268h-3.111v1.736h3.377V237H152.777z M161.478,237H158.9v-7.273h2.599c0.732,0,1.361,0.146,1.889,0.437
	c0.528,0.289,0.934,0.704,1.218,1.247c0.287,0.542,0.43,1.19,0.43,1.946c0,0.757-0.143,1.408-0.43,1.953
	c-0.284,0.544-0.692,0.962-1.225,1.253C162.851,236.854,162.216,237,161.478,237z M160.437,235.683h0.977
	c0.454,0,0.837-0.081,1.147-0.242c0.312-0.163,0.547-0.415,0.703-0.756c0.159-0.344,0.238-0.786,0.238-1.328
	c0-0.538-0.079-0.977-0.238-1.318c-0.156-0.341-0.389-0.592-0.7-0.753c-0.31-0.161-0.692-0.241-1.147-0.241h-0.98V235.683z
	 M168.49,237v-7.273h4.815v1.268h-3.278v1.733h2.958v1.268h-2.958V237H168.49z M174.339,237v-7.273h2.869
	c0.55,0,1.018,0.099,1.407,0.295c0.39,0.194,0.687,0.47,0.891,0.827c0.206,0.356,0.309,0.773,0.309,1.254
	c0,0.483-0.104,0.898-0.313,1.246c-0.208,0.346-0.51,0.611-0.905,0.796c-0.393,0.185-0.869,0.277-1.428,0.277h-1.921v-1.236h1.673
	c0.293,0,0.537-0.04,0.731-0.121c0.194-0.08,0.339-0.201,0.434-0.362c0.097-0.161,0.145-0.361,0.145-0.6
	c0-0.241-0.048-0.445-0.145-0.611c-0.095-0.166-0.241-0.291-0.437-0.376c-0.194-0.088-0.439-0.132-0.735-0.132h-1.037V237H174.339z
	 M178.267,233.69l1.807,3.31h-1.697l-1.769-3.31H178.267z M180.902,237v-7.273h4.9v1.268h-3.363v1.733h3.111v1.268h-3.111v1.736
	h3.377V237H180.902z M189.77,234.472h1.307l0.656,0.845l0.647,0.753l1.218,1.527h-1.435l-0.838-1.03l-0.43-0.611L189.77,234.472z
	 M193.708,233.364c0,0.793-0.15,1.467-0.451,2.024c-0.298,0.556-0.706,0.981-1.222,1.275c-0.513,0.291-1.091,0.436-1.733,0.436
	c-0.646,0-1.226-0.146-1.74-0.44c-0.513-0.293-0.919-0.718-1.218-1.275c-0.298-0.556-0.447-1.23-0.447-2.02
	c0-0.793,0.149-1.468,0.447-2.025c0.299-0.556,0.705-0.98,1.218-1.271c0.514-0.293,1.094-0.44,1.74-0.44
	c0.642,0,1.22,0.147,1.733,0.44c0.516,0.291,0.924,0.715,1.222,1.271C193.558,231.896,193.708,232.571,193.708,233.364z
	 M192.149,233.364c0-0.514-0.077-0.947-0.231-1.3c-0.151-0.353-0.366-0.62-0.643-0.803c-0.277-0.182-0.601-0.271-0.973-0.271
	c-0.371,0-0.696,0.091-0.973,0.271c-0.277,0.183-0.492,0.45-0.646,0.803c-0.151,0.353-0.227,0.786-0.227,1.3
	c0,0.513,0.076,0.947,0.227,1.299c0.154,0.353,0.369,0.621,0.646,0.803c0.277,0.182,0.602,0.273,0.973,0.273
	c0.372,0,0.696-0.091,0.973-0.273c0.277-0.182,0.492-0.45,0.643-0.803C192.072,234.311,192.149,233.877,192.149,233.364z
	 M198.792,231.819c-0.028-0.287-0.15-0.509-0.366-0.668c-0.215-0.158-0.507-0.238-0.877-0.238c-0.251,0-0.462,0.036-0.635,0.107
	c-0.173,0.069-0.306,0.164-0.398,0.288c-0.09,0.123-0.135,0.262-0.135,0.419c-0.005,0.13,0.023,0.243,0.082,0.34
	c0.061,0.098,0.145,0.182,0.252,0.253c0.106,0.068,0.229,0.129,0.369,0.181c0.14,0.049,0.289,0.092,0.448,0.128l0.653,0.156
	c0.317,0.071,0.608,0.166,0.874,0.284c0.265,0.118,0.494,0.264,0.689,0.437c0.194,0.173,0.344,0.376,0.451,0.61
	c0.108,0.235,0.164,0.504,0.166,0.807c-0.002,0.445-0.116,0.831-0.34,1.157c-0.223,0.325-0.545,0.577-0.966,0.757
	c-0.419,0.177-0.925,0.266-1.517,0.266c-0.587,0-1.098-0.09-1.534-0.27c-0.433-0.18-0.772-0.446-1.015-0.799
	c-0.242-0.355-0.369-0.794-0.38-1.317h1.487c0.017,0.243,0.087,0.447,0.21,0.61c0.125,0.161,0.292,0.283,0.501,0.366
	c0.21,0.081,0.448,0.121,0.714,0.121c0.26,0,0.486-0.038,0.678-0.114c0.194-0.075,0.344-0.181,0.451-0.316
	c0.104-0.135,0.16-0.29,0.16-0.465c0-0.163-0.049-0.301-0.146-0.412c-0.095-0.111-0.234-0.206-0.419-0.284
	c-0.182-0.078-0.406-0.149-0.671-0.213l-0.792-0.199c-0.613-0.149-1.097-0.382-1.453-0.699c-0.355-0.318-0.531-0.745-0.529-1.282
	c-0.002-0.441,0.115-0.826,0.352-1.155c0.239-0.329,0.567-0.586,0.984-0.77c0.416-0.188,0.89-0.277,1.42-0.277
	c0.54,0,1.011,0.092,1.413,0.277c0.405,0.184,0.72,0.441,0.945,0.77c0.225,0.329,0.341,0.711,0.348,1.144H198.792L198.792,231.819z"
	/>
<path fill="#7C7C7C" d="M195.29,280v-7.273h2.869c0.549,0,1.018,0.102,1.406,0.295c0.391,0.194,0.688,0.473,0.892,0.828
	c0.206,0.355,0.309,0.772,0.309,1.254c0,0.482-0.105,0.897-0.313,1.246c-0.208,0.348-0.51,0.61-0.905,0.795
	c-0.393,0.188-0.869,0.277-1.428,0.277h-1.921v-1.236h1.672c0.294,0,0.538-0.039,0.732-0.121c0.194-0.08,0.338-0.198,0.433-0.359
	c0.097-0.161,0.146-0.361,0.146-0.602s-0.049-0.443-0.146-0.609c-0.095-0.166-0.24-0.291-0.437-0.376
	c-0.194-0.089-0.439-0.134-0.735-0.134h-1.037V280H195.29z M199.217,276.689l1.808,3.311h-1.698l-1.768-3.311H199.217z M201.852,280
	v-7.273h4.901v1.271h-3.363v1.731h3.111v1.27h-3.111v1.734h3.377V280H201.852z M209.289,272.727l1.758,5.526h0.067l1.762-5.526
	h1.704L212.073,280h-1.981l-2.511-7.273H209.289z M215.456,280v-7.273h4.9v1.271h-3.363v1.731h3.111v1.27h-3.111v1.734h3.378V280
	H215.456z M222.832,280h-1.647l2.51-7.273h1.982l2.507,7.273h-1.648l-1.822-5.611h-0.056L222.832,280z M222.729,277.141h3.892v1.201
	h-3.892V277.141z M229.059,280v-7.273h1.538v6.006h3.118V280H229.059z"/>
<path fill="#7C7C7C" d="M193.29,363v-7.273h2.869c0.549,0,1.018,0.102,1.406,0.295c0.391,0.194,0.688,0.473,0.892,0.828
	c0.206,0.355,0.309,0.772,0.309,1.254c0,0.482-0.105,0.897-0.313,1.246c-0.208,0.348-0.51,0.61-0.905,0.795
	c-0.393,0.188-0.869,0.277-1.428,0.277h-1.921v-1.236h1.672c0.294,0,0.538-0.039,0.732-0.121c0.194-0.08,0.338-0.198,0.433-0.359
	c0.097-0.161,0.146-0.361,0.146-0.602s-0.049-0.443-0.146-0.609c-0.095-0.166-0.24-0.291-0.437-0.376
	c-0.194-0.089-0.439-0.134-0.735-0.134h-1.037V363H193.29z M197.217,359.689l1.808,3.311h-1.698l-1.768-3.311H197.217z M199.852,363
	v-7.273h4.901v1.271h-3.363v1.731h3.111v1.27h-3.111v1.734h3.377V363H199.852z M207.289,355.727l1.758,5.526h0.067l1.762-5.526
	h1.704L210.073,363h-1.981l-2.511-7.273H207.289z M213.456,363v-7.273h4.9v1.271h-3.363v1.731h3.111v1.27h-3.111v1.734h3.378V363
	H213.456z M220.832,363h-1.647l2.51-7.273h1.982l2.507,7.273h-1.648l-1.822-5.611h-0.056L220.832,363z M220.729,360.141h3.892v1.201
	h-3.892V360.141z M227.059,363v-7.273h1.538v6.006h3.118V363H227.059z"/>
<path fill="#7C7C7C" d="M97.305,280v-7.273h2.912c0.535,0,0.982,0.08,1.339,0.238c0.358,0.159,0.626,0.379,0.806,0.661
	c0.18,0.279,0.27,0.601,0.27,0.966c0,0.284-0.057,0.533-0.17,0.749c-0.114,0.214-0.27,0.388-0.469,0.525
	c-0.197,0.135-0.422,0.231-0.675,0.288v0.07c0.277,0.012,0.536,0.09,0.778,0.233c0.244,0.146,0.441,0.349,0.593,0.604
	c0.151,0.261,0.227,0.566,0.227,0.926c0,0.386-0.096,0.729-0.287,1.031c-0.19,0.303-0.47,0.539-0.842,0.713
	c-0.372,0.178-0.83,0.266-1.374,0.266L97.305,280L97.305,280z M98.843,278.743h1.254c0.428,0,0.741-0.082,0.937-0.245
	c0.197-0.166,0.295-0.387,0.295-0.661c0-0.201-0.049-0.378-0.146-0.532c-0.097-0.154-0.235-0.272-0.415-0.363
	c-0.178-0.086-0.39-0.131-0.636-0.131h-1.289V278.743L98.843,278.743z M98.843,275.771h1.14c0.211,0,0.398-0.037,0.561-0.11
	c0.166-0.076,0.296-0.183,0.391-0.32c0.097-0.137,0.145-0.302,0.145-0.493c0-0.263-0.093-0.475-0.28-0.636
	c-0.185-0.161-0.448-0.242-0.789-0.242h-1.168V275.771L98.843,275.771z M108.409,272.727h1.538v4.726
	c0,0.528-0.127,0.993-0.38,1.392c-0.251,0.398-0.603,0.708-1.055,0.934c-0.452,0.22-0.979,0.33-1.58,0.33
	c-0.604,0-1.132-0.11-1.584-0.33c-0.452-0.226-0.804-0.533-1.055-0.934c-0.251-0.396-0.376-0.859-0.376-1.392v-4.726h1.537v4.592
	c0,0.277,0.061,0.523,0.181,0.74c0.124,0.215,0.296,0.383,0.519,0.506c0.222,0.123,0.482,0.188,0.778,0.188
	c0.298,0,0.557-0.063,0.777-0.188c0.223-0.123,0.394-0.291,0.515-0.506c0.123-0.217,0.185-0.463,0.185-0.74V272.727z M111.212,280
	v-7.273h2.869c0.549,0,1.018,0.102,1.406,0.295c0.391,0.194,0.688,0.473,0.892,0.828c0.205,0.355,0.308,0.772,0.308,1.254
	c0,0.482-0.104,0.897-0.312,1.246c-0.208,0.348-0.51,0.61-0.906,0.795c-0.393,0.188-0.868,0.277-1.427,0.277h-1.921v-1.236h1.672
	c0.294,0,0.538-0.039,0.732-0.121c0.194-0.08,0.338-0.198,0.433-0.359c0.097-0.161,0.146-0.361,0.146-0.602
	s-0.049-0.443-0.146-0.609c-0.095-0.166-0.24-0.291-0.437-0.376c-0.194-0.089-0.439-0.134-0.735-0.134h-1.037V280H111.212z
	 M115.139,276.689l1.808,3.311h-1.698l-1.768-3.311H115.139z M117.045,272.727h1.723l1.658,3.133h0.071l1.658-3.133h1.723
	l-2.653,4.702V280h-1.527v-2.571L117.045,272.727z"/>
<path fill="#7C7C7C" d="M97.305,363v-7.273h2.912c0.535,0,0.982,0.08,1.339,0.238c0.358,0.159,0.626,0.379,0.806,0.661
	c0.18,0.279,0.27,0.601,0.27,0.966c0,0.284-0.057,0.533-0.17,0.749c-0.114,0.214-0.27,0.388-0.469,0.525
	c-0.197,0.135-0.422,0.231-0.675,0.288v0.07c0.277,0.012,0.536,0.09,0.778,0.233c0.244,0.146,0.441,0.349,0.593,0.604
	c0.151,0.261,0.227,0.566,0.227,0.926c0,0.386-0.096,0.729-0.287,1.031c-0.19,0.303-0.47,0.539-0.842,0.713
	c-0.372,0.178-0.83,0.266-1.374,0.266L97.305,363L97.305,363z M98.843,361.743h1.254c0.428,0,0.741-0.082,0.937-0.245
	c0.197-0.166,0.295-0.387,0.295-0.661c0-0.201-0.049-0.378-0.146-0.532c-0.097-0.154-0.235-0.272-0.415-0.363
	c-0.178-0.086-0.39-0.131-0.636-0.131h-1.289V361.743L98.843,361.743z M98.843,358.771h1.14c0.211,0,0.398-0.037,0.561-0.11
	c0.166-0.076,0.296-0.183,0.391-0.32c0.097-0.137,0.145-0.302,0.145-0.493c0-0.263-0.093-0.475-0.28-0.636
	c-0.185-0.161-0.448-0.242-0.789-0.242h-1.168V358.771L98.843,358.771z M108.409,355.727h1.538v4.726
	c0,0.528-0.127,0.993-0.38,1.392c-0.251,0.398-0.603,0.708-1.055,0.934c-0.452,0.22-0.979,0.33-1.58,0.33
	c-0.604,0-1.132-0.11-1.584-0.33c-0.452-0.226-0.804-0.533-1.055-0.934c-0.251-0.396-0.376-0.859-0.376-1.392v-4.726h1.537v4.592
	c0,0.277,0.061,0.523,0.181,0.74c0.124,0.215,0.296,0.383,0.519,0.506c0.222,0.123,0.482,0.188,0.778,0.188
	c0.298,0,0.557-0.063,0.777-0.188c0.223-0.123,0.394-0.291,0.515-0.506c0.123-0.217,0.185-0.463,0.185-0.74V355.727z M111.212,363
	v-7.273h2.869c0.549,0,1.018,0.102,1.406,0.295c0.391,0.194,0.688,0.473,0.892,0.828c0.205,0.355,0.308,0.772,0.308,1.254
	c0,0.482-0.104,0.897-0.312,1.246c-0.208,0.348-0.51,0.61-0.906,0.795c-0.393,0.188-0.868,0.277-1.427,0.277h-1.921v-1.236h1.672
	c0.294,0,0.538-0.039,0.732-0.121c0.194-0.08,0.338-0.198,0.433-0.359c0.097-0.161,0.146-0.361,0.146-0.602
	s-0.049-0.443-0.146-0.609c-0.095-0.166-0.24-0.291-0.437-0.376c-0.194-0.089-0.439-0.134-0.735-0.134h-1.037V363H111.212z
	 M115.139,359.689l1.808,3.311h-1.698l-1.768-3.311H115.139z M117.045,355.727h1.723l1.658,3.133h0.071l1.658-3.133h1.723
	l-2.653,4.702V363h-1.527v-2.571L117.045,355.727z"/>
<path fill="#434343" d="M133.257,313.273h-1.555c-0.029-0.201-0.087-0.381-0.174-0.537c-0.088-0.157-0.2-0.293-0.338-0.404
	c-0.137-0.111-0.296-0.196-0.476-0.255c-0.177-0.06-0.37-0.089-0.578-0.089c-0.377,0-0.705,0.093-0.984,0.279
	c-0.279,0.186-0.496,0.455-0.65,0.811c-0.154,0.354-0.231,0.781-0.231,1.286c0,0.518,0.077,0.954,0.231,1.306
	c0.156,0.354,0.374,0.62,0.653,0.799c0.28,0.18,0.603,0.271,0.97,0.271c0.206,0,0.396-0.027,0.572-0.081
	c0.177-0.056,0.335-0.136,0.472-0.238c0.137-0.106,0.251-0.235,0.341-0.387c0.092-0.152,0.156-0.325,0.192-0.521l1.555,0.008
	c-0.04,0.334-0.141,0.656-0.302,0.966c-0.158,0.309-0.373,0.585-0.643,0.827c-0.267,0.242-0.587,0.435-0.958,0.576
	c-0.37,0.141-0.788,0.209-1.254,0.209c-0.649,0-1.229-0.146-1.74-0.439c-0.509-0.293-0.911-0.719-1.207-1.275
	c-0.294-0.556-0.441-1.229-0.441-2.02c0-0.793,0.149-1.469,0.448-2.025c0.298-0.556,0.703-0.979,1.214-1.271
	c0.512-0.293,1.087-0.44,1.726-0.44c0.421,0,0.812,0.061,1.172,0.178c0.362,0.119,0.683,0.293,0.962,0.521
	c0.28,0.226,0.507,0.501,0.682,0.826C133.094,312.479,133.207,312.852,133.257,313.273z M134.36,318v-7.273h1.537v6.006h3.118V318
	H134.36z M140.033,318v-7.273h4.901v1.271h-3.363v1.731h3.111v1.27h-3.111v1.734h3.377V318H140.033z M147.41,318h-1.648l2.511-7.273
	h1.982l2.507,7.273h-1.648l-1.822-5.611h-0.057L147.41,318z M147.307,315.141h3.892v1.201h-3.892V315.141z M153.637,318v-7.273
	h2.869c0.55,0,1.018,0.102,1.407,0.295c0.39,0.194,0.687,0.473,0.891,0.828c0.206,0.355,0.309,0.772,0.309,1.254
	c0,0.482-0.104,0.897-0.313,1.246c-0.208,0.348-0.51,0.61-0.905,0.795c-0.393,0.188-0.869,0.277-1.428,0.277h-1.921v-1.236h1.673
	c0.293,0,0.537-0.039,0.731-0.121c0.194-0.08,0.339-0.198,0.433-0.359c0.097-0.161,0.146-0.361,0.146-0.602
	s-0.049-0.443-0.146-0.609c-0.094-0.166-0.24-0.291-0.436-0.376c-0.194-0.089-0.44-0.134-0.735-0.134h-1.037V318H153.637z
	 M157.565,314.689l1.807,3.311h-1.697l-1.769-3.311H157.565z M162.514,318v-7.273h4.815v1.271h-3.277v1.731h2.958v1.27h-2.958V318
	H162.514z M168.364,318v-7.273h2.869c0.549,0,1.018,0.102,1.406,0.295c0.391,0.194,0.688,0.473,0.891,0.828
	c0.206,0.355,0.309,0.772,0.309,1.254c0,0.482-0.104,0.897-0.312,1.246c-0.208,0.348-0.51,0.61-0.906,0.795
	c-0.393,0.188-0.868,0.277-1.427,0.277h-1.921v-1.236h1.672c0.294,0,0.538-0.039,0.732-0.121c0.194-0.08,0.338-0.198,0.433-0.359
	c0.097-0.161,0.146-0.361,0.146-0.602s-0.049-0.443-0.146-0.609c-0.095-0.166-0.24-0.291-0.437-0.376
	c-0.194-0.089-0.439-0.134-0.735-0.134h-1.037V318H168.364z M172.291,314.689l1.808,3.311h-1.698l-1.768-3.311H172.291z
	 M174.926,318v-7.273h4.901v1.271h-3.363v1.731h3.11v1.27h-3.11v1.734h3.377V318H174.926z M183.794,315.473h1.307l0.657,0.844
	l0.646,0.754l1.218,1.527h-1.434l-0.838-1.031l-0.43-0.608L183.794,315.473z M187.732,314.364c0,0.793-0.15,1.467-0.451,2.024
	c-0.298,0.555-0.705,0.979-1.221,1.272c-0.514,0.291-1.092,0.438-1.733,0.438c-0.647,0-1.227-0.146-1.74-0.44
	c-0.514-0.293-0.92-0.718-1.218-1.275c-0.299-0.556-0.448-1.229-0.448-2.02c0-0.793,0.149-1.468,0.448-2.025
	c0.298-0.556,0.704-0.979,1.218-1.271c0.513-0.293,1.093-0.44,1.74-0.44c0.641,0,1.219,0.147,1.733,0.44
	c0.516,0.291,0.923,0.715,1.221,1.271C187.582,312.896,187.732,313.571,187.732,314.364z M186.173,314.364
	c0-0.515-0.077-0.947-0.23-1.3c-0.152-0.354-0.366-0.621-0.643-0.806c-0.277-0.182-0.602-0.271-0.973-0.271
	c-0.372,0-0.696,0.091-0.973,0.271c-0.277,0.185-0.493,0.45-0.647,0.806c-0.151,0.353-0.227,0.785-0.227,1.3
	c0,0.513,0.076,0.946,0.227,1.299c0.154,0.353,0.37,0.621,0.647,0.803c0.277,0.183,0.601,0.273,0.973,0.273
	c0.371,0,0.696-0.091,0.973-0.273c0.277-0.182,0.491-0.45,0.643-0.803C186.096,315.311,186.173,314.877,186.173,314.364z
	 M192.817,312.818c-0.029-0.286-0.151-0.508-0.366-0.668c-0.216-0.157-0.508-0.237-0.877-0.237c-0.251,0-0.463,0.036-0.636,0.106
	c-0.173,0.067-0.305,0.164-0.398,0.289c-0.09,0.123-0.135,0.262-0.135,0.418c-0.004,0.131,0.021,0.241,0.082,0.34
	c0.062,0.099,0.146,0.183,0.252,0.254c0.107,0.066,0.229,0.129,0.37,0.181c0.139,0.049,0.288,0.092,0.447,0.128l0.653,0.156
	c0.318,0.07,0.609,0.166,0.874,0.283c0.265,0.119,0.495,0.265,0.689,0.438s0.344,0.376,0.451,0.61
	c0.109,0.235,0.164,0.504,0.167,0.807c-0.003,0.445-0.116,0.831-0.341,1.157c-0.223,0.324-0.545,0.577-0.966,0.757
	c-0.419,0.177-0.924,0.267-1.516,0.267c-0.587,0-1.099-0.09-1.534-0.271c-0.434-0.181-0.772-0.446-1.016-0.799
	c-0.242-0.355-0.368-0.794-0.38-1.317h1.488c0.016,0.243,0.086,0.447,0.209,0.61c0.126,0.161,0.293,0.282,0.501,0.366
	c0.211,0.08,0.449,0.121,0.714,0.121c0.26,0,0.486-0.039,0.678-0.114c0.194-0.075,0.345-0.181,0.451-0.316
	c0.107-0.135,0.16-0.29,0.16-0.465c0-0.163-0.049-0.301-0.146-0.412c-0.094-0.11-0.234-0.206-0.419-0.284
	c-0.182-0.078-0.406-0.146-0.671-0.213l-0.792-0.199c-0.613-0.146-1.097-0.382-1.452-0.699c-0.355-0.315-0.532-0.742-0.529-1.279
	c-0.003-0.441,0.115-0.826,0.351-1.155c0.239-0.329,0.567-0.586,0.984-0.771c0.417-0.187,0.89-0.276,1.42-0.276
	c0.54,0,1.011,0.092,1.414,0.276c0.405,0.185,0.719,0.439,0.944,0.771s0.341,0.711,0.348,1.146h-1.473V312.818z"/>
<radialGradient id="SVGID_12_" cx="-652.4971" cy="885.8574" r="0.9995" gradientTransform="matrix(-3 37.5 37.0253 2.962 -34592.6172 22194.2227)" gradientUnits="userSpaceOnUse">
	<stop  offset="0" style="stop-color:#000000;stop-opacity:0.5"/>
	<stop  offset="1" style="stop-color:#D5D5D5;stop-opacity:0"/>
</radialGradient>
<ellipse fill="url(#SVGID_12_)" fill-opacity="0.5" cx="161" cy="347.5" rx="39" ry="39.5"/>
<radialGradient id="SVGID_13_" cx="-646.6792" cy="879.6533" r="0.9992" gradientTransform="matrix(0.0036 23.9027 23.5296 -0.0036 -20534.0879 15804.2285)" gradientUnits="userSpaceOnUse">
	<stop  offset="0.375" style="stop-color:#9A3C9D"/>
	<stop  offset="0.474" style="stop-color:#963C99"/>
	<stop  offset="0.7188" style="stop-color:#863D88"/>
	<stop  offset="1" style="stop-color:#571D58"/>
</radialGradient>
<path fill="url(#SVGID_13_)" stroke="#542155" d="M181.436,346.792c0,11.215-8.948,20.293-19.968,20.293
	c-11.021,0-19.968-9.078-19.968-20.293c0-11.214,8.947-20.292,19.968-20.292C172.488,326.5,181.436,335.578,181.436,346.792z"/>
<path fill="#434343" d="M143.932,440.273h-1.556c-0.028-0.201-0.086-0.383-0.174-0.536c-0.087-0.158-0.2-0.293-0.337-0.405
	c-0.137-0.111-0.296-0.196-0.476-0.255c-0.177-0.062-0.37-0.089-0.579-0.089c-0.376,0-0.704,0.093-0.983,0.277
	c-0.28,0.188-0.496,0.455-0.65,0.813c-0.154,0.353-0.231,0.781-0.231,1.286c0,0.518,0.077,0.954,0.231,1.306
	c0.156,0.354,0.374,0.62,0.653,0.799c0.28,0.183,0.603,0.271,0.97,0.271c0.206,0,0.396-0.027,0.571-0.081
	c0.178-0.056,0.335-0.134,0.473-0.238c0.137-0.105,0.251-0.235,0.341-0.387c0.092-0.152,0.156-0.325,0.191-0.521l1.556,0.01
	c-0.04,0.334-0.141,0.653-0.302,0.966c-0.159,0.308-0.373,0.584-0.643,0.828c-0.267,0.238-0.587,0.433-0.959,0.572
	c-0.369,0.143-0.787,0.209-1.253,0.209c-0.649,0-1.229-0.146-1.74-0.438c-0.509-0.293-0.912-0.718-1.208-1.275
	c-0.293-0.556-0.44-1.229-0.44-2.02c0-0.793,0.149-1.468,0.448-2.025c0.298-0.556,0.703-0.979,1.214-1.271
	c0.511-0.293,1.087-0.44,1.726-0.44c0.421,0,0.812,0.062,1.172,0.178c0.362,0.118,0.683,0.291,0.962,0.521
	c0.279,0.225,0.507,0.501,0.682,0.827C143.768,439.479,143.882,439.852,143.932,440.273z M145.034,445v-7.273h1.538v6.008h3.118V445
	H145.034z M150.708,445v-7.273h4.901v1.271h-3.363v1.731h3.111v1.27h-3.111v1.736h3.377V445H150.708z M158.085,445h-1.648
	l2.511-7.273h1.981l2.507,7.273h-1.647l-1.822-5.611h-0.057L158.085,445z M157.982,442.141h3.892v1.201h-3.892V442.141z
	 M170.395,437.727V445h-1.328l-3.164-4.577h-0.054V445h-1.537v-7.273h1.349l3.139,4.574h0.064v-4.574H170.395z M178.472,437.727
	h1.538v4.726c0,0.528-0.127,0.995-0.38,1.392c-0.251,0.398-0.603,0.708-1.055,0.934c-0.452,0.22-0.979,0.33-1.58,0.33
	c-0.604,0-1.132-0.11-1.584-0.33c-0.452-0.226-0.804-0.533-1.055-0.934c-0.251-0.396-0.376-0.859-0.376-1.392v-4.726h1.537v4.595
	c0,0.274,0.061,0.521,0.182,0.736c0.123,0.218,0.295,0.387,0.518,0.51c0.223,0.12,0.482,0.185,0.778,0.185
	c0.298,0,0.557-0.063,0.777-0.185c0.223-0.123,0.395-0.292,0.515-0.51c0.123-0.216,0.185-0.462,0.185-0.736V437.727z M181.275,445
	v-7.273h2.869c0.552,0,1.022,0.106,1.41,0.316c0.388,0.209,0.684,0.499,0.888,0.87c0.206,0.37,0.309,0.796,0.309,1.279
	c0,0.48-0.105,0.906-0.313,1.275s-0.51,0.657-0.906,0.863c-0.392,0.206-0.868,0.309-1.427,0.309h-1.829v-1.229h1.58
	c0.296,0,0.54-0.051,0.732-0.153c0.194-0.104,0.338-0.247,0.433-0.43c0.097-0.187,0.146-0.396,0.146-0.635
	c0-0.242-0.049-0.452-0.146-0.635c-0.095-0.183-0.239-0.32-0.433-0.423c-0.194-0.102-0.44-0.15-0.739-0.15h-1.037V445H181.275z"/>
<path fill="#434343" d="M131.126,396.819c-0.028-0.287-0.15-0.512-0.366-0.668c-0.215-0.158-0.507-0.238-0.877-0.238
	c-0.251,0-0.462,0.036-0.635,0.104c-0.173,0.069-0.306,0.164-0.398,0.288c-0.09,0.123-0.135,0.265-0.135,0.419
	c-0.005,0.133,0.023,0.243,0.082,0.343c0.061,0.098,0.145,0.182,0.252,0.253c0.106,0.065,0.229,0.129,0.369,0.181
	c0.14,0.049,0.289,0.092,0.448,0.128l0.653,0.156c0.317,0.07,0.608,0.166,0.874,0.284c0.265,0.118,0.494,0.264,0.688,0.437
	c0.195,0.173,0.345,0.376,0.451,0.61c0.109,0.232,0.165,0.504,0.167,0.807c-0.002,0.445-0.116,0.831-0.341,1.157
	c-0.222,0.325-0.544,0.577-0.965,0.757c-0.419,0.177-0.925,0.267-1.517,0.267c-0.587,0-1.098-0.091-1.534-0.271
	c-0.433-0.18-0.772-0.446-1.015-0.799c-0.242-0.355-0.369-0.794-0.38-1.317h1.487c0.017,0.243,0.087,0.447,0.21,0.61
	c0.125,0.161,0.292,0.283,0.501,0.366c0.21,0.08,0.448,0.121,0.713,0.121c0.261,0,0.487-0.038,0.679-0.114
	c0.194-0.075,0.344-0.183,0.451-0.316c0.106-0.135,0.16-0.29,0.16-0.465c0-0.163-0.049-0.301-0.146-0.412
	c-0.095-0.11-0.234-0.206-0.419-0.284c-0.182-0.078-0.406-0.146-0.671-0.213l-0.792-0.199c-0.613-0.146-1.097-0.382-1.453-0.696
	c-0.355-0.318-0.531-0.745-0.529-1.282c-0.002-0.441,0.115-0.826,0.352-1.155c0.239-0.329,0.567-0.586,0.984-0.77
	c0.416-0.188,0.89-0.277,1.42-0.277c0.54,0,1.011,0.093,1.413,0.277c0.405,0.184,0.72,0.438,0.945,0.77s0.341,0.711,0.348,1.146
	h-1.474V396.819L131.126,396.819z M133.457,395.995v-1.269h5.973v1.269h-2.227V402h-1.52v-6.005H133.457z M140.413,402v-7.273h4.901
	v1.271h-3.363v1.731h3.111v1.27h-3.111v1.736h3.377V402H140.413z M146.536,402v-7.273h2.87c0.549,0,1.018,0.102,1.406,0.295
	c0.391,0.194,0.688,0.473,0.891,0.828c0.206,0.355,0.309,0.772,0.309,1.254c0,0.482-0.104,0.897-0.312,1.245
	c-0.209,0.349-0.51,0.611-0.906,0.796c-0.393,0.188-0.869,0.277-1.427,0.277h-1.922v-1.236h1.673c0.294,0,0.537-0.039,0.732-0.118
	c0.194-0.08,0.338-0.201,0.433-0.362c0.097-0.161,0.145-0.361,0.145-0.602c0-0.239-0.048-0.443-0.145-0.609
	c-0.095-0.166-0.24-0.291-0.437-0.376c-0.194-0.088-0.439-0.134-0.735-0.134h-1.037V402H146.536z M150.464,398.69l1.807,3.31h-1.697
	l-1.768-3.31H150.464z M153.099,402v-7.273h4.9v1.271h-3.362v1.731h3.11v1.27h-3.11v1.736h3.377V402H153.099z M165.905,398.364
	c0,0.793-0.15,1.467-0.451,2.021c-0.298,0.559-0.705,0.981-1.221,1.275c-0.514,0.291-1.092,0.436-1.733,0.436
	c-0.647,0-1.227-0.146-1.74-0.438c-0.514-0.293-0.92-0.718-1.218-1.275c-0.299-0.556-0.448-1.229-0.448-2.02
	c0-0.793,0.149-1.468,0.448-2.025c0.298-0.556,0.704-0.979,1.218-1.271c0.513-0.293,1.093-0.44,1.74-0.44
	c0.641,0,1.219,0.147,1.733,0.44c0.516,0.291,0.923,0.715,1.221,1.271C165.755,396.896,165.905,397.571,165.905,398.364z
	 M164.346,398.364c0-0.517-0.077-0.947-0.231-1.3c-0.151-0.354-0.365-0.62-0.642-0.806c-0.277-0.182-0.602-0.271-0.973-0.271
	c-0.372,0-0.696,0.091-0.973,0.271c-0.277,0.186-0.493,0.45-0.647,0.806c-0.151,0.353-0.227,0.783-0.227,1.3
	c0,0.513,0.076,0.946,0.227,1.299c0.154,0.353,0.37,0.621,0.647,0.803c0.277,0.185,0.601,0.273,0.973,0.273
	c0.371,0,0.696-0.091,0.973-0.273c0.277-0.182,0.491-0.45,0.642-0.803C164.269,399.311,164.346,398.877,164.346,398.364z
	 M169.359,402v-7.273h1.537v6.008h3.118V402H169.359z M176.57,394.727V402h-1.538v-7.273H176.57z M183.918,394.727V402h-1.328
	l-3.164-4.577h-0.053V402h-1.538v-7.273h1.35l3.139,4.574h0.064v-4.574H183.918z M185.189,402v-7.273h1.537v3.207h0.096l2.617-3.207
	h1.843l-2.698,3.26l2.73,4.016h-1.839l-1.992-2.99l-0.757,0.923V402H185.189z"/>
<radialGradient id="SVGID_14_" cx="-656.5376" cy="887.6328" r="1" gradientTransform="matrix(3.275930e-015 53.5 53 -3.245314e-015 -46883.5 35281.25)" gradientUnits="userSpaceOnUse">
	<stop  offset="0" style="stop-color:#000000;stop-opacity:0.5"/>
	<stop  offset="1" style="stop-color:#D5D5D5;stop-opacity:0"/>
</radialGradient>
<ellipse fill="url(#SVGID_14_)" fill-opacity="0.5" cx="161" cy="156.5" rx="53" ry="53.5"/>
<radialGradient id="SVGID_15_" cx="-652.3828" cy="884.3457" r="1.0003" gradientTransform="matrix(-0.3858 35.4552 34.4704 0.3751 -30573.9316 22951.2695)" gradientUnits="userSpaceOnUse">
	<stop  offset="0.3281" style="stop-color:#983E9A"/>
	<stop  offset="0.6302" style="stop-color:#8A3C8B"/>
	<stop  offset="1" style="stop-color:#793E7A"/>
</radialGradient>
<path fill="url(#SVGID_15_)" stroke="#452B45" stroke-width="2" d="M192.02,155.518c0,17.421-13.899,31.517-31.01,31.517
	c-17.112,0-31.01-14.096-31.01-31.517C130,138.096,143.898,124,161.01,124C178.121,124,192.02,138.096,192.02,155.518z"/>
<path fill="#434343" d="M121.698,109.819c-0.029-0.287-0.151-0.509-0.366-0.668c-0.216-0.158-0.508-0.238-0.877-0.238
	c-0.251,0-0.463,0.036-0.636,0.107c-0.173,0.069-0.305,0.164-0.398,0.288c-0.09,0.123-0.135,0.262-0.135,0.419
	c-0.004,0.13,0.023,0.243,0.082,0.34c0.062,0.098,0.146,0.182,0.252,0.253c0.107,0.068,0.23,0.129,0.369,0.181
	c0.14,0.049,0.289,0.092,0.448,0.128l0.653,0.156c0.318,0.071,0.609,0.166,0.874,0.284c0.265,0.118,0.495,0.264,0.689,0.437
	c0.194,0.173,0.344,0.376,0.451,0.61c0.109,0.235,0.164,0.504,0.167,0.807c-0.003,0.445-0.116,0.831-0.341,1.157
	c-0.223,0.325-0.545,0.577-0.966,0.757c-0.419,0.177-0.925,0.266-1.516,0.266c-0.588,0-1.099-0.09-1.535-0.27
	c-0.433-0.18-0.771-0.446-1.015-0.799c-0.242-0.355-0.368-0.794-0.38-1.317h1.488c0.016,0.243,0.086,0.447,0.209,0.61
	c0.126,0.161,0.293,0.283,0.501,0.366c0.211,0.081,0.449,0.121,0.714,0.121c0.26,0,0.486-0.038,0.678-0.114
	c0.194-0.075,0.345-0.181,0.451-0.316c0.107-0.135,0.16-0.29,0.16-0.465c0-0.163-0.049-0.301-0.146-0.412
	c-0.094-0.111-0.234-0.206-0.419-0.284c-0.182-0.078-0.406-0.149-0.671-0.213l-0.792-0.199c-0.613-0.149-1.097-0.382-1.452-0.699
	c-0.355-0.318-0.532-0.745-0.529-1.282c-0.003-0.441,0.114-0.826,0.351-1.155c0.239-0.329,0.567-0.586,0.984-0.77
	c0.416-0.188,0.89-0.277,1.42-0.277c0.54,0,1.011,0.092,1.414,0.277c0.404,0.184,0.719,0.441,0.944,0.77
	c0.225,0.329,0.341,0.711,0.348,1.144H121.698z M125.843,107.727V115h-1.538v-7.273H125.843z M129.686,115h-2.578v-7.273h2.599
	c0.732,0,1.361,0.146,1.889,0.437c0.528,0.289,0.934,0.704,1.218,1.247c0.287,0.542,0.43,1.19,0.43,1.946
	c0,0.757-0.143,1.408-0.43,1.953c-0.284,0.544-0.692,0.962-1.225,1.253C131.059,114.854,130.424,115,129.686,115z M128.645,113.683
	h0.977c0.454,0,0.837-0.081,1.147-0.242c0.312-0.163,0.547-0.415,0.703-0.756c0.159-0.344,0.238-0.786,0.238-1.328
	c0-0.538-0.079-0.977-0.238-1.318c-0.156-0.341-0.389-0.592-0.7-0.753c-0.31-0.161-0.692-0.241-1.147-0.241h-0.98V113.683z
	 M134.383,115v-7.273h4.901v1.268h-3.363v1.733h3.111v1.268h-3.111v1.736h3.377V115H134.383z M146.923,110.273h-1.555
	c-0.029-0.201-0.087-0.38-0.174-0.536c-0.088-0.158-0.2-0.293-0.338-0.405c-0.137-0.111-0.296-0.196-0.476-0.255
	c-0.177-0.059-0.37-0.089-0.578-0.089c-0.377,0-0.705,0.093-0.984,0.28c-0.279,0.185-0.496,0.455-0.65,0.81
	c-0.154,0.353-0.231,0.781-0.231,1.286c0,0.518,0.077,0.954,0.231,1.306c0.156,0.353,0.374,0.62,0.653,0.799
	c0.28,0.18,0.603,0.271,0.97,0.271c0.206,0,0.396-0.027,0.572-0.081c0.177-0.055,0.335-0.134,0.472-0.238
	c0.137-0.107,0.251-0.236,0.341-0.387c0.092-0.152,0.156-0.325,0.192-0.519l1.555,0.007c-0.04,0.334-0.141,0.656-0.302,0.966
	c-0.158,0.308-0.373,0.584-0.643,0.828c-0.267,0.241-0.587,0.433-0.958,0.575c-0.37,0.14-0.788,0.209-1.254,0.209
	c-0.649,0-1.229-0.146-1.74-0.44c-0.509-0.293-0.911-0.718-1.207-1.275c-0.294-0.556-0.441-1.229-0.441-2.02
	c0-0.793,0.149-1.468,0.448-2.025c0.298-0.556,0.703-0.98,1.214-1.271c0.512-0.293,1.087-0.44,1.726-0.44
	c0.421,0,0.812,0.059,1.172,0.177c0.362,0.119,0.683,0.292,0.962,0.519c0.28,0.225,0.507,0.501,0.682,0.827
	C146.76,109.478,146.873,109.852,146.923,110.273z M148.026,115v-7.273h1.537v3.001h3.122v-3.001h1.534V115h-1.534v-3.004h-3.122
	V115H148.026z M156.74,115h-1.648l2.511-7.273h1.982l2.507,7.273h-1.648l-1.822-5.611h-0.057L156.74,115z M156.637,112.141h3.892
	v1.201h-3.892V112.141z M164.505,107.727V115h-1.538v-7.273H164.505z M171.853,107.727V115h-1.328l-3.164-4.577h-0.054V115h-1.537
	v-7.273h1.349l3.139,4.574h0.064v-4.574H171.853z M175.438,115v-7.273h1.537v6.005h3.118V115H175.438z M181.112,115v-7.273h4.9
	v1.268h-3.363v1.733h3.111v1.268h-3.111v1.736h3.377V115H181.112z M188.549,107.727l1.757,5.526h0.068l1.761-5.526h1.705
	L191.333,115h-1.982l-2.511-7.273H188.549z M194.715,115v-7.273h4.901v1.268h-3.363v1.733h3.111v1.268h-3.111v1.736h3.377V115
	H194.715z M200.838,115v-7.273h1.538v6.005h3.118V115H200.838z"/>
<path fill="#F9F9F9" d="M93,30h137c3.313,0,6,2.687,6,6v47c0,3.313-2.687,6-6,6H93c-3.313,0-6-2.687-6-6V36
	C87,32.687,89.687,30,93,30z"/>
<path fill="#6F6F6F" d="M101.86,73.31c0,0.487,0.107,0.887,0.32,1.2c0.213,0.307,0.563,0.46,1.05,0.46c0.2,0,0.407-0.026,0.62-0.08
	c0.22-0.053,0.49-0.144,0.81-0.27l0.37,1.04c-0.36,0.16-0.693,0.273-1,0.34c-0.3,0.067-0.59,0.1-0.87,0.1
	c-0.56,0-1.03-0.12-1.41-0.36c-0.373-0.24-0.653-0.57-0.84-0.99s-0.28-0.9-0.28-1.44v-1.43c0-0.54,0.093-1.02,0.28-1.44
	s0.467-0.747,0.84-0.98c0.38-0.24,0.85-0.36,1.41-0.36c0.273,0,0.557,0.033,0.85,0.1c0.293,0.06,0.613,0.167,0.96,0.32l-0.37,1.06
	c-0.307-0.127-0.563-0.217-0.77-0.27c-0.207-0.053-0.407-0.08-0.6-0.08c-0.487,0-0.837,0.153-1.05,0.46
	c-0.213,0.307-0.32,0.704-0.32,1.19V73.31z M107.312,69.97h-1.21V68.78h1.21V69.97z M107.282,76h-1.15v-5.07h1.15V76z M111.346,71.9
	c-0.166,0-0.356,0.04-0.57,0.12c-0.213,0.08-0.466,0.237-0.76,0.47V76h-1.15v-5.07h1.09v0.68c0.314-0.273,0.61-0.47,0.89-0.59
	c0.28-0.126,0.564-0.19,0.85-0.19c0.487,0,0.857,0.157,1.11,0.47c0.254,0.307,0.38,0.74,0.38,1.3V76h-1.15v-3.26
	C112.036,72.18,111.806,71.9,111.346,71.9z M118.556,75.71c-0.347,0.14-0.673,0.24-0.98,0.3c-0.307,0.06-0.597,0.09-0.87,0.09
	c-0.753,0-1.323-0.213-1.71-0.64c-0.387-0.427-0.58-0.993-0.58-1.7v-0.6c0-0.474,0.087-0.883,0.26-1.23
	c0.173-0.347,0.42-0.617,0.74-0.81c0.32-0.193,0.697-0.29,1.13-0.29c0.353,0,0.683,0.073,0.99,0.22
	c0.313,0.14,0.567,0.363,0.76,0.67c0.2,0.3,0.3,0.688,0.3,1.16c0,0.14-0.01,0.29-0.03,0.45c-0.02,0.153-0.053,0.316-0.1,0.49h-2.94
	c0.013,0.414,0.117,0.724,0.31,0.93s0.503,0.31,0.93,0.31c0.227,0,0.46-0.027,0.7-0.08c0.247-0.053,0.5-0.133,0.76-0.24
	L118.556,75.71z M116.546,71.8c-0.307,0-0.547,0.1-0.72,0.3c-0.167,0.193-0.263,0.473-0.29,0.84h1.92
	c0.007-0.033,0.01-0.063,0.01-0.09c0-0.033,0-0.063,0-0.09c0-0.32-0.09-0.56-0.27-0.72C117.016,71.88,116.799,71.8,116.546,71.8z
	 M121.071,72.49V76h-1.15v-5.07h1.09v0.67c0.313-0.273,0.604-0.47,0.87-0.59c0.267-0.12,0.54-0.18,0.82-0.18
	c0.62,0,1.043,0.273,1.27,0.82c0.333-0.293,0.643-0.503,0.93-0.63c0.287-0.126,0.577-0.19,0.87-0.19c0.467,0,0.823,0.157,1.07,0.47
	c0.247,0.307,0.37,0.74,0.37,1.3V76h-1.15v-3.26c0-0.56-0.213-0.84-0.64-0.84c-0.167,0-0.35,0.04-0.55,0.12
	c-0.2,0.08-0.443,0.237-0.73,0.47V76h-1.15v-3.26c0-0.56-0.213-0.84-0.64-0.84c-0.167,0-0.35,0.04-0.55,0.12
	C121.601,72.1,121.358,72.257,121.071,72.49z M130.633,76.5c-0.22,0.613-0.5,1.053-0.84,1.32c-0.34,0.273-0.807,0.41-1.4,0.41v-1.15
	c0.353-0.013,0.63-0.093,0.83-0.24c0.207-0.14,0.36-0.336,0.46-0.59l0.09-0.23l-1.81-5.09h1.14l0.87,2.53l0.34,1.07l0.33-1.07
	l0.83-2.53h1.14L130.633,76.5z M134.993,75.1c0.247,0,0.45-0.04,0.61-0.12c0.16-0.086,0.24-0.213,0.24-0.38
	c0-0.147-0.053-0.26-0.16-0.34c-0.1-0.086-0.283-0.163-0.55-0.229l-0.57-0.15c-0.44-0.113-0.766-0.303-0.98-0.57
	c-0.206-0.267-0.31-0.583-0.31-0.95c0-0.433,0.15-0.796,0.45-1.09c0.3-0.293,0.764-0.44,1.39-0.44c0.254,0,0.52,0.03,0.8,0.09
	c0.28,0.06,0.574,0.157,0.88,0.29l-0.33,0.98c-0.28-0.133-0.533-0.227-0.76-0.28c-0.226-0.054-0.426-0.08-0.6-0.08
	c-0.473,0-0.71,0.16-0.71,0.48c0,0.126,0.04,0.227,0.12,0.3c0.087,0.073,0.244,0.14,0.47,0.2l0.57,0.15
	c0.487,0.127,0.84,0.32,1.06,0.58c0.227,0.26,0.34,0.587,0.34,0.98c0,0.467-0.16,0.847-0.48,1.14c-0.313,0.293-0.81,0.44-1.49,0.44
	c-0.58,0-1.19-0.133-1.83-0.4l0.31-0.95c0.314,0.127,0.597,0.217,0.85,0.27C134.567,75.073,134.793,75.1,134.993,75.1z
	 M141.184,75.83c-0.174,0.08-0.374,0.143-0.6,0.19c-0.227,0.053-0.457,0.08-0.69,0.08c-0.387,0-0.697-0.08-0.93-0.24
	c-0.234-0.16-0.404-0.383-0.51-0.67c-0.1-0.287-0.15-0.613-0.15-0.98v-2.28h-0.82v-1h0.82v-1.32h1.15v1.32h1.58v1h-1.58v2.28
	c0,0.307,0.056,0.52,0.17,0.64c0.12,0.113,0.29,0.17,0.51,0.17c0.106,0,0.22-0.01,0.34-0.03c0.126-0.027,0.266-0.07,0.42-0.13
	L141.184,75.83z M143.288,69.97h-1.21V68.78h1.21V69.97z M143.258,76h-1.15v-5.07h1.15V76z M145.723,73.17v0.59
	c0,0.427,0.076,0.747,0.23,0.96c0.153,0.213,0.4,0.32,0.74,0.32c0.166,0,0.353-0.02,0.56-0.06c0.213-0.047,0.443-0.117,0.69-0.21
	l0.33,0.97c-0.3,0.12-0.584,0.21-0.85,0.27c-0.267,0.06-0.53,0.09-0.79,0.09c-0.667,0-1.177-0.213-1.53-0.64
	c-0.354-0.427-0.53-0.993-0.53-1.7v-0.59c0-0.713,0.176-1.28,0.53-1.7c0.353-0.426,0.863-0.64,1.53-0.64
	c0.253,0,0.51,0.03,0.77,0.09c0.26,0.06,0.533,0.147,0.82,0.26l-0.33,0.99c-0.48-0.187-0.88-0.28-1.2-0.28
	c-0.34,0-0.587,0.106-0.74,0.32C145.799,72.417,145.723,72.737,145.723,73.17z M150.745,75.1c0.247,0,0.45-0.04,0.61-0.12
	c0.16-0.086,0.24-0.213,0.24-0.38c0-0.147-0.053-0.26-0.16-0.34c-0.1-0.086-0.283-0.163-0.55-0.229l-0.57-0.15
	c-0.44-0.113-0.767-0.303-0.98-0.57c-0.207-0.267-0.31-0.583-0.31-0.95c0-0.433,0.15-0.796,0.45-1.09
	c0.3-0.293,0.763-0.44,1.39-0.44c0.253,0,0.52,0.03,0.8,0.09c0.28,0.06,0.573,0.157,0.88,0.29l-0.33,0.98
	c-0.28-0.133-0.533-0.227-0.76-0.28c-0.227-0.054-0.427-0.08-0.6-0.08c-0.473,0-0.71,0.16-0.71,0.48c0,0.126,0.04,0.227,0.12,0.3
	c0.087,0.073,0.243,0.14,0.47,0.2l0.57,0.15c0.487,0.127,0.84,0.32,1.06,0.58c0.227,0.26,0.34,0.587,0.34,0.98
	c0,0.467-0.16,0.847-0.48,1.14c-0.313,0.293-0.81,0.44-1.49,0.44c-0.58,0-1.19-0.133-1.83-0.4l0.31-0.95
	c0.313,0.127,0.597,0.217,0.85,0.27S150.545,75.1,150.745,75.1z"/>
<path fill="#6F6F6F" d="M204.525,69.2l-2.16,6.8h-1.23l-2.17-6.8h1.32l1.03,3.42l0.47,1.76l0.5-1.77l1.02-3.41H204.525z
	 M206.767,70.17l1.73-0.97h1V76h-1.18v-5.48l-1.02,0.56L206.767,70.17z M211.901,76h-1.21v-1.19h1.21V76z"/>
<path fill="#434343" d="M100.312,45.44v-2.76h12v2.76h-4.56V59h-2.88V45.44H100.312z M120.481,49.16c-0.4,0-0.856,0.096-1.368,0.288
	c-0.512,0.192-1.12,0.568-1.824,1.128V59h-2.76V41.24h2.76v7.104c0.736-0.624,1.424-1.072,2.064-1.344s1.296-0.408,1.968-0.408
	c1.168,0,2.056,0.376,2.664,1.128c0.608,0.736,0.912,1.776,0.912,3.12V59h-2.76v-7.824C122.137,49.832,121.585,49.16,120.481,49.16z
	 M137.784,58.304c-0.832,0.336-1.616,0.576-2.352,0.72c-0.736,0.144-1.432,0.216-2.088,0.216c-1.808,0-3.176-0.512-4.104-1.536
	c-0.928-1.024-1.392-2.384-1.392-4.08v-1.44c0-1.136,0.208-2.12,0.624-2.952s1.008-1.48,1.776-1.944s1.672-0.696,2.712-0.696
	c0.848,0,1.64,0.176,2.376,0.528c0.752,0.336,1.36,0.872,1.824,1.608c0.48,0.72,0.72,1.648,0.72,2.784
	c0,0.336-0.024,0.696-0.072,1.08c-0.048,0.368-0.128,0.76-0.24,1.176h-7.056c0.032,0.992,0.28,1.736,0.744,2.232
	c0.464,0.496,1.208,0.744,2.232,0.744c0.544,0,1.104-0.064,1.68-0.192c0.592-0.128,1.2-0.32,1.824-0.576L137.784,58.304z
	 M132.96,48.92c-0.736,0-1.312,0.24-1.728,0.72c-0.4,0.464-0.632,1.136-0.696,2.016h4.608c0.016-0.08,0.024-0.152,0.024-0.216
	c0-0.08,0-0.152,0-0.216c0-0.768-0.216-1.344-0.648-1.728C134.088,49.112,133.568,48.92,132.96,48.92z M144.564,42.68l4.56,11.16
	l4.536-11.16h3.144V59h-2.76v-6.24l0.36-5.712l-4.056,10.032h-2.568l-3.96-10.056l0.36,5.736V59h-2.76V42.68H144.564z
	 M170.175,59.12c-0.816,0-1.472-0.168-1.968-0.504c-0.48-0.336-0.832-0.752-1.056-1.248c-0.688,0.64-1.352,1.112-1.992,1.416
	c-0.64,0.304-1.328,0.456-2.064,0.456c-1.072,0-1.864-0.344-2.376-1.032c-0.496-0.688-0.744-1.56-0.744-2.616
	c0-0.704,0.128-1.32,0.384-1.848c0.272-0.544,0.712-0.968,1.32-1.272c0.608-0.304,1.44-0.456,2.496-0.456
	c0.416,0,0.848,0.032,1.296,0.096c0.448,0.048,0.896,0.112,1.344,0.192v-1.416c0-0.672-0.184-1.128-0.552-1.368
	c-0.368-0.256-0.864-0.384-1.488-0.384c-0.48,0-1.008,0.064-1.584,0.192c-0.56,0.128-1.168,0.328-1.824,0.6l-0.792-2.352
	c1.616-0.656,3.08-0.984,4.392-0.984c1.184,0,2.096,0.2,2.736,0.6c0.656,0.4,1.112,0.928,1.368,1.584
	c0.256,0.656,0.384,1.36,0.384,2.112v4.68c0,0.24,0.064,0.472,0.192,0.696c0.144,0.208,0.416,0.312,0.816,0.312h0.264v2.544H170.175
	z M162.639,55.544c0,0.432,0.096,0.776,0.288,1.032c0.192,0.24,0.472,0.36,0.84,0.36c0.368,0,0.784-0.096,1.248-0.288
	c0.464-0.192,1.064-0.64,1.8-1.344v-1.032c-0.832-0.144-1.648-0.216-2.448-0.216c-0.624,0-1.072,0.128-1.344,0.384
	C162.767,54.696,162.639,55.064,162.639,55.544z M176.531,56.84c0.592,0,1.08-0.096,1.464-0.288
	c0.384-0.208,0.576-0.512,0.576-0.912c0-0.352-0.128-0.624-0.384-0.816c-0.24-0.208-0.68-0.392-1.32-0.552l-1.368-0.36
	c-1.056-0.272-1.84-0.728-2.352-1.368c-0.496-0.64-0.744-1.4-0.744-2.28c0-1.04,0.36-1.912,1.08-2.616
	c0.72-0.704,1.832-1.056,3.336-1.056c0.608,0,1.248,0.072,1.92,0.216c0.672,0.144,1.376,0.376,2.112,0.696l-0.792,2.352
	c-0.672-0.32-1.28-0.544-1.824-0.672s-1.024-0.192-1.44-0.192c-1.136,0-1.704,0.384-1.704,1.152c0,0.304,0.096,0.544,0.288,0.72
	c0.208,0.176,0.584,0.336,1.128,0.479l1.368,0.36c1.168,0.304,2.016,0.768,2.544,1.392c0.544,0.624,0.816,1.408,0.816,2.352
	c0,1.12-0.384,2.032-1.152,2.736c-0.752,0.704-1.944,1.056-3.576,1.056c-1.392,0-2.856-0.32-4.392-0.96l0.744-2.28
	c0.752,0.304,1.432,0.52,2.04,0.648S176.051,56.84,176.531,56.84z M191.34,59l-3-5.064c-0.48,0.48-0.984,0.96-1.512,1.44V59h-2.76
	V41.24h2.76v11.088c0.912-0.928,1.696-1.816,2.352-2.664c0.672-0.864,1.288-1.808,1.848-2.832h3.168
	c-0.528,0.96-1.104,1.872-1.729,2.736c-0.624,0.864-1.312,1.736-2.063,2.616L194.676,59H191.34z M205.73,58.304
	c-0.832,0.336-1.616,0.576-2.352,0.72c-0.736,0.144-1.432,0.216-2.088,0.216c-1.808,0-3.176-0.512-4.104-1.536
	s-1.392-2.384-1.392-4.08v-1.44c0-1.136,0.208-2.12,0.624-2.952s1.008-1.48,1.776-1.944s1.672-0.696,2.712-0.696
	c0.848,0,1.64,0.176,2.376,0.528c0.752,0.336,1.36,0.872,1.824,1.608c0.48,0.72,0.72,1.648,0.72,2.784
	c0,0.336-0.024,0.696-0.072,1.08c-0.048,0.368-0.128,0.76-0.24,1.176h-7.056c0.032,0.992,0.28,1.736,0.744,2.232
	c0.464,0.496,1.208,0.744,2.232,0.744c0.544,0,1.104-0.064,1.68-0.192c0.592-0.128,1.2-0.32,1.824-0.576L205.73,58.304z
	 M200.906,48.92c-0.736,0-1.313,0.24-1.729,0.72c-0.4,0.464-0.632,1.136-0.696,2.016h4.608c0.016-0.08,0.024-0.152,0.024-0.216
	c0-0.08,0-0.152,0-0.216c0-0.768-0.216-1.344-0.648-1.728C202.034,49.112,201.514,48.92,200.906,48.92z M215.869,49.352
	c-0.752,0-1.472,0.12-2.16,0.36c-0.672,0.224-1.32,0.592-1.944,1.104V59h-2.76V46.832h2.616v1.872
	c0.816-0.768,1.544-1.312,2.184-1.632c0.64-0.32,1.328-0.48,2.064-0.48V49.352z"/>
<radialGradient id="SVGID_16_" cx="-646.9287" cy="882.2568" r="0.9988" gradientTransform="matrix(-2.0769 25.6329 25.6287 2.0766 -23915.5918 15190.957)" gradientUnits="userSpaceOnUse">
	<stop  offset="0" style="stop-color:#000000;stop-opacity:0.5"/>
	<stop  offset="1" style="stop-color:#595959;stop-opacity:0"/>
</radialGradient>
<circle fill="url(#SVGID_16_)" fill-opacity="0.6" cx="37" cy="439" r="27"/>
<radialGradient id="SVGID_17_" cx="-642.7046" cy="876.7285" r="0.9999" gradientTransform="matrix(0.003 19.5431 19.5431 -0.003 -17095.0547 12998.541)" gradientUnits="userSpaceOnUse">
	<stop  offset="0.375" style="stop-color:#9A3C9D"/>
	<stop  offset="0.474" style="stop-color:#963C99"/>
	<stop  offset="0.7188" style="stop-color:#863D88"/>
	<stop  offset="1" style="stop-color:#571D58"/>
</radialGradient>
<circle fill="url(#SVGID_17_)" stroke="#542155" cx="37" cy="438" r="16.5"/>
<path fill="#434343" d="M33.592,403.727V411h-1.538v-7.273H33.592z M40.94,403.727V411h-1.328l-3.164-4.577h-0.053V411h-1.538
	v-7.273h1.35l3.139,4.574h0.064v-4.574H40.94z"/>
<line fill="none" stroke="#D5D5D5" stroke-width="4" stroke-linecap="round" x1="278" y1="462" x2="295" y2="462"/>
<path fill="#D5D5D5" d="M306.592,458.727V466h-1.538v-7.273H306.592z M313.94,458.727V466h-1.328l-3.164-4.577h-0.054V466h-1.537
	v-7.273h1.349l3.139,4.574h0.064v-4.574H313.94z"/>
<line fill="none" stroke="#FFC700" stroke-width="4" stroke-linecap="round" x1="328" y1="462" x2="345" y2="462"/>
<path fill="#FFC700" d="M357.041,460.819c-0.028-0.287-0.15-0.512-0.365-0.668c-0.216-0.158-0.508-0.238-0.878-0.238
	c-0.251,0-0.462,0.036-0.635,0.104c-0.173,0.069-0.306,0.164-0.398,0.288c-0.09,0.123-0.135,0.265-0.135,0.419
	c-0.005,0.133,0.023,0.243,0.082,0.343c0.063,0.098,0.146,0.182,0.252,0.253c0.106,0.065,0.23,0.129,0.369,0.181
	c0.14,0.049,0.289,0.092,0.448,0.128l0.65,0.156c0.317,0.07,0.608,0.166,0.874,0.284c0.268,0.118,0.494,0.264,0.689,0.437
	c0.192,0.173,0.344,0.376,0.451,0.61c0.105,0.232,0.164,0.504,0.166,0.807c-0.002,0.445-0.116,0.831-0.341,1.157
	c-0.225,0.325-0.547,0.577-0.968,0.757c-0.419,0.177-0.925,0.267-1.517,0.267c-0.587,0-1.098-0.091-1.534-0.271
	c-0.433-0.18-0.771-0.446-1.015-0.799c-0.242-0.355-0.369-0.794-0.381-1.317h1.486c0.019,0.243,0.086,0.447,0.209,0.61
	c0.126,0.161,0.292,0.283,0.501,0.366c0.21,0.08,0.448,0.121,0.715,0.121c0.262,0,0.485-0.038,0.68-0.114
	c0.192-0.075,0.344-0.183,0.45-0.316c0.104-0.135,0.158-0.29,0.158-0.465c0-0.163-0.049-0.301-0.146-0.412
	c-0.095-0.11-0.234-0.206-0.419-0.284c-0.184-0.078-0.406-0.146-0.671-0.213l-0.792-0.199c-0.613-0.146-1.1-0.382-1.453-0.696
	c-0.355-0.318-0.531-0.745-0.529-1.282c-0.002-0.441,0.115-0.826,0.354-1.155c0.238-0.329,0.564-0.586,0.981-0.77
	c0.416-0.188,0.893-0.277,1.42-0.277c0.54,0,1.014,0.092,1.413,0.277c0.405,0.184,0.721,0.438,0.945,0.77
	c0.224,0.33,0.341,0.711,0.348,1.146h-1.471v-0.004H357.041z M366.066,461.273h-1.559c-0.025-0.201-0.086-0.383-0.174-0.536
	c-0.087-0.158-0.2-0.293-0.337-0.405c-0.137-0.111-0.296-0.196-0.478-0.255c-0.179-0.062-0.369-0.089-0.577-0.089
	c-0.376,0-0.704,0.093-0.984,0.277c-0.279,0.188-0.495,0.455-0.649,0.813c-0.151,0.353-0.229,0.781-0.229,1.286
	c0,0.518,0.077,0.954,0.229,1.306c0.156,0.354,0.374,0.62,0.653,0.799c0.279,0.183,0.604,0.271,0.97,0.271
	c0.205,0,0.396-0.027,0.571-0.081c0.178-0.056,0.335-0.134,0.476-0.238c0.137-0.105,0.25-0.235,0.34-0.387
	c0.093-0.152,0.154-0.325,0.189-0.521l1.559,0.01c-0.041,0.334-0.144,0.653-0.305,0.966c-0.156,0.308-0.373,0.584-0.643,0.828
	c-0.27,0.238-0.587,0.433-0.959,0.572c-0.369,0.143-0.787,0.209-1.253,0.209c-0.649,0-1.229-0.146-1.74-0.438
	c-0.509-0.293-0.912-0.718-1.208-1.275c-0.293-0.556-0.438-1.229-0.438-2.02c0-0.793,0.146-1.468,0.444-2.025
	c0.299-0.556,0.703-0.979,1.215-1.271c0.514-0.293,1.089-0.44,1.729-0.44c0.421,0,0.812,0.062,1.172,0.178
	c0.362,0.118,0.683,0.291,0.962,0.521c0.279,0.225,0.507,0.501,0.682,0.827C365.902,460.479,366.016,460.852,366.066,461.273z"/>
<line fill="none" stroke="#B84DBA" stroke-width="4" stroke-linecap="round" x1="625" y1="462" x2="642" y2="462"/>
<path fill="#B84DBA" d="M652.378,466H649.8v-7.273h2.603c0.729,0,1.358,0.146,1.889,0.438c0.528,0.289,0.934,0.704,1.218,1.247
	c0.286,0.542,0.431,1.188,0.431,1.946c0,0.757-0.145,1.405-0.431,1.95c-0.284,0.545-0.69,0.963-1.225,1.254
	C653.751,465.854,653.117,466,652.378,466z M651.338,464.683h0.979c0.453,0,0.837-0.081,1.146-0.239
	c0.313-0.163,0.547-0.415,0.703-0.758c0.159-0.345,0.238-0.784,0.238-1.326c0-0.538-0.079-0.979-0.238-1.318
	c-0.156-0.341-0.389-0.592-0.699-0.753c-0.31-0.161-0.691-0.241-1.146-0.241h-0.98L651.338,464.683L651.338,464.683z
	 M659.533,466.107c-0.563,0-1.044-0.114-1.449-0.344c-0.402-0.229-0.713-0.554-0.93-0.973c-0.219-0.422-0.327-0.92-0.327-1.495
	c0-0.561,0.106-1.054,0.327-1.478c0.217-0.426,0.521-0.754,0.919-0.99c0.396-0.237,0.864-0.356,1.396-0.356
	c0.36,0,0.695,0.061,1.006,0.177c0.313,0.111,0.587,0.283,0.816,0.515c0.235,0.229,0.417,0.519,0.547,0.867
	c0.13,0.345,0.195,0.75,0.195,1.214v0.416h-4.605v-0.938h3.184c0-0.218-0.047-0.408-0.145-0.579
	c-0.094-0.168-0.226-0.299-0.394-0.394c-0.166-0.097-0.358-0.146-0.579-0.146c-0.229,0-0.433,0.054-0.61,0.157
	c-0.176,0.105-0.313,0.246-0.411,0.423c-0.101,0.178-0.149,0.371-0.151,0.588v0.892c0,0.27,0.05,0.503,0.147,0.7
	c0.104,0.193,0.244,0.348,0.432,0.454c0.184,0.104,0.4,0.157,0.655,0.157c0.169,0,0.321-0.021,0.462-0.068
	c0.141-0.047,0.261-0.118,0.357-0.213c0.101-0.098,0.176-0.211,0.229-0.351l1.396,0.095c-0.07,0.337-0.216,0.63-0.436,0.881
	c-0.22,0.249-0.5,0.44-0.848,0.583C660.379,466.038,659.983,466.107,659.533,466.107z M664.536,458.727V466h-1.512v-7.273H664.536z
	 M668.65,460.545v1.137h-3.285v-1.137H668.65z M666.11,459.239h1.513v5.085c0,0.14,0.021,0.248,0.064,0.327
	c0.043,0.072,0.102,0.129,0.178,0.156c0.078,0.031,0.168,0.05,0.27,0.05c0.071,0,0.145-0.009,0.213-0.021
	c0.071-0.014,0.125-0.022,0.163-0.032l0.238,1.126c-0.076,0.023-0.182,0.053-0.32,0.081c-0.137,0.033-0.304,0.056-0.5,0.063
	c-0.362,0.014-0.685-0.035-0.959-0.146c-0.271-0.108-0.481-0.284-0.636-0.518c-0.151-0.235-0.226-0.531-0.224-0.888V459.239
	L666.11,459.239z M671.19,466.104c-0.351,0-0.658-0.061-0.933-0.182c-0.271-0.123-0.486-0.304-0.646-0.543
	c-0.157-0.242-0.235-0.543-0.235-0.902c0-0.303,0.056-0.558,0.167-0.764s0.263-0.372,0.455-0.497
	c0.191-0.126,0.409-0.22,0.653-0.284c0.246-0.063,0.504-0.106,0.771-0.135c0.318-0.033,0.573-0.063,0.77-0.092
	c0.191-0.031,0.335-0.076,0.423-0.135c0.087-0.063,0.131-0.147,0.131-0.266v-0.021c0-0.228-0.071-0.399-0.213-0.523
	c-0.142-0.123-0.338-0.184-0.597-0.184c-0.272,0-0.488,0.06-0.649,0.181c-0.161,0.118-0.271,0.27-0.32,0.447l-1.396-0.113
	c0.068-0.332,0.211-0.618,0.419-0.857c0.208-0.243,0.477-0.433,0.806-0.563c0.332-0.132,0.715-0.199,1.151-0.199
	c0.303,0,0.593,0.036,0.87,0.107c0.276,0.069,0.524,0.181,0.739,0.33c0.221,0.146,0.392,0.341,0.518,0.575
	c0.125,0.23,0.188,0.511,0.188,0.835V466h-1.435v-0.756h-0.042c-0.088,0.17-0.205,0.32-0.354,0.451
	c-0.146,0.127-0.32,0.228-0.526,0.301C671.698,466.067,671.46,466.104,671.19,466.104z M671.624,465.059
	c0.222,0,0.419-0.044,0.589-0.131c0.171-0.09,0.304-0.211,0.401-0.36c0.097-0.151,0.146-0.323,0.146-0.518v-0.578
	c-0.047,0.03-0.111,0.062-0.192,0.085s-0.175,0.047-0.274,0.067c-0.102,0.019-0.203,0.037-0.305,0.054
	c-0.104,0.017-0.194,0.027-0.277,0.039c-0.178,0.026-0.333,0.067-0.465,0.124c-0.133,0.058-0.236,0.134-0.311,0.231
	c-0.072,0.094-0.108,0.213-0.108,0.354c0,0.206,0.074,0.363,0.223,0.473C671.2,465.006,671.392,465.059,671.624,465.059z"/>
<line fill="none" stroke="#0C9600" stroke-width="4" stroke-linecap="round" x1="686" y1="462" x2="703" y2="462"/>
<path fill="#0C9600" d="M719.417,462.364c0,0.793-0.149,1.467-0.451,2.021c-0.298,0.559-0.706,0.981-1.222,1.275
	c-0.514,0.291-1.091,0.436-1.733,0.436c-0.646,0-1.226-0.146-1.739-0.438c-0.513-0.292-0.92-0.718-1.219-1.275
	c-0.298-0.556-0.447-1.229-0.447-2.02c0-0.793,0.149-1.468,0.447-2.025c0.299-0.556,0.705-0.979,1.219-1.271
	c0.516-0.293,1.096-0.44,1.739-0.44c0.645,0,1.22,0.147,1.733,0.44c0.516,0.291,0.924,0.715,1.222,1.271
	C719.268,460.896,719.417,461.571,719.417,462.364z M717.857,462.364c0-0.517-0.076-0.947-0.23-1.3
	c-0.15-0.354-0.366-0.62-0.643-0.806c-0.277-0.182-0.604-0.271-0.976-0.271c-0.371,0-0.694,0.091-0.973,0.271
	c-0.277,0.186-0.492,0.45-0.646,0.806c-0.149,0.353-0.228,0.783-0.228,1.3c0,0.513,0.076,0.946,0.228,1.299
	c0.153,0.353,0.368,0.621,0.646,0.803c0.274,0.185,0.602,0.273,0.973,0.273c0.372,0,0.696-0.091,0.976-0.273
	c0.274-0.182,0.492-0.45,0.643-0.803C717.781,463.311,717.857,462.877,717.857,462.364z M725.048,458.727h1.538v4.726
	c0,0.528-0.127,0.995-0.38,1.392c-0.251,0.398-0.603,0.708-1.055,0.934c-0.452,0.22-0.979,0.33-1.58,0.33
	c-0.604,0-1.132-0.11-1.584-0.33c-0.452-0.226-0.807-0.533-1.058-0.934c-0.251-0.396-0.376-0.859-0.376-1.392v-4.726h1.538v4.595
	c0,0.274,0.063,0.521,0.184,0.736c0.123,0.218,0.296,0.387,0.518,0.51c0.223,0.12,0.482,0.185,0.778,0.185
	c0.298,0,0.557-0.063,0.775-0.185c0.225-0.123,0.396-0.292,0.517-0.51c0.124-0.216,0.185-0.462,0.185-0.736V458.727L725.048,458.727
	z M727.574,459.995v-1.271h5.973v1.271h-2.227V466H729.8v-6.005H727.574z"/>
<path fill="#FFFFFF" fill-opacity="0.5" d="M16,37h12.787c3.313,0,6,2.687,6,6v9.16c0,3.313-2.687,6-6,6H16c-3.313,0-6-2.687-6-6V43
	C10,39.687,12.687,37,16,37z"/>
<path fill="none" stroke="#434343" stroke-width="2.4" stroke-linecap="round" stroke-linejoin="round" d="M17.943,40.918
	l-2.54,2.494l2.54,2.494"/>
<path fill="none" stroke="#434343" stroke-width="2.4" stroke-linecap="round" stroke-linejoin="round" d="M15.403,43.412h9.048
	c2.748,0,5.005,2.131,5.112,4.827c0.113,2.849-2.208,5.219-5.112,5.219h-6.653"/>
<path fill="#FFFFFF" fill-opacity="0.5" d="M16,61.84h12.787c3.313,0,6,2.687,6,6V77c0,3.313-2.687,6-6,6H16c-3.313,0-6-2.687-6-6
	v-9.16C10,64.526,12.687,61.84,16,61.84z"/>
<path fill="none" stroke="#434343" stroke-width="2.4" stroke-linecap="round" stroke-linejoin="round" d="M27.119,65.759
	l2.54,2.494l-2.54,2.494"/>
<path fill="none" stroke="#434343" stroke-width="2.4" stroke-linecap="round" stroke-linejoin="round" d="M29.659,68.252H20.61
	c-2.748,0-5.004,2.131-5.111,4.827c-0.113,2.849,2.208,5.219,5.111,5.219h6.654"/>
<path fill="#FFFFFF" fill-opacity="0.5" d="M45.213,61.84H58c3.313,0,6,2.687,6,6V77c0,3.313-2.687,6-6,6H45.213
	c-3.313,0-6-2.687-6-6v-9.16C39.213,64.526,41.899,61.84,45.213,61.84z"/>
<path fill="#434343" d="M52.294,66.835L51,65.511c-0.566-0.58-1.294-0.911-2.022-0.911h-3.154c-1.213,0-2.184,0.994-2.184,2.235
	v10.35c0,1.325,0.971,2.318,2.184,2.318H57.39c1.213,0,2.184-0.994,2.184-2.235v-8.115c0-1.242-0.971-2.235-2.184-2.235h-5.096
	V66.835z"/>
<path fill="#D5D5D5" d="M54.076,73.377c-0.239-0.332-0.796-0.414-1.115-0.166l-0.637,0.58v-2.318c0-0.497-0.319-0.828-0.797-0.828
	s-0.797,0.331-0.797,0.828v2.318l-0.717-0.58c-0.319-0.248-0.797-0.166-1.116,0.166c-0.239,0.331-0.239,0.911,0.16,1.159
	l1.992,1.656l0.08,0.083c0,0,0.08,0,0.08,0.083c0.08,0.083,0.239,0.083,0.319,0.083c0.08,0,0.239,0,0.319-0.083l0.08-0.083
	c0,0,0,0,0.08,0l1.992-1.656C54.315,74.288,54.315,73.708,54.076,73.377z"/>
<path fill="#FFFFFF" fill-opacity="0.5" d="M45.213,37H58c3.313,0,6,2.687,6,6v9.16c0,3.313-2.687,6-6,6H45.213
	c-3.313,0-6-2.687-6-6V43C39.213,39.687,41.899,37,45.213,37z"/>
<path fill="#434343" d="M54.003,50.708h-4.794c-0.218,0-0.436,0.247-0.436,0.494V55.4h5.666v-4.198
	C54.439,50.955,54.221,50.708,54.003,50.708z"/>
<path fill="#434343" d="M57.896,43.044l-2.134-2.346c-0.569-0.547-1.351-0.938-2.205-0.938h-6.543c-1.422,0-2.489,1.251-2.489,2.737
	v10.244c0,1.486,1.067,2.659,2.489,2.659h0.427v-0.782v-0.782v-2.424c0-1.173,0.854-2.033,1.849-2.033h4.623
	c1.067,0,1.849,0.938,1.849,2.033v2.424v0.782V55.4h0.427c1.352,0,2.489-1.173,2.489-2.659v-7.272
	C58.749,44.53,58.464,43.748,57.896,43.044z"/>
<polygon fill="#434343" points="792.761,32.996 792.761,31.727 798.732,31.727 798.732,32.996 796.507,32.996 796.507,39 
	794.987,39 794.987,32.996 "/>
<polygon fill="#434343" points="776.915,39 775.268,39 777.778,31.728 779.76,31.728 782.268,39 780.618,39 778.797,33.39 
	778.739,33.39 "/>
<rect x="776.813" y="36.142" fill="#434343" width="3.893" height="1.201"/>
<g>
	<path fill="#6F6F6F" d="M212.957,75.08l1.763-3.324c0.089-0.166,0.141-0.311,0.153-0.436s0.019-0.279,0.019-0.465
		c0-0.083-0.003-0.171-0.009-0.263c-0.006-0.093-0.024-0.174-0.053-0.245s-0.075-0.129-0.139-0.177s-0.156-0.072-0.278-0.072
		c-0.147,0-0.263,0.042-0.35,0.125c-0.086,0.083-0.129,0.205-0.129,0.364v0.556h-0.977v-0.537c0-0.204,0.039-0.396,0.115-0.575
		c0.076-0.179,0.18-0.335,0.311-0.47c0.131-0.134,0.286-0.241,0.465-0.321c0.179-0.08,0.37-0.12,0.575-0.12
		c0.255,0,0.474,0.046,0.656,0.139c0.182,0.093,0.332,0.219,0.45,0.378c0.118,0.16,0.204,0.342,0.259,0.546
		c0.054,0.204,0.082,0.421,0.082,0.651c0,0.166-0.003,0.305-0.01,0.417c-0.006,0.112-0.019,0.219-0.039,0.321
		c-0.019,0.102-0.051,0.204-0.096,0.306c-0.044,0.103-0.105,0.227-0.182,0.374l-1.437,2.769h1.763V76h-2.913V75.08z"/>
</g>
</svg>
