<svg width="836" height="507" viewBox="0 0 836 507" fill="none" xmlns="http://www.w3.org/2000/svg">
<rect y="16" width="824" height="475" fill="#252525"/>
<rect y="16" width="824" height="475" fill="url(#paint0_linear_201_2)"/>
<g filter="url(#filter0_d_201_2)">
<path d="M824 491H754C751.791 491 750 489.209 750 487V20C750 17.7909 751.791 16 754 16H824L824 491Z" fill="#D5D5D5"/>
</g>
<circle cx="787" cy="439" r="29" fill="url(#paint1_radial_201_2)" fill-opacity="0.6"/>
<circle cx="787" cy="438" r="16.5" fill="url(#paint2_radial_201_2)" stroke="#542155"/>
<path d="M782.917 408.364C782.917 409.157 782.767 409.831 782.466 410.388C782.168 410.944 781.76 411.369 781.244 411.663C780.731 411.954 780.153 412.099 779.511 412.099C778.865 412.099 778.285 411.953 777.771 411.659C777.258 411.366 776.852 410.941 776.553 410.384C776.255 409.828 776.106 409.154 776.106 408.364C776.106 407.571 776.255 406.896 776.553 406.339C776.852 405.783 777.258 405.359 777.771 405.068C778.285 404.775 778.865 404.628 779.511 404.628C780.153 404.628 780.731 404.775 781.244 405.068C781.76 405.359 782.168 405.783 782.466 406.339C782.767 406.896 782.917 407.571 782.917 408.364ZM781.358 408.364C781.358 407.85 781.281 407.417 781.127 407.064C780.976 406.711 780.761 406.444 780.484 406.261C780.207 406.079 779.883 405.988 779.511 405.988C779.14 405.988 778.815 406.079 778.538 406.261C778.261 406.444 778.046 406.711 777.892 407.064C777.741 407.417 777.665 407.85 777.665 408.364C777.665 408.877 777.741 409.311 777.892 409.663C778.046 410.016 778.261 410.284 778.538 410.466C778.815 410.648 779.14 410.739 779.511 410.739C779.883 410.739 780.207 410.648 780.484 410.466C780.761 410.284 780.976 410.016 781.127 409.663C781.281 409.311 781.358 408.877 781.358 408.364ZM788.548 404.727H790.086V409.45C790.086 409.981 789.959 410.445 789.706 410.842C789.455 411.24 789.103 411.55 788.651 411.773C788.199 411.993 787.672 412.103 787.071 412.103C786.467 412.103 785.939 411.993 785.487 411.773C785.035 411.55 784.683 411.24 784.432 410.842C784.181 410.445 784.056 409.981 784.056 409.45V404.727H785.594V409.319C785.594 409.596 785.654 409.842 785.775 410.058C785.898 410.273 786.071 410.442 786.293 410.565C786.516 410.688 786.775 410.75 787.071 410.75C787.369 410.75 787.628 410.688 787.849 410.565C788.071 410.442 788.243 410.273 788.363 410.058C788.487 409.842 788.548 409.596 788.548 409.319V404.727ZM791.074 405.995V404.727H797.047V405.995H794.82V412H793.3V405.995H791.074Z" fill="#434343"/>
<circle cx="787" cy="66" r="29" fill="url(#paint3_radial_201_2)" fill-opacity="0.5"/>
<circle cx="787" cy="66" r="16.5" fill="url(#paint4_radial_201_2)" stroke="#542155"/>
<path d="M777.581 31.7273H779.478L781.48 36.6136H781.566L783.569 31.7273H785.465V39H783.973V34.2663H783.913L782.031 38.9645H781.015L779.133 34.2486H779.073V39H777.581V31.7273ZM788.269 31.7273V39H786.732V31.7273H788.269ZM790.976 31.7273L792.443 34.206H792.5L793.973 31.7273H795.71L793.49 35.3636L795.76 39H793.991L792.5 36.5178H792.443L790.951 39H789.19L791.466 35.3636L789.233 31.7273H790.976Z" fill="#434343"/>
<rect y="16" width="74" height="475" fill="#787878"/>
<path d="M53 16H243C246.314 16 249 18.6863 249 22V485C249 488.314 246.314 491 243 491H53V16Z" fill="url(#paint5_linear_201_2)"/>
<path d="M74 16H242C245.314 16 248 18.6863 248 22V485C248 488.314 245.314 491 242 491H74V16Z" fill="#D5D5D5"/>
<ellipse cx="160" cy="266.5" rx="39" ry="39.5" fill="url(#paint6_radial_201_2)" fill-opacity="0.6"/>
<path d="M181.436 265.792C181.436 277.007 172.488 286.085 161.468 286.085C150.447 286.085 141.5 277.007 141.5 265.792C141.5 254.578 150.447 245.5 161.468 245.5C172.488 245.5 181.436 254.578 181.436 265.792Z" fill="url(#paint7_radial_201_2)" stroke="#542155"/>
<path d="M134.136 232.273H132.581C132.553 232.072 132.495 231.893 132.407 231.737C132.319 231.579 132.207 231.444 132.07 231.332C131.932 231.221 131.774 231.136 131.594 231.077C131.416 231.018 131.223 230.988 131.015 230.988C130.638 230.988 130.311 231.081 130.031 231.268C129.752 231.453 129.535 231.723 129.381 232.078C129.227 232.431 129.151 232.859 129.151 233.364C129.151 233.882 129.227 234.318 129.381 234.67C129.538 235.023 129.755 235.29 130.035 235.469C130.314 235.649 130.637 235.739 131.004 235.739C131.21 235.739 131.401 235.712 131.576 235.658C131.754 235.603 131.911 235.524 132.048 235.42C132.186 235.313 132.299 235.184 132.389 235.033C132.481 234.881 132.545 234.708 132.581 234.514L134.136 234.521C134.096 234.855 133.995 235.177 133.834 235.487C133.676 235.795 133.462 236.071 133.192 236.315C132.924 236.556 132.605 236.748 132.233 236.89C131.864 237.03 131.446 237.099 130.979 237.099C130.331 237.099 129.751 236.953 129.239 236.659C128.73 236.366 128.328 235.941 128.032 235.384C127.738 234.828 127.592 234.154 127.592 233.364C127.592 232.571 127.741 231.896 128.039 231.339C128.337 230.783 128.742 230.359 129.254 230.068C129.765 229.775 130.34 229.628 130.979 229.628C131.401 229.628 131.791 229.687 132.151 229.805C132.513 229.924 132.834 230.097 133.114 230.324C133.393 230.549 133.62 230.825 133.795 231.151C133.973 231.478 134.087 231.852 134.136 232.273ZM135.239 237V229.727H136.777V235.732H139.894V237H135.239ZM140.913 237V229.727H145.813V230.995H142.45V232.728H145.561V233.996H142.45V235.732H145.828V237H140.913ZM148.289 237H146.642L149.152 229.727H151.134L153.641 237H151.993L150.171 231.389H150.115L148.289 237ZM148.186 234.141H152.078V235.342H148.186V234.141ZM154.516 237V229.727H157.386C157.935 229.727 158.404 229.826 158.792 230.022C159.182 230.216 159.48 230.492 159.683 230.849C159.889 231.205 159.992 231.622 159.992 232.103C159.992 232.586 159.888 233.001 159.68 233.349C159.471 233.695 159.169 233.96 158.774 234.145C158.381 234.33 157.905 234.422 157.347 234.422H155.425V233.186H157.098C157.392 233.186 157.635 233.146 157.83 233.065C158.024 232.985 158.168 232.864 158.263 232.703C158.36 232.542 158.408 232.342 158.408 232.103C158.408 231.862 158.36 231.658 158.263 231.492C158.168 231.326 158.022 231.201 157.826 231.116C157.632 231.028 157.387 230.984 157.091 230.984H156.054V237H154.516ZM158.444 233.69L160.251 237H158.554L156.785 233.69H158.444ZM163.393 237V229.727H168.209V230.995H164.931V232.728H167.889V233.996H164.931V237H163.393ZM169.243 237V229.727H172.112C172.661 229.727 173.13 229.826 173.518 230.022C173.909 230.216 174.206 230.492 174.41 230.849C174.616 231.205 174.719 231.622 174.719 232.103C174.719 232.586 174.615 233.001 174.406 233.349C174.198 233.695 173.896 233.96 173.501 234.145C173.108 234.33 172.632 234.422 172.073 234.422H170.152V233.186H171.825C172.118 233.186 172.362 233.146 172.556 233.065C172.75 232.985 172.895 232.864 172.989 232.703C173.086 232.542 173.135 232.342 173.135 232.103C173.135 231.862 173.086 231.658 172.989 231.492C172.895 231.326 172.749 231.201 172.553 231.116C172.358 231.028 172.113 230.984 171.817 230.984H170.781V237H169.243ZM173.17 233.69L174.978 237H173.281L171.512 233.69H173.17ZM175.805 237V229.727H180.706V230.995H177.343V232.728H180.454V233.996H177.343V235.732H180.72V237H175.805ZM184.673 234.472H185.98L186.637 235.317L187.284 236.07L188.502 237.597H187.067L186.229 236.567L185.799 235.956L184.673 234.472ZM188.612 233.364C188.612 234.157 188.461 234.831 188.161 235.388C187.862 235.944 187.455 236.369 186.939 236.663C186.425 236.954 185.848 237.099 185.206 237.099C184.56 237.099 183.98 236.953 183.466 236.659C182.952 236.366 182.546 235.941 182.248 235.384C181.95 234.828 181.801 234.154 181.801 233.364C181.801 232.571 181.95 231.896 182.248 231.339C182.546 230.783 182.952 230.359 183.466 230.068C183.98 229.775 184.56 229.628 185.206 229.628C185.848 229.628 186.425 229.775 186.939 230.068C187.455 230.359 187.862 230.783 188.161 231.339C188.461 231.896 188.612 232.571 188.612 233.364ZM187.053 233.364C187.053 232.85 186.976 232.417 186.822 232.064C186.67 231.711 186.456 231.444 186.179 231.261C185.902 231.079 185.578 230.988 185.206 230.988C184.834 230.988 184.51 231.079 184.233 231.261C183.956 231.444 183.741 231.711 183.587 232.064C183.435 232.417 183.36 232.85 183.36 233.364C183.36 233.877 183.435 234.311 183.587 234.663C183.741 235.016 183.956 235.284 184.233 235.466C184.51 235.648 184.834 235.739 185.206 235.739C185.578 235.739 185.902 235.648 186.179 235.466C186.456 235.284 186.67 235.016 186.822 234.663C186.976 234.311 187.053 233.877 187.053 233.364ZM193.696 231.819C193.668 231.532 193.546 231.31 193.33 231.151C193.115 230.993 192.822 230.913 192.453 230.913C192.202 230.913 191.99 230.949 191.817 231.02C191.645 231.089 191.512 231.184 191.42 231.308C191.33 231.431 191.285 231.57 191.285 231.727C191.28 231.857 191.307 231.97 191.366 232.067C191.428 232.165 191.512 232.249 191.619 232.32C191.725 232.388 191.848 232.449 191.988 232.501C192.128 232.55 192.277 232.593 192.435 232.629L193.089 232.785C193.406 232.856 193.697 232.951 193.962 233.069C194.227 233.187 194.457 233.333 194.651 233.506C194.845 233.679 194.996 233.882 195.102 234.116C195.211 234.351 195.267 234.62 195.269 234.923C195.267 235.368 195.153 235.754 194.928 236.08C194.706 236.405 194.384 236.657 193.962 236.837C193.543 237.014 193.038 237.103 192.446 237.103C191.859 237.103 191.347 237.013 190.912 236.833C190.479 236.653 190.14 236.387 189.896 236.034C189.655 235.679 189.528 235.24 189.516 234.717H191.004C191.021 234.96 191.091 235.164 191.214 235.327C191.339 235.488 191.506 235.61 191.714 235.693C191.925 235.774 192.163 235.814 192.428 235.814C192.689 235.814 192.915 235.776 193.106 235.7C193.301 235.625 193.451 235.519 193.557 235.384C193.664 235.249 193.717 235.094 193.717 234.919C193.717 234.756 193.669 234.618 193.572 234.507C193.477 234.396 193.337 234.301 193.153 234.223C192.97 234.145 192.747 234.074 192.481 234.01L191.69 233.811C191.076 233.662 190.592 233.429 190.237 233.112C189.882 232.794 189.706 232.367 189.708 231.83C189.706 231.389 189.823 231.004 190.06 230.675C190.299 230.346 190.627 230.089 191.043 229.905C191.46 229.72 191.933 229.628 192.464 229.628C193.004 229.628 193.475 229.72 193.877 229.905C194.282 230.089 194.597 230.346 194.822 230.675C195.047 231.004 195.163 231.386 195.17 231.819H193.696Z" fill="#434343"/>
<path d="M195.29 280V272.727H198.159C198.708 272.727 199.177 272.826 199.565 273.022C199.956 273.216 200.253 273.492 200.457 273.849C200.663 274.205 200.766 274.622 200.766 275.103C200.766 275.586 200.661 276.001 200.453 276.349C200.245 276.695 199.943 276.96 199.548 277.145C199.155 277.33 198.679 277.422 198.12 277.422H196.199V276.186H197.871C198.165 276.186 198.409 276.146 198.603 276.065C198.797 275.985 198.941 275.864 199.036 275.703C199.133 275.542 199.182 275.342 199.182 275.103C199.182 274.862 199.133 274.658 199.036 274.492C198.941 274.326 198.796 274.201 198.599 274.116C198.405 274.028 198.16 273.984 197.864 273.984H196.827V280H195.29ZM199.217 276.69L201.025 280H199.327L197.559 276.69H199.217ZM201.852 280V272.727H206.753V273.995H203.39V275.728H206.501V276.996H203.39V278.732H206.767V280H201.852ZM209.289 272.727L211.047 278.253H211.114L212.876 272.727H214.58L212.073 280H210.092L207.581 272.727H209.289ZM215.456 280V272.727H220.356V273.995H216.993V275.728H220.104V276.996H216.993V278.732H220.371V280H215.456ZM222.832 280H221.185L223.695 272.727H225.677L228.184 280H226.536L224.714 274.389H224.658L222.832 280ZM222.729 277.141H226.621V278.342H222.729V277.141ZM229.059 280V272.727H230.597V278.732H233.715V280H229.059Z" fill="#7C7C7C"/>
<path d="M193.29 363V355.727H196.159C196.708 355.727 197.177 355.826 197.565 356.022C197.956 356.216 198.253 356.492 198.457 356.849C198.663 357.205 198.766 357.622 198.766 358.103C198.766 358.586 198.661 359.001 198.453 359.349C198.245 359.695 197.943 359.96 197.548 360.145C197.155 360.33 196.679 360.422 196.12 360.422H194.199V359.186H195.871C196.165 359.186 196.409 359.146 196.603 359.065C196.797 358.985 196.941 358.864 197.036 358.703C197.133 358.542 197.182 358.342 197.182 358.103C197.182 357.862 197.133 357.658 197.036 357.492C196.941 357.326 196.796 357.201 196.599 357.116C196.405 357.028 196.16 356.984 195.864 356.984H194.827V363H193.29ZM197.217 359.69L199.025 363H197.327L195.559 359.69H197.217ZM199.852 363V355.727H204.753V356.995H201.39V358.728H204.501V359.996H201.39V361.732H204.767V363H199.852ZM207.289 355.727L209.047 361.253H209.114L210.876 355.727H212.58L210.073 363H208.092L205.581 355.727H207.289ZM213.456 363V355.727H218.356V356.995H214.993V358.728H218.104V359.996H214.993V361.732H218.371V363H213.456ZM220.832 363H219.185L221.695 355.727H223.677L226.184 363H224.536L222.714 357.389H222.658L220.832 363ZM220.729 360.141H224.621V361.342H220.729V360.141ZM227.059 363V355.727H228.597V361.732H231.715V363H227.059Z" fill="#7C7C7C"/>
<path d="M97.3054 280V272.727H100.217C100.752 272.727 101.199 272.807 101.556 272.965C101.914 273.124 102.182 273.344 102.362 273.626C102.542 273.905 102.632 274.227 102.632 274.592C102.632 274.876 102.575 275.125 102.462 275.341C102.348 275.554 102.192 275.729 101.993 275.866C101.796 276.001 101.571 276.097 101.318 276.154V276.225C101.595 276.237 101.854 276.315 102.096 276.46C102.34 276.604 102.537 276.806 102.689 277.067C102.84 277.325 102.916 277.633 102.916 277.99C102.916 278.376 102.82 278.72 102.629 279.023C102.439 279.324 102.159 279.562 101.787 279.737C101.415 279.912 100.957 280 100.413 280H97.3054ZM98.843 278.743H100.097C100.525 278.743 100.838 278.661 101.034 278.498C101.231 278.332 101.329 278.112 101.329 277.837C101.329 277.636 101.28 277.459 101.183 277.305C101.086 277.151 100.948 277.03 100.768 276.942C100.59 276.855 100.378 276.811 100.132 276.811H98.843V278.743ZM98.843 275.771H99.9829C100.194 275.771 100.381 275.734 100.544 275.661C100.71 275.585 100.84 275.478 100.935 275.341C101.032 275.204 101.08 275.039 101.08 274.847C101.08 274.585 100.987 274.373 100.8 274.212C100.615 274.051 100.352 273.97 100.011 273.97H98.843V275.771ZM108.409 272.727H109.947V277.45C109.947 277.981 109.82 278.445 109.567 278.842C109.316 279.24 108.964 279.55 108.512 279.773C108.06 279.993 107.533 280.103 106.932 280.103C106.328 280.103 105.8 279.993 105.348 279.773C104.896 279.55 104.544 279.24 104.293 278.842C104.042 278.445 103.917 277.981 103.917 277.45V272.727H105.454V277.319C105.454 277.596 105.515 277.842 105.635 278.058C105.759 278.273 105.931 278.442 106.154 278.565C106.376 278.688 106.636 278.75 106.932 278.75C107.23 278.75 107.489 278.688 107.709 278.565C107.932 278.442 108.103 278.273 108.224 278.058C108.347 277.842 108.409 277.596 108.409 277.319V272.727ZM111.212 280V272.727H114.081C114.63 272.727 115.099 272.826 115.487 273.022C115.878 273.216 116.175 273.492 116.379 273.849C116.584 274.205 116.687 274.622 116.687 275.103C116.687 275.586 116.583 276.001 116.375 276.349C116.167 276.695 115.865 276.96 115.469 277.145C115.076 277.33 114.601 277.422 114.042 277.422H112.121V276.186H113.793C114.087 276.186 114.331 276.146 114.525 276.065C114.719 275.985 114.863 275.864 114.958 275.703C115.055 275.542 115.104 275.342 115.104 275.103C115.104 274.862 115.055 274.658 114.958 274.492C114.863 274.326 114.718 274.201 114.521 274.116C114.327 274.028 114.082 273.984 113.786 273.984H112.749V280H111.212ZM115.139 276.69L116.947 280H115.249L113.481 276.69H115.139ZM117.045 272.727H118.768L120.426 275.859H120.497L122.155 272.727H123.878L121.225 277.429V280H119.698V277.429L117.045 272.727Z" fill="#7C7C7C"/>
<path d="M97.3054 363V355.727H100.217C100.752 355.727 101.199 355.807 101.556 355.965C101.914 356.124 102.182 356.344 102.362 356.626C102.542 356.905 102.632 357.227 102.632 357.592C102.632 357.876 102.575 358.125 102.462 358.341C102.348 358.554 102.192 358.729 101.993 358.866C101.796 359.001 101.571 359.097 101.318 359.154V359.225C101.595 359.237 101.854 359.315 102.096 359.46C102.34 359.604 102.537 359.806 102.689 360.067C102.84 360.325 102.916 360.633 102.916 360.99C102.916 361.376 102.82 361.72 102.629 362.023C102.439 362.324 102.159 362.562 101.787 362.737C101.415 362.912 100.957 363 100.413 363H97.3054ZM98.843 361.743H100.097C100.525 361.743 100.838 361.661 101.034 361.498C101.231 361.332 101.329 361.112 101.329 360.837C101.329 360.636 101.28 360.459 101.183 360.305C101.086 360.151 100.948 360.03 100.768 359.942C100.59 359.855 100.378 359.811 100.132 359.811H98.843V361.743ZM98.843 358.771H99.9829C100.194 358.771 100.381 358.734 100.544 358.661C100.71 358.585 100.84 358.478 100.935 358.341C101.032 358.204 101.08 358.039 101.08 357.847C101.08 357.585 100.987 357.373 100.8 357.212C100.615 357.051 100.352 356.97 100.011 356.97H98.843V358.771ZM108.409 355.727H109.947V360.45C109.947 360.981 109.82 361.445 109.567 361.842C109.316 362.24 108.964 362.55 108.512 362.773C108.06 362.993 107.533 363.103 106.932 363.103C106.328 363.103 105.8 362.993 105.348 362.773C104.896 362.55 104.544 362.24 104.293 361.842C104.042 361.445 103.917 360.981 103.917 360.45V355.727H105.454V360.319C105.454 360.596 105.515 360.842 105.635 361.058C105.759 361.273 105.931 361.442 106.154 361.565C106.376 361.688 106.636 361.75 106.932 361.75C107.23 361.75 107.489 361.688 107.709 361.565C107.932 361.442 108.103 361.273 108.224 361.058C108.347 360.842 108.409 360.596 108.409 360.319V355.727ZM111.212 363V355.727H114.081C114.63 355.727 115.099 355.826 115.487 356.022C115.878 356.216 116.175 356.492 116.379 356.849C116.584 357.205 116.687 357.622 116.687 358.103C116.687 358.586 116.583 359.001 116.375 359.349C116.167 359.695 115.865 359.96 115.469 360.145C115.076 360.33 114.601 360.422 114.042 360.422H112.121V359.186H113.793C114.087 359.186 114.331 359.146 114.525 359.065C114.719 358.985 114.863 358.864 114.958 358.703C115.055 358.542 115.104 358.342 115.104 358.103C115.104 357.862 115.055 357.658 114.958 357.492C114.863 357.326 114.718 357.201 114.521 357.116C114.327 357.028 114.082 356.984 113.786 356.984H112.749V363H111.212ZM115.139 359.69L116.947 363H115.249L113.481 359.69H115.139ZM117.045 355.727H118.768L120.426 358.859H120.497L122.155 355.727H123.878L121.225 360.429V363H119.698V360.429L117.045 355.727Z" fill="#7C7C7C"/>
<path d="M121.865 310.727H123.761L125.764 315.614H125.849L127.852 310.727H129.748V318H128.257V313.266H128.196L126.314 317.964H125.298L123.416 313.249H123.356V318H121.865V310.727ZM132.268 318H130.621L133.131 310.727H135.113L137.62 318H135.972L134.151 312.389H134.094L132.268 318ZM132.165 315.141H136.058V316.342H132.165V315.141ZM142.275 312.819C142.246 312.532 142.124 312.31 141.909 312.151C141.693 311.993 141.401 311.913 141.032 311.913C140.781 311.913 140.569 311.949 140.396 312.02C140.223 312.089 140.091 312.184 139.998 312.308C139.908 312.431 139.863 312.57 139.863 312.727C139.859 312.857 139.886 312.97 139.945 313.067C140.007 313.165 140.091 313.249 140.197 313.32C140.304 313.388 140.427 313.449 140.567 313.501C140.706 313.55 140.855 313.593 141.014 313.629L141.667 313.785C141.985 313.856 142.276 313.951 142.541 314.069C142.806 314.187 143.036 314.333 143.23 314.506C143.424 314.679 143.574 314.882 143.681 315.116C143.79 315.351 143.845 315.62 143.848 315.923C143.845 316.368 143.732 316.754 143.507 317.08C143.284 317.405 142.962 317.657 142.541 317.837C142.122 318.014 141.617 318.103 141.025 318.103C140.438 318.103 139.926 318.013 139.491 317.833C139.057 317.653 138.719 317.387 138.475 317.034C138.233 316.679 138.107 316.24 138.095 315.717H139.583C139.599 315.96 139.669 316.164 139.792 316.327C139.918 316.488 140.085 316.61 140.293 316.693C140.504 316.774 140.742 316.814 141.007 316.814C141.267 316.814 141.493 316.776 141.685 316.7C141.879 316.625 142.03 316.519 142.136 316.384C142.243 316.249 142.296 316.094 142.296 315.919C142.296 315.756 142.247 315.618 142.15 315.507C142.056 315.396 141.916 315.301 141.731 315.223C141.549 315.145 141.325 315.074 141.06 315.01L140.268 314.811C139.655 314.662 139.171 314.429 138.816 314.112C138.461 313.794 138.284 313.367 138.287 312.83C138.284 312.389 138.402 312.004 138.638 311.675C138.877 311.346 139.205 311.089 139.622 310.905C140.039 310.72 140.512 310.628 141.042 310.628C141.582 310.628 142.053 310.72 142.456 310.905C142.861 311.089 143.175 311.346 143.4 311.675C143.625 312.004 143.741 312.386 143.748 312.819H142.275ZM144.882 318V310.727H146.42V313.934H146.516L149.133 310.727H150.976L148.277 313.984L151.008 318H149.168L147.176 315.01L146.42 315.933V318H144.882ZM151.777 318V310.727H156.677V311.995H153.314V313.728H156.425V314.996H153.314V316.732H156.691V318H151.777ZM160.478 318H157.9V310.727H160.499C161.231 310.727 161.86 310.873 162.388 311.164C162.916 311.453 163.322 311.868 163.606 312.411C163.893 312.953 164.036 313.601 164.036 314.357C164.036 315.114 163.893 315.765 163.606 316.31C163.322 316.854 162.914 317.272 162.381 317.563C161.851 317.854 161.216 318 160.478 318ZM159.437 316.683H160.414C160.868 316.683 161.251 316.602 161.561 316.441C161.873 316.278 162.108 316.026 162.264 315.685C162.423 315.341 162.502 314.899 162.502 314.357C162.502 313.819 162.423 313.38 162.264 313.039C162.108 312.698 161.875 312.447 161.564 312.286C161.254 312.125 160.872 312.045 160.417 312.045H159.437V316.683ZM167.49 318V310.727H172.305V311.995H169.027V313.728H171.985V314.996H169.027V318H167.49ZM173.339 318V310.727H176.208C176.758 310.727 177.226 310.826 177.615 311.022C178.005 311.216 178.302 311.492 178.506 311.849C178.712 312.205 178.815 312.622 178.815 313.103C178.815 313.586 178.711 314.001 178.502 314.349C178.294 314.695 177.992 314.96 177.597 315.145C177.204 315.33 176.728 315.422 176.169 315.422H174.248V314.186H175.921C176.214 314.186 176.458 314.146 176.652 314.065C176.846 313.985 176.991 313.864 177.086 313.703C177.183 313.542 177.231 313.342 177.231 313.103C177.231 312.862 177.183 312.658 177.086 312.492C176.991 312.326 176.845 312.201 176.649 312.116C176.455 312.028 176.21 311.984 175.914 311.984H174.877V318H173.339ZM177.267 314.69L179.074 318H177.377L175.608 314.69H177.267ZM179.902 318V310.727H184.802V311.995H181.439V313.728H184.55V314.996H181.439V316.732H184.816V318H179.902ZM188.77 315.472H190.077L190.733 316.317L191.38 317.07L192.598 318.597H191.163L190.325 317.567L189.895 316.956L188.77 315.472ZM192.708 314.364C192.708 315.157 192.558 315.831 192.257 316.388C191.959 316.944 191.551 317.369 191.035 317.663C190.522 317.954 189.944 318.099 189.302 318.099C188.656 318.099 188.076 317.953 187.562 317.659C187.049 317.366 186.643 316.941 186.344 316.384C186.046 315.828 185.897 315.154 185.897 314.364C185.897 313.571 186.046 312.896 186.344 312.339C186.643 311.783 187.049 311.359 187.562 311.068C188.076 310.775 188.656 310.628 189.302 310.628C189.944 310.628 190.522 310.775 191.035 311.068C191.551 311.359 191.959 311.783 192.257 312.339C192.558 312.896 192.708 313.571 192.708 314.364ZM191.149 314.364C191.149 313.85 191.072 313.417 190.918 313.064C190.767 312.711 190.552 312.444 190.275 312.261C189.998 312.079 189.674 311.988 189.302 311.988C188.931 311.988 188.606 312.079 188.329 312.261C188.052 312.444 187.837 312.711 187.683 313.064C187.532 313.417 187.456 313.85 187.456 314.364C187.456 314.877 187.532 315.311 187.683 315.663C187.837 316.016 188.052 316.284 188.329 316.466C188.606 316.648 188.931 316.739 189.302 316.739C189.674 316.739 189.998 316.648 190.275 316.466C190.552 316.284 190.767 316.016 190.918 315.663C191.072 315.311 191.149 314.877 191.149 314.364ZM197.792 312.819C197.764 312.532 197.642 312.31 197.426 312.151C197.211 311.993 196.919 311.913 196.549 311.913C196.298 311.913 196.087 311.949 195.914 312.02C195.741 312.089 195.608 312.184 195.516 312.308C195.426 312.431 195.381 312.57 195.381 312.727C195.376 312.857 195.404 312.97 195.463 313.067C195.524 313.165 195.608 313.249 195.715 313.32C195.821 313.388 195.944 313.449 196.084 313.501C196.224 313.55 196.373 313.593 196.532 313.629L197.185 313.785C197.502 313.856 197.793 313.951 198.059 314.069C198.324 314.187 198.553 314.333 198.748 314.506C198.942 314.679 199.092 314.882 199.199 315.116C199.307 315.351 199.363 315.62 199.365 315.923C199.363 316.368 199.249 316.754 199.025 317.08C198.802 317.405 198.48 317.657 198.059 317.837C197.64 318.014 197.134 318.103 196.542 318.103C195.955 318.103 195.444 318.013 195.008 317.833C194.575 317.653 194.236 317.387 193.993 317.034C193.751 316.679 193.624 316.24 193.613 315.717H195.1C195.117 315.96 195.187 316.164 195.31 316.327C195.435 316.488 195.602 316.61 195.811 316.693C196.021 316.774 196.259 316.814 196.525 316.814C196.785 316.814 197.011 316.776 197.203 316.7C197.397 316.625 197.547 316.519 197.654 316.384C197.76 316.249 197.814 316.094 197.814 315.919C197.814 315.756 197.765 315.618 197.668 315.507C197.573 315.396 197.434 315.301 197.249 315.223C197.067 315.145 196.843 315.074 196.578 315.01L195.786 314.811C195.173 314.662 194.689 314.429 194.333 314.112C193.978 313.794 193.802 313.367 193.804 312.83C193.802 312.389 193.919 312.004 194.156 311.675C194.395 311.346 194.723 311.089 195.14 310.905C195.556 310.72 196.03 310.628 196.56 310.628C197.1 310.628 197.571 310.72 197.973 310.905C198.378 311.089 198.693 311.346 198.918 311.675C199.143 312.004 199.259 312.386 199.266 312.819H197.792Z" fill="#434343"/>
<ellipse cx="161" cy="347.5" rx="39" ry="39.5" fill="url(#paint8_radial_201_2)" fill-opacity="0.6"/>
<path d="M181.436 346.792C181.436 358.007 172.488 367.085 161.468 367.085C150.447 367.085 141.5 358.007 141.5 346.792C141.5 335.578 150.447 326.5 161.468 326.5C172.488 326.5 181.436 335.578 181.436 346.792Z" fill="url(#paint9_radial_201_2)" stroke="#542155"/>
<path d="M108.796 438.995V437.727H114.769V438.995H112.542V445H111.022V438.995H108.796ZM115.752 445V437.727H117.29V440.728H120.411V437.727H121.945V445H120.411V441.996H117.29V445H115.752ZM123.213 445V437.727H126.082C126.632 437.727 127.1 437.826 127.489 438.022C127.879 438.216 128.176 438.492 128.38 438.849C128.586 439.205 128.689 439.622 128.689 440.103C128.689 440.586 128.585 441.001 128.377 441.349C128.168 441.695 127.866 441.96 127.471 442.145C127.078 442.33 126.602 442.422 126.043 442.422H124.122V441.186H125.795C126.088 441.186 126.332 441.146 126.526 441.065C126.72 440.985 126.865 440.864 126.96 440.703C127.057 440.542 127.105 440.342 127.105 440.103C127.105 439.862 127.057 439.658 126.96 439.492C126.865 439.326 126.719 439.201 126.523 439.116C126.329 439.028 126.084 438.984 125.788 438.984H124.751V445H123.213ZM127.141 441.69L128.948 445H127.251L125.482 441.69H127.141ZM129.776 445V437.727H134.676V438.995H131.313V440.728H134.424V441.996H131.313V443.732H134.69V445H129.776ZM139.844 439.819C139.816 439.532 139.694 439.31 139.478 439.151C139.263 438.993 138.97 438.913 138.601 438.913C138.35 438.913 138.138 438.949 137.965 439.02C137.793 439.089 137.66 439.184 137.568 439.308C137.478 439.431 137.433 439.57 137.433 439.727C137.428 439.857 137.455 439.97 137.514 440.067C137.576 440.165 137.66 440.249 137.767 440.32C137.873 440.388 137.996 440.449 138.136 440.501C138.276 440.55 138.425 440.593 138.583 440.629L139.237 440.785C139.554 440.856 139.845 440.951 140.11 441.069C140.376 441.187 140.605 441.333 140.799 441.506C140.993 441.679 141.144 441.882 141.25 442.116C141.359 442.351 141.415 442.62 141.417 442.923C141.415 443.368 141.301 443.754 141.076 444.08C140.854 444.405 140.532 444.657 140.11 444.837C139.691 445.014 139.186 445.103 138.594 445.103C138.007 445.103 137.496 445.013 137.06 444.833C136.627 444.653 136.288 444.387 136.044 444.034C135.803 443.679 135.676 443.24 135.664 442.717H137.152C137.169 442.96 137.239 443.164 137.362 443.327C137.487 443.488 137.654 443.61 137.862 443.693C138.073 443.774 138.311 443.814 138.576 443.814C138.837 443.814 139.063 443.776 139.255 443.7C139.449 443.625 139.599 443.519 139.706 443.384C139.812 443.249 139.865 443.094 139.865 442.919C139.865 442.756 139.817 442.618 139.72 442.507C139.625 442.396 139.485 442.301 139.301 442.223C139.118 442.145 138.895 442.074 138.63 442.01L137.838 441.811C137.224 441.662 136.74 441.429 136.385 441.112C136.03 440.794 135.854 440.367 135.856 439.83C135.854 439.389 135.971 439.004 136.208 438.675C136.447 438.346 136.775 438.089 137.191 437.905C137.608 437.72 138.081 437.628 138.612 437.628C139.152 437.628 139.623 437.72 140.025 437.905C140.43 438.089 140.745 438.346 140.97 438.675C141.195 439.004 141.311 439.386 141.318 439.819H139.844ZM142.451 445V437.727H143.989V440.728H147.111V437.727H148.645V445H147.111V441.996H143.989V445H142.451ZM156.596 441.364C156.596 442.157 156.445 442.831 156.145 443.388C155.846 443.944 155.439 444.369 154.923 444.663C154.409 444.954 153.832 445.099 153.19 445.099C152.544 445.099 151.964 444.953 151.45 444.659C150.936 444.366 150.53 443.941 150.232 443.384C149.934 442.828 149.785 442.154 149.785 441.364C149.785 440.571 149.934 439.896 150.232 439.339C150.53 438.783 150.936 438.359 151.45 438.068C151.964 437.775 152.544 437.628 153.19 437.628C153.832 437.628 154.409 437.775 154.923 438.068C155.439 438.359 155.846 438.783 156.145 439.339C156.445 439.896 156.596 440.571 156.596 441.364ZM155.037 441.364C155.037 440.85 154.96 440.417 154.806 440.064C154.654 439.711 154.44 439.444 154.163 439.261C153.886 439.079 153.562 438.988 153.19 438.988C152.818 438.988 152.494 439.079 152.217 439.261C151.94 439.444 151.725 439.711 151.571 440.064C151.419 440.417 151.343 440.85 151.343 441.364C151.343 441.877 151.419 442.311 151.571 442.663C151.725 443.016 151.94 443.284 152.217 443.466C152.494 443.648 152.818 443.739 153.19 443.739C153.562 443.739 153.886 443.648 154.163 443.466C154.44 443.284 154.654 443.016 154.806 442.663C154.96 442.311 155.037 441.877 155.037 441.364ZM157.735 445V437.727H159.272V443.732H162.39V445H157.735ZM165.987 445H163.408V437.727H166.008C166.739 437.727 167.369 437.873 167.897 438.164C168.425 438.453 168.831 438.868 169.115 439.411C169.402 439.953 169.545 440.601 169.545 441.357C169.545 442.114 169.402 442.765 169.115 443.31C168.831 443.854 168.423 444.272 167.89 444.563C167.36 444.854 166.725 445 165.987 445ZM164.946 443.683H165.923C166.377 443.683 166.76 443.602 167.07 443.441C167.382 443.278 167.617 443.026 167.773 442.685C167.931 442.341 168.011 441.899 168.011 441.357C168.011 440.819 167.931 440.38 167.773 440.039C167.617 439.698 167.383 439.447 167.073 439.286C166.763 439.125 166.381 439.045 165.926 439.045H164.946V443.683ZM174.536 437.727V445H172.998V437.727H174.536ZM181.884 437.727V445H180.556L177.392 440.423H177.339V445H175.801V437.727H177.15L180.29 442.301H180.354V437.727H181.884ZM188.214 442.472H189.521L190.178 443.317L190.824 444.07L192.042 445.597H190.608L189.769 444.567L189.34 443.956L188.214 442.472ZM192.152 441.364C192.152 442.157 192.002 442.831 191.701 443.388C191.403 443.944 190.996 444.369 190.48 444.663C189.966 444.954 189.388 445.099 188.747 445.099C188.1 445.099 187.52 444.953 187.007 444.659C186.493 444.366 186.087 443.941 185.789 443.384C185.49 442.828 185.341 442.154 185.341 441.364C185.341 440.571 185.49 439.896 185.789 439.339C186.087 438.783 186.493 438.359 187.007 438.068C187.52 437.775 188.1 437.628 188.747 437.628C189.388 437.628 189.966 437.775 190.48 438.068C190.996 438.359 191.403 438.783 191.701 439.339C192.002 439.896 192.152 440.571 192.152 441.364ZM190.593 441.364C190.593 440.85 190.516 440.417 190.362 440.064C190.211 439.711 189.997 439.444 189.72 439.261C189.443 439.079 189.118 438.988 188.747 438.988C188.375 438.988 188.051 439.079 187.774 439.261C187.497 439.444 187.281 439.711 187.127 440.064C186.976 440.417 186.9 440.85 186.9 441.364C186.9 441.877 186.976 442.311 187.127 442.663C187.281 443.016 187.497 443.284 187.774 443.466C188.051 443.648 188.375 443.739 188.747 443.739C189.118 443.739 189.443 443.648 189.72 443.466C189.997 443.284 190.211 443.016 190.362 442.663C190.516 442.311 190.593 441.877 190.593 441.364ZM197.783 437.727H199.321V442.45C199.321 442.981 199.194 443.445 198.941 443.842C198.69 444.24 198.339 444.55 197.886 444.773C197.434 444.993 196.908 445.103 196.306 445.103C195.703 445.103 195.175 444.993 194.722 444.773C194.27 444.55 193.919 444.24 193.668 443.842C193.417 443.445 193.291 442.981 193.291 442.45V437.727H194.829V442.319C194.829 442.596 194.889 442.842 195.01 443.058C195.133 443.273 195.306 443.442 195.528 443.565C195.751 443.688 196.01 443.75 196.306 443.75C196.604 443.75 196.864 443.688 197.084 443.565C197.306 443.442 197.478 443.273 197.599 443.058C197.722 442.842 197.783 442.596 197.783 442.319V437.727ZM202.124 437.727V445H200.586V437.727H202.124ZM203.389 445V437.727H208.29V438.995H204.927V440.728H208.037V441.996H204.927V443.732H208.304V445H203.389ZM209.235 438.995V437.727H215.208V438.995H212.981V445H211.462V438.995H209.235Z" fill="#434343"/>
<path d="M131.126 396.819C131.098 396.532 130.976 396.31 130.76 396.151C130.545 395.993 130.253 395.913 129.883 395.913C129.632 395.913 129.421 395.949 129.248 396.02C129.075 396.089 128.942 396.184 128.85 396.308C128.76 396.431 128.715 396.57 128.715 396.727C128.71 396.857 128.738 396.97 128.797 397.067C128.858 397.165 128.942 397.249 129.049 397.32C129.155 397.388 129.278 397.449 129.418 397.501C129.558 397.55 129.707 397.593 129.866 397.629L130.519 397.785C130.836 397.856 131.127 397.951 131.393 398.069C131.658 398.187 131.887 398.333 132.081 398.506C132.276 398.679 132.426 398.882 132.532 399.116C132.641 399.351 132.697 399.62 132.699 399.923C132.697 400.368 132.583 400.754 132.358 401.08C132.136 401.405 131.814 401.657 131.393 401.837C130.974 402.014 130.468 402.103 129.876 402.103C129.289 402.103 128.778 402.013 128.342 401.833C127.909 401.653 127.57 401.387 127.327 401.034C127.085 400.679 126.958 400.24 126.947 399.717H128.434C128.451 399.96 128.521 400.164 128.644 400.327C128.769 400.488 128.936 400.61 129.145 400.693C129.355 400.774 129.593 400.814 129.858 400.814C130.119 400.814 130.345 400.776 130.537 400.7C130.731 400.625 130.881 400.519 130.988 400.384C131.094 400.249 131.148 400.094 131.148 399.919C131.148 399.756 131.099 399.618 131.002 399.507C130.907 399.396 130.768 399.301 130.583 399.223C130.401 399.145 130.177 399.074 129.912 399.01L129.12 398.811C128.507 398.662 128.023 398.429 127.667 398.112C127.312 397.794 127.136 397.367 127.138 396.83C127.136 396.389 127.253 396.004 127.49 395.675C127.729 395.346 128.057 395.089 128.474 394.905C128.89 394.72 129.364 394.628 129.894 394.628C130.434 394.628 130.905 394.72 131.307 394.905C131.712 395.089 132.027 395.346 132.252 395.675C132.477 396.004 132.593 396.386 132.6 396.819H131.126ZM133.457 395.995V394.727H139.43V395.995H137.203V402H135.683V395.995H133.457ZM140.413 402V394.727H145.314V395.995H141.951V397.728H145.062V398.996H141.951V400.732H145.328V402H140.413ZM146.536 402V394.727H149.406C149.955 394.727 150.424 394.826 150.812 395.022C151.203 395.216 151.5 395.492 151.703 395.849C151.909 396.205 152.012 396.622 152.012 397.103C152.012 397.586 151.908 398.001 151.7 398.349C151.491 398.695 151.19 398.96 150.794 399.145C150.401 399.33 149.925 399.422 149.367 399.422H147.445V398.186H149.118C149.412 398.186 149.655 398.146 149.85 398.065C150.044 397.985 150.188 397.864 150.283 397.703C150.38 397.542 150.428 397.342 150.428 397.103C150.428 396.862 150.38 396.658 150.283 396.492C150.188 396.326 150.043 396.201 149.846 396.116C149.652 396.028 149.407 395.984 149.111 395.984H148.074V402H146.536ZM150.464 398.69L152.271 402H150.574L148.806 398.69H150.464ZM153.099 402V394.727H157.999V395.995H154.637V397.728H157.747V398.996H154.637V400.732H158.014V402H153.099ZM165.905 398.364C165.905 399.157 165.755 399.831 165.454 400.388C165.156 400.944 164.749 401.369 164.233 401.663C163.719 401.954 163.141 402.099 162.5 402.099C161.853 402.099 161.273 401.953 160.76 401.659C160.246 401.366 159.84 400.941 159.542 400.384C159.243 399.828 159.094 399.154 159.094 398.364C159.094 397.571 159.243 396.896 159.542 396.339C159.84 395.783 160.246 395.359 160.76 395.068C161.273 394.775 161.853 394.628 162.5 394.628C163.141 394.628 163.719 394.775 164.233 395.068C164.749 395.359 165.156 395.783 165.454 396.339C165.755 396.896 165.905 397.571 165.905 398.364ZM164.346 398.364C164.346 397.85 164.269 397.417 164.115 397.064C163.964 396.711 163.75 396.444 163.473 396.261C163.196 396.079 162.871 395.988 162.5 395.988C162.128 395.988 161.804 396.079 161.527 396.261C161.25 396.444 161.034 396.711 160.88 397.064C160.729 397.417 160.653 397.85 160.653 398.364C160.653 398.877 160.729 399.311 160.88 399.663C161.034 400.016 161.25 400.284 161.527 400.466C161.804 400.648 162.128 400.739 162.5 400.739C162.871 400.739 163.196 400.648 163.473 400.466C163.75 400.284 163.964 400.016 164.115 399.663C164.269 399.311 164.346 398.877 164.346 398.364ZM169.359 402V394.727H170.896V400.732H174.014V402H169.359ZM176.57 394.727V402H175.032V394.727H176.57ZM183.918 394.727V402H182.59L179.426 397.423H179.373V402H177.835V394.727H179.185L182.324 399.301H182.388V394.727H183.918ZM185.189 402V394.727H186.726V397.934H186.822L189.439 394.727H191.282L188.584 397.984L191.314 402H189.475L187.483 399.01L186.726 399.933V402H185.189Z" fill="#434343"/>
<ellipse cx="161" cy="160.5" rx="53" ry="53.5" fill="url(#paint10_radial_201_2)" fill-opacity="0.6"/>
<path d="M192.02 159.518C192.02 176.939 178.121 191.035 161.01 191.035C143.898 191.035 130 176.939 130 159.518C130 142.096 143.898 128 161.01 128C178.121 128 192.02 142.096 192.02 159.518Z" fill="url(#paint11_radial_201_2)" stroke="#452B45" stroke-width="2"/>
<path d="M114.344 113.819C114.316 113.532 114.194 113.31 113.978 113.151C113.763 112.993 113.47 112.913 113.101 112.913C112.85 112.913 112.638 112.949 112.465 113.02C112.293 113.089 112.16 113.184 112.068 113.308C111.978 113.431 111.933 113.57 111.933 113.727C111.928 113.857 111.955 113.97 112.014 114.067C112.076 114.165 112.16 114.249 112.267 114.32C112.373 114.388 112.496 114.449 112.636 114.501C112.776 114.55 112.925 114.593 113.083 114.629L113.737 114.785C114.054 114.856 114.345 114.951 114.61 115.069C114.876 115.187 115.105 115.333 115.299 115.506C115.493 115.679 115.644 115.882 115.75 116.116C115.859 116.351 115.915 116.62 115.917 116.923C115.915 117.368 115.801 117.754 115.576 118.08C115.354 118.405 115.032 118.657 114.61 118.837C114.191 119.014 113.686 119.103 113.094 119.103C112.507 119.103 111.996 119.013 111.56 118.833C111.127 118.653 110.788 118.387 110.544 118.034C110.303 117.679 110.176 117.24 110.164 116.717H111.652C111.669 116.96 111.739 117.164 111.862 117.327C111.987 117.488 112.154 117.61 112.362 117.693C112.573 117.774 112.811 117.814 113.076 117.814C113.337 117.814 113.563 117.776 113.755 117.7C113.949 117.625 114.099 117.519 114.206 117.384C114.312 117.249 114.365 117.094 114.365 116.919C114.365 116.756 114.317 116.618 114.22 116.507C114.125 116.396 113.985 116.301 113.801 116.223C113.618 116.145 113.395 116.074 113.13 116.01L112.338 115.811C111.724 115.662 111.24 115.429 110.885 115.112C110.53 114.794 110.354 114.367 110.356 113.83C110.354 113.389 110.471 113.004 110.708 112.675C110.947 112.346 111.275 112.089 111.691 111.905C112.108 111.72 112.581 111.628 113.112 111.628C113.652 111.628 114.123 111.72 114.525 111.905C114.93 112.089 115.245 112.346 115.47 112.675C115.695 113.004 115.811 113.386 115.818 113.819H114.344ZM118.489 111.727V119H116.951V111.727H118.489ZM122.332 119H119.754V111.727H122.354C123.085 111.727 123.715 111.873 124.243 112.164C124.771 112.453 125.177 112.868 125.461 113.411C125.747 113.953 125.891 114.601 125.891 115.357C125.891 116.114 125.747 116.765 125.461 117.31C125.177 117.854 124.768 118.272 124.236 118.563C123.705 118.854 123.071 119 122.332 119ZM121.292 117.683H122.268C122.723 117.683 123.105 117.602 123.415 117.441C123.728 117.278 123.962 117.026 124.119 116.685C124.277 116.341 124.356 115.899 124.356 115.357C124.356 114.819 124.277 114.38 124.119 114.039C123.962 113.698 123.729 113.447 123.419 113.286C123.109 113.125 122.726 113.045 122.272 113.045H121.292V117.683ZM127.03 119V111.727H131.93V112.995H128.567V114.728H131.678V115.996H128.567V117.732H131.944V119H127.03ZM139.57 114.273H138.014C137.986 114.072 137.928 113.893 137.84 113.737C137.753 113.579 137.64 113.444 137.503 113.332C137.365 113.221 137.207 113.136 137.027 113.077C136.849 113.018 136.656 112.988 136.448 112.988C136.072 112.988 135.744 113.081 135.464 113.268C135.185 113.453 134.968 113.723 134.815 114.078C134.661 114.431 134.584 114.859 134.584 115.364C134.584 115.882 134.661 116.318 134.815 116.67C134.971 117.023 135.189 117.29 135.468 117.469C135.747 117.649 136.07 117.739 136.437 117.739C136.643 117.739 136.834 117.712 137.009 117.658C137.187 117.603 137.344 117.524 137.481 117.42C137.619 117.313 137.732 117.184 137.822 117.033C137.915 116.881 137.979 116.708 138.014 116.514L139.57 116.521C139.529 116.855 139.429 117.177 139.268 117.487C139.109 117.795 138.895 118.071 138.625 118.315C138.357 118.556 138.038 118.748 137.666 118.89C137.297 119.03 136.879 119.099 136.413 119.099C135.764 119.099 135.184 118.953 134.672 118.659C134.164 118.366 133.761 117.941 133.465 117.384C133.172 116.828 133.025 116.154 133.025 115.364C133.025 114.571 133.174 113.896 133.472 113.339C133.771 112.783 134.175 112.359 134.687 112.068C135.198 111.775 135.773 111.628 136.413 111.628C136.834 111.628 137.225 111.687 137.584 111.805C137.947 111.924 138.267 112.097 138.547 112.324C138.826 112.549 139.053 112.825 139.229 113.151C139.406 113.478 139.52 113.852 139.57 114.273ZM140.672 119V111.727H142.21V114.728H145.331V111.727H146.865V119H145.331V115.996H142.21V119H140.672ZM149.387 119H147.739L150.25 111.727H152.231L154.738 119H153.09L151.269 113.389H151.212L149.387 119ZM149.284 116.141H153.176V117.342H149.284V116.141ZM157.151 111.727V119H155.614V111.727H157.151ZM164.499 111.727V119H163.171L160.007 114.423H159.954V119H158.416V111.727H159.766L162.905 116.301H162.969V111.727H164.499ZM169.338 119H167.69L170.201 111.727H172.182L174.689 119H173.042L171.22 113.389H171.163L169.338 119ZM169.235 116.141H173.127V117.342H169.235V116.141ZM175.565 111.727H177.461L179.464 116.614H179.549L181.552 111.727H183.448V119H181.957V114.266H181.896L180.014 118.964H178.999L177.117 114.249H177.056V119H175.565V111.727ZM191.398 115.364C191.398 116.157 191.248 116.831 190.947 117.388C190.649 117.944 190.242 118.369 189.726 118.663C189.212 118.954 188.634 119.099 187.993 119.099C187.347 119.099 186.766 118.953 186.253 118.659C185.739 118.366 185.333 117.941 185.035 117.384C184.736 116.828 184.587 116.154 184.587 115.364C184.587 114.571 184.736 113.896 185.035 113.339C185.333 112.783 185.739 112.359 186.253 112.068C186.766 111.775 187.347 111.628 187.993 111.628C188.634 111.628 189.212 111.775 189.726 112.068C190.242 112.359 190.649 112.783 190.947 113.339C191.248 113.896 191.398 114.571 191.398 115.364ZM189.839 115.364C189.839 114.85 189.762 114.417 189.609 114.064C189.457 113.711 189.243 113.444 188.966 113.261C188.689 113.079 188.364 112.988 187.993 112.988C187.621 112.988 187.297 113.079 187.02 113.261C186.743 113.444 186.527 113.711 186.373 114.064C186.222 114.417 186.146 114.85 186.146 115.364C186.146 115.877 186.222 116.311 186.373 116.663C186.527 117.016 186.743 117.284 187.02 117.466C187.297 117.648 187.621 117.739 187.993 117.739C188.364 117.739 188.689 117.648 188.966 117.466C189.243 117.284 189.457 117.016 189.609 116.663C189.762 116.311 189.839 115.877 189.839 115.364ZM197.03 111.727H198.567V116.45C198.567 116.981 198.441 117.445 198.187 117.842C197.936 118.24 197.585 118.55 197.133 118.773C196.68 118.993 196.154 119.103 195.552 119.103C194.949 119.103 194.421 118.993 193.968 118.773C193.516 118.55 193.165 118.24 192.914 117.842C192.663 117.445 192.537 116.981 192.537 116.45V111.727H194.075V116.319C194.075 116.596 194.135 116.842 194.256 117.058C194.379 117.273 194.552 117.442 194.775 117.565C194.997 117.688 195.256 117.75 195.552 117.75C195.851 117.75 196.11 117.688 196.33 117.565C196.553 117.442 196.724 117.273 196.845 117.058C196.968 116.842 197.03 116.596 197.03 116.319V111.727ZM205.915 111.727V119H204.587L201.423 114.423H201.37V119H199.832V111.727H201.182L204.321 116.301H204.385V111.727H205.915ZM206.909 112.995V111.727H212.882V112.995H210.655V119H209.135V112.995H206.909Z" fill="#434343"/>
<rect x="87" y="30" width="149" height="59" rx="6" fill="#F9F9F9"/>
<path d="M108.86 73.31C108.86 73.7967 108.967 74.1967 109.18 74.51C109.393 74.8167 109.743 74.97 110.23 74.97C110.43 74.97 110.637 74.9433 110.85 74.89C111.07 74.8367 111.34 74.7467 111.66 74.62L112.03 75.66C111.67 75.82 111.337 75.9333 111.03 76C110.73 76.0667 110.44 76.1 110.16 76.1C109.6 76.1 109.13 75.98 108.75 75.74C108.377 75.5 108.097 75.17 107.91 74.75C107.723 74.33 107.63 73.85 107.63 73.31V71.88C107.63 71.34 107.723 70.86 107.91 70.44C108.097 70.02 108.377 69.6933 108.75 69.46C109.13 69.22 109.6 69.1 110.16 69.1C110.433 69.1 110.717 69.1333 111.01 69.2C111.303 69.26 111.623 69.3667 111.97 69.52L111.6 70.58C111.293 70.4533 111.037 70.3633 110.83 70.31C110.623 70.2567 110.423 70.23 110.23 70.23C109.743 70.23 109.393 70.3833 109.18 70.69C108.967 70.9967 108.86 71.3933 108.86 71.88V73.31ZM115.035 76.5C114.815 77.1133 114.535 77.5533 114.195 77.82C113.855 78.0933 113.389 78.23 112.795 78.23V77.08C113.149 77.0667 113.425 76.9867 113.625 76.84C113.832 76.7 113.985 76.5033 114.085 76.25L114.175 76.02L112.365 70.93H113.505L114.375 73.46L114.715 74.53L115.045 73.46L115.875 70.93H117.015L115.035 76.5ZM120.455 71.9C120.289 71.9 120.099 71.94 119.885 72.02C119.672 72.1 119.419 72.2567 119.125 72.49V76H117.975V70.93H119.065V71.61C119.379 71.3367 119.675 71.14 119.955 71.02C120.235 70.8933 120.519 70.83 120.805 70.83C121.292 70.83 121.662 70.9867 121.915 71.3C122.169 71.6067 122.295 72.04 122.295 72.6V76H121.145V72.74C121.145 72.18 120.915 71.9 120.455 71.9ZM127.665 75.71C127.319 75.85 126.992 75.95 126.685 76.01C126.379 76.07 126.089 76.1 125.815 76.1C125.062 76.1 124.492 75.8867 124.105 75.46C123.719 75.0333 123.525 74.4667 123.525 73.76V73.16C123.525 72.6867 123.612 72.2767 123.785 71.93C123.959 71.5833 124.205 71.3133 124.525 71.12C124.845 70.9267 125.222 70.83 125.655 70.83C126.009 70.83 126.339 70.9033 126.645 71.05C126.959 71.19 127.212 71.4133 127.405 71.72C127.605 72.02 127.705 72.4067 127.705 72.88C127.705 73.02 127.695 73.17 127.675 73.33C127.655 73.4833 127.622 73.6467 127.575 73.82H124.635C124.649 74.2333 124.752 74.5433 124.945 74.75C125.139 74.9567 125.449 75.06 125.875 75.06C126.102 75.06 126.335 75.0333 126.575 74.98C126.822 74.9267 127.075 74.8467 127.335 74.74L127.665 75.71ZM125.655 71.8C125.349 71.8 125.109 71.9 124.935 72.1C124.769 72.2933 124.672 72.5733 124.645 72.94H126.565C126.572 72.9067 126.575 72.8767 126.575 72.85C126.575 72.8167 126.575 72.7867 126.575 72.76C126.575 72.44 126.485 72.2 126.305 72.04C126.125 71.88 125.909 71.8 125.655 71.8ZM130.18 72.49V76H129.03V70.93H130.12V71.6C130.434 71.3267 130.724 71.13 130.99 71.01C131.257 70.89 131.53 70.83 131.81 70.83C132.43 70.83 132.854 71.1033 133.08 71.65C133.414 71.3567 133.724 71.1467 134.01 71.02C134.297 70.8933 134.587 70.83 134.88 70.83C135.347 70.83 135.704 70.9867 135.95 71.3C136.197 71.6067 136.32 72.04 136.32 72.6V76H135.17V72.74C135.17 72.18 134.957 71.9 134.53 71.9C134.364 71.9 134.18 71.94 133.98 72.02C133.78 72.1 133.537 72.2567 133.25 72.49V76H132.1V72.74C132.1 72.18 131.887 71.9 131.46 71.9C131.294 71.9 131.11 71.94 130.91 72.02C130.71 72.1 130.467 72.2567 130.18 72.49ZM139.019 69.97H137.809V68.78H139.019V69.97ZM138.989 76H137.839V70.93H138.989V76ZM141.993 75.1C142.24 75.1 142.443 75.06 142.603 74.98C142.763 74.8933 142.843 74.7667 142.843 74.6C142.843 74.4533 142.79 74.34 142.683 74.26C142.583 74.1733 142.4 74.0967 142.133 74.03L141.563 73.88C141.123 73.7667 140.796 73.5767 140.583 73.31C140.376 73.0433 140.273 72.7267 140.273 72.36C140.273 71.9267 140.423 71.5633 140.723 71.27C141.023 70.9767 141.486 70.83 142.113 70.83C142.366 70.83 142.633 70.86 142.913 70.92C143.193 70.98 143.486 71.0767 143.793 71.21L143.463 72.19C143.183 72.0567 142.93 71.9633 142.703 71.91C142.476 71.8567 142.276 71.83 142.103 71.83C141.63 71.83 141.393 71.99 141.393 72.31C141.393 72.4367 141.433 72.5367 141.513 72.61C141.6 72.6833 141.756 72.75 141.983 72.81L142.553 72.96C143.04 73.0867 143.393 73.28 143.613 73.54C143.84 73.8 143.953 74.1267 143.953 74.52C143.953 74.9867 143.793 75.3667 143.473 75.66C143.16 75.9533 142.663 76.1 141.983 76.1C141.403 76.1 140.793 75.9667 140.153 75.7L140.463 74.75C140.776 74.8767 141.06 74.9667 141.313 75.02C141.566 75.0733 141.793 75.1 141.993 75.1ZM148.184 75.83C148.01 75.91 147.81 75.9733 147.584 76.02C147.357 76.0733 147.127 76.1 146.894 76.1C146.507 76.1 146.197 76.02 145.964 75.86C145.73 75.7 145.56 75.4767 145.454 75.19C145.354 74.9033 145.304 74.5767 145.304 74.21V71.93H144.484V70.93H145.304V69.61H146.454V70.93H148.034V71.93H146.454V74.21C146.454 74.5167 146.51 74.73 146.624 74.85C146.744 74.9633 146.914 75.02 147.134 75.02C147.24 75.02 147.354 75.01 147.474 74.99C147.6 74.9633 147.74 74.92 147.894 74.86L148.184 75.83ZM150.288 69.97H149.078V68.78H150.288V69.97ZM150.258 76H149.108V70.93H150.258V76ZM152.723 73.17V73.76C152.723 74.1867 152.799 74.5067 152.953 74.72C153.106 74.9333 153.353 75.04 153.693 75.04C153.859 75.04 154.046 75.02 154.253 74.98C154.466 74.9333 154.696 74.8633 154.943 74.77L155.273 75.74C154.973 75.86 154.689 75.95 154.423 76.01C154.156 76.07 153.893 76.1 153.633 76.1C152.966 76.1 152.456 75.8867 152.103 75.46C151.749 75.0333 151.573 74.4667 151.573 73.76V73.17C151.573 72.4567 151.749 71.89 152.103 71.47C152.456 71.0433 152.966 70.83 153.633 70.83C153.886 70.83 154.143 70.86 154.403 70.92C154.663 70.98 154.936 71.0667 155.223 71.18L154.893 72.17C154.413 71.9833 154.013 71.89 153.693 71.89C153.353 71.89 153.106 71.9967 152.953 72.21C152.799 72.4167 152.723 72.7367 152.723 73.17ZM157.745 75.1C157.992 75.1 158.195 75.06 158.355 74.98C158.515 74.8933 158.595 74.7667 158.595 74.6C158.595 74.4533 158.542 74.34 158.435 74.26C158.335 74.1733 158.152 74.0967 157.885 74.03L157.315 73.88C156.875 73.7667 156.548 73.5767 156.335 73.31C156.128 73.0433 156.025 72.7267 156.025 72.36C156.025 71.9267 156.175 71.5633 156.475 71.27C156.775 70.9767 157.238 70.83 157.865 70.83C158.118 70.83 158.385 70.86 158.665 70.92C158.945 70.98 159.238 71.0767 159.545 71.21L159.215 72.19C158.935 72.0567 158.682 71.9633 158.455 71.91C158.228 71.8567 158.028 71.83 157.855 71.83C157.382 71.83 157.145 71.99 157.145 72.31C157.145 72.4367 157.185 72.5367 157.265 72.61C157.352 72.6833 157.508 72.75 157.735 72.81L158.305 72.96C158.792 73.0867 159.145 73.28 159.365 73.54C159.592 73.8 159.705 74.1267 159.705 74.52C159.705 74.9867 159.545 75.3667 159.225 75.66C158.912 75.9533 158.415 76.1 157.735 76.1C157.155 76.1 156.545 75.9667 155.905 75.7L156.215 74.75C156.528 74.8767 156.812 74.9667 157.065 75.02C157.318 75.0733 157.545 75.1 157.745 75.1Z" fill="#6F6F6F"/>
<path d="M202.7 69.2L200.54 76H199.31L197.14 69.2H198.46L199.49 72.62L199.96 74.38L200.46 72.61L201.48 69.2H202.7ZM204.942 70.17L206.672 69.2H207.672V76H206.492V70.52L205.472 71.08L204.942 70.17ZM210.076 76H208.866V74.81H210.076V76ZM215.878 71.88V73.31C215.878 74.1767 215.674 74.86 215.268 75.36C214.861 75.8533 214.264 76.1 213.478 76.1C212.691 76.1 212.094 75.8533 211.688 75.36C211.281 74.86 211.078 74.1767 211.078 73.31V71.88C211.078 71.0133 211.281 70.3333 211.688 69.84C212.094 69.3467 212.691 69.1 213.478 69.1C214.264 69.1 214.861 69.3467 215.268 69.84C215.674 70.3333 215.878 71.0133 215.878 71.88ZM214.668 71.88C214.668 70.7667 214.271 70.21 213.478 70.21C213.071 70.21 212.771 70.35 212.578 70.63C212.384 70.91 212.288 71.3267 212.288 71.88V73.31C212.288 73.8633 212.384 74.2833 212.578 74.57C212.771 74.85 213.071 74.99 213.478 74.99C214.271 74.99 214.668 74.43 214.668 73.31V71.88Z" fill="#6F6F6F"/>
<path d="M100.312 45.44V42.68H112.312V45.44H107.752V59H104.872V45.44H100.312ZM120.481 49.16C120.081 49.16 119.625 49.256 119.113 49.448C118.601 49.64 117.993 50.016 117.289 50.576V59H114.529V41.24H117.289V48.344C118.025 47.72 118.713 47.272 119.353 47C119.993 46.728 120.649 46.592 121.321 46.592C122.489 46.592 123.377 46.968 123.985 47.72C124.593 48.456 124.897 49.496 124.897 50.84V59H122.137V51.176C122.137 49.832 121.585 49.16 120.481 49.16ZM137.784 58.304C136.952 58.64 136.168 58.88 135.432 59.024C134.696 59.168 134 59.24 133.344 59.24C131.536 59.24 130.168 58.728 129.24 57.704C128.312 56.68 127.848 55.32 127.848 53.624V52.184C127.848 51.048 128.056 50.064 128.472 49.232C128.888 48.4 129.48 47.752 130.248 47.288C131.016 46.824 131.92 46.592 132.96 46.592C133.808 46.592 134.6 46.768 135.336 47.12C136.088 47.456 136.696 47.992 137.16 48.728C137.64 49.448 137.88 50.376 137.88 51.512C137.88 51.848 137.856 52.208 137.808 52.592C137.76 52.96 137.68 53.352 137.568 53.768H130.512C130.544 54.76 130.792 55.504 131.256 56C131.72 56.496 132.464 56.744 133.488 56.744C134.032 56.744 134.592 56.68 135.168 56.552C135.76 56.424 136.368 56.232 136.992 55.976L137.784 58.304ZM132.96 48.92C132.224 48.92 131.648 49.16 131.232 49.64C130.832 50.104 130.6 50.776 130.536 51.656H135.144C135.16 51.576 135.168 51.504 135.168 51.44C135.168 51.36 135.168 51.288 135.168 51.224C135.168 50.456 134.952 49.88 134.52 49.496C134.088 49.112 133.568 48.92 132.96 48.92ZM149.369 42.68L153.929 53.84L158.465 42.68H161.609V59H158.849V52.76L159.209 47.048L155.153 57.08H152.585L148.625 47.024L148.985 52.76V59H146.225V42.68H149.369ZM174.979 59.12C174.163 59.12 173.507 58.952 173.011 58.616C172.531 58.28 172.179 57.864 171.955 57.368C171.267 58.008 170.603 58.48 169.963 58.784C169.323 59.088 168.635 59.24 167.899 59.24C166.827 59.24 166.035 58.896 165.523 58.208C165.027 57.52 164.779 56.648 164.779 55.592C164.779 54.888 164.907 54.272 165.163 53.744C165.435 53.2 165.875 52.776 166.483 52.472C167.091 52.168 167.923 52.016 168.979 52.016C169.395 52.016 169.827 52.048 170.275 52.112C170.723 52.16 171.171 52.224 171.619 52.304V50.888C171.619 50.216 171.435 49.76 171.067 49.52C170.699 49.264 170.203 49.136 169.579 49.136C169.099 49.136 168.571 49.2 167.995 49.328C167.435 49.456 166.827 49.656 166.171 49.928L165.379 47.576C166.995 46.92 168.459 46.592 169.771 46.592C170.955 46.592 171.867 46.792 172.507 47.192C173.163 47.592 173.619 48.12 173.875 48.776C174.131 49.432 174.259 50.136 174.259 50.888V55.568C174.259 55.808 174.323 56.04 174.451 56.264C174.595 56.472 174.867 56.576 175.267 56.576H175.531V59.12H174.979ZM167.443 55.544C167.443 55.976 167.539 56.32 167.731 56.576C167.923 56.816 168.203 56.936 168.571 56.936C168.939 56.936 169.355 56.84 169.819 56.648C170.283 56.456 170.883 56.008 171.619 55.304V54.272C170.787 54.128 169.971 54.056 169.171 54.056C168.547 54.056 168.099 54.184 167.827 54.44C167.571 54.696 167.443 55.064 167.443 55.544ZM181.335 56.84C181.927 56.84 182.415 56.744 182.799 56.552C183.183 56.344 183.375 56.04 183.375 55.64C183.375 55.288 183.247 55.016 182.991 54.824C182.751 54.616 182.311 54.432 181.671 54.272L180.303 53.912C179.247 53.64 178.463 53.184 177.951 52.544C177.455 51.904 177.207 51.144 177.207 50.264C177.207 49.224 177.567 48.352 178.287 47.648C179.007 46.944 180.119 46.592 181.623 46.592C182.231 46.592 182.871 46.664 183.543 46.808C184.215 46.952 184.919 47.184 185.655 47.504L184.863 49.856C184.191 49.536 183.583 49.312 183.039 49.184C182.495 49.056 182.015 48.992 181.599 48.992C180.463 48.992 179.895 49.376 179.895 50.144C179.895 50.448 179.991 50.688 180.183 50.864C180.391 51.04 180.767 51.2 181.311 51.344L182.679 51.704C183.847 52.008 184.695 52.472 185.223 53.096C185.767 53.72 186.039 54.504 186.039 55.448C186.039 56.568 185.655 57.48 184.887 58.184C184.135 58.888 182.943 59.24 181.311 59.24C179.919 59.24 178.455 58.92 176.919 58.28L177.663 56C178.415 56.304 179.095 56.52 179.703 56.648C180.311 56.776 180.855 56.84 181.335 56.84ZM196.145 59L193.145 53.936C192.665 54.416 192.161 54.896 191.633 55.376V59H188.873V41.24H191.633V52.328C192.545 51.4 193.329 50.512 193.985 49.664C194.657 48.8 195.273 47.856 195.833 46.832H199.001C198.473 47.792 197.897 48.704 197.273 49.568C196.649 50.432 195.961 51.304 195.209 52.184L199.481 59H196.145ZM210.534 58.304C209.702 58.64 208.918 58.88 208.182 59.024C207.446 59.168 206.75 59.24 206.094 59.24C204.286 59.24 202.918 58.728 201.99 57.704C201.062 56.68 200.598 55.32 200.598 53.624V52.184C200.598 51.048 200.806 50.064 201.222 49.232C201.638 48.4 202.23 47.752 202.998 47.288C203.766 46.824 204.67 46.592 205.71 46.592C206.558 46.592 207.35 46.768 208.086 47.12C208.838 47.456 209.446 47.992 209.91 48.728C210.39 49.448 210.63 50.376 210.63 51.512C210.63 51.848 210.606 52.208 210.558 52.592C210.51 52.96 210.43 53.352 210.318 53.768H203.262C203.294 54.76 203.542 55.504 204.006 56C204.47 56.496 205.214 56.744 206.238 56.744C206.782 56.744 207.342 56.68 207.918 56.552C208.51 56.424 209.118 56.232 209.742 55.976L210.534 58.304ZM205.71 48.92C204.974 48.92 204.398 49.16 203.982 49.64C203.582 50.104 203.35 50.776 203.286 51.656H207.894C207.91 51.576 207.918 51.504 207.918 51.44C207.918 51.36 207.918 51.288 207.918 51.224C207.918 50.456 207.702 49.88 207.27 49.496C206.838 49.112 206.318 48.92 205.71 48.92ZM220.674 49.352C219.922 49.352 219.202 49.472 218.514 49.712C217.842 49.936 217.194 50.304 216.57 50.816V59H213.81V46.832H216.426V48.704C217.242 47.936 217.97 47.392 218.61 47.072C219.25 46.752 219.938 46.592 220.674 46.592V49.352Z" fill="#434343"/>
<circle cx="37" cy="439" r="27" fill="url(#paint12_radial_201_2)" fill-opacity="0.6"/>
<circle cx="37" cy="438" r="16.5" fill="url(#paint13_radial_201_2)" stroke="#542155"/>
<path d="M33.5916 403.727V411H32.054V403.727H33.5916ZM40.9398 403.727V411H39.6117L36.4476 406.423H36.3944V411H34.8567V403.727H36.2061L39.3453 408.301H39.4093V403.727H40.9398Z" fill="#434343"/>
<line x1="278" y1="462" x2="295" y2="462" stroke="#D5D5D5" stroke-width="4" stroke-linecap="round"/>
<path d="M306.592 458.727V466H305.054V458.727H306.592ZM313.94 458.727V466H312.612L309.448 461.423H309.394V466H307.857V458.727H309.206L312.345 463.301H312.409V458.727H313.94Z" fill="#D5D5D5"/>
<line x1="328" y1="462" x2="345" y2="462" stroke="#FFC700" stroke-width="4" stroke-linecap="round"/>
<path d="M357.041 460.819C357.013 460.532 356.891 460.31 356.676 460.151C356.46 459.993 356.168 459.913 355.798 459.913C355.547 459.913 355.336 459.949 355.163 460.02C354.99 460.089 354.857 460.184 354.765 460.308C354.675 460.431 354.63 460.57 354.63 460.727C354.625 460.857 354.653 460.97 354.712 461.067C354.773 461.165 354.857 461.249 354.964 461.32C355.07 461.388 355.194 461.449 355.333 461.501C355.473 461.55 355.622 461.593 355.781 461.629L356.434 461.785C356.751 461.856 357.042 461.951 357.308 462.069C357.573 462.187 357.802 462.333 357.997 462.506C358.191 462.679 358.341 462.882 358.448 463.116C358.556 463.351 358.612 463.62 358.614 463.923C358.612 464.368 358.498 464.754 358.274 465.08C358.051 465.405 357.729 465.657 357.308 465.837C356.889 466.014 356.383 466.103 355.791 466.103C355.204 466.103 354.693 466.013 354.257 465.833C353.824 465.653 353.485 465.387 353.242 465.034C353 464.679 352.873 464.24 352.862 463.717H354.35C354.366 463.96 354.436 464.164 354.559 464.327C354.685 464.488 354.851 464.61 355.06 464.693C355.27 464.774 355.508 464.814 355.774 464.814C356.034 464.814 356.26 464.776 356.452 464.7C356.646 464.625 356.796 464.519 356.903 464.384C357.009 464.249 357.063 464.094 357.063 463.919C357.063 463.756 357.014 463.618 356.917 463.507C356.822 463.396 356.683 463.301 356.498 463.223C356.316 463.145 356.092 463.074 355.827 463.01L355.035 462.811C354.422 462.662 353.938 462.429 353.582 462.112C353.227 461.794 353.051 461.367 353.053 460.83C353.051 460.389 353.168 460.004 353.405 459.675C353.644 459.346 353.972 459.089 354.389 458.905C354.805 458.72 355.279 458.628 355.809 458.628C356.349 458.628 356.82 458.72 357.222 458.905C357.627 459.089 357.942 459.346 358.167 459.675C358.392 460.004 358.508 460.386 358.515 460.819H357.041ZM366.066 461.273H364.51C364.482 461.072 364.424 460.893 364.336 460.737C364.249 460.579 364.136 460.444 363.999 460.332C363.862 460.221 363.703 460.136 363.523 460.077C363.345 460.018 363.152 459.988 362.944 459.988C362.568 459.988 362.24 460.081 361.96 460.268C361.681 460.453 361.465 460.723 361.311 461.078C361.157 461.431 361.08 461.859 361.08 462.364C361.08 462.882 361.157 463.318 361.311 463.67C361.467 464.023 361.685 464.29 361.964 464.469C362.243 464.649 362.567 464.739 362.934 464.739C363.139 464.739 363.33 464.712 363.505 464.658C363.683 464.603 363.84 464.524 363.978 464.42C364.115 464.313 364.228 464.184 364.318 464.033C364.411 463.881 364.475 463.708 364.51 463.514L366.066 463.521C366.025 463.855 365.925 464.177 365.764 464.487C365.605 464.795 365.391 465.071 365.121 465.315C364.853 465.556 364.534 465.748 364.162 465.89C363.793 466.03 363.375 466.099 362.909 466.099C362.26 466.099 361.68 465.953 361.169 465.659C360.66 465.366 360.257 464.941 359.961 464.384C359.668 463.828 359.521 463.154 359.521 462.364C359.521 461.571 359.67 460.896 359.968 460.339C360.267 459.783 360.671 459.359 361.183 459.068C361.694 458.775 362.269 458.628 362.909 458.628C363.33 458.628 363.721 458.687 364.081 458.805C364.443 458.924 364.764 459.097 365.043 459.324C365.322 459.549 365.55 459.825 365.725 460.151C365.902 460.478 366.016 460.852 366.066 461.273Z" fill="#FFC700"/>
<line x1="625" y1="462" x2="642" y2="462" stroke="#B84DBA" stroke-width="4" stroke-linecap="round"/>
<path d="M652.378 466H649.8V458.727H652.4C653.131 458.727 653.761 458.873 654.289 459.164C654.817 459.453 655.223 459.868 655.507 460.411C655.793 460.953 655.936 461.601 655.936 462.357C655.936 463.114 655.793 463.765 655.507 464.31C655.223 464.854 654.814 465.272 654.282 465.563C653.751 465.854 653.117 466 652.378 466ZM651.338 464.683H652.314C652.769 464.683 653.151 464.602 653.461 464.441C653.774 464.278 654.008 464.026 654.164 463.685C654.323 463.341 654.402 462.899 654.402 462.357C654.402 461.819 654.323 461.38 654.164 461.039C654.008 460.698 653.775 460.447 653.465 460.286C653.155 460.125 652.772 460.045 652.318 460.045H651.338V464.683ZM659.533 466.107C658.972 466.107 658.489 465.993 658.084 465.766C657.682 465.536 657.371 465.212 657.154 464.793C656.936 464.371 656.827 463.873 656.827 463.298C656.827 462.737 656.936 462.244 657.154 461.82C657.371 461.397 657.678 461.066 658.073 460.83C658.471 460.593 658.937 460.474 659.472 460.474C659.832 460.474 660.167 460.532 660.477 460.648C660.79 460.762 661.062 460.934 661.294 461.163C661.529 461.393 661.711 461.682 661.841 462.03C661.971 462.375 662.036 462.78 662.036 463.244V463.66H657.431V462.722H660.612C660.612 462.504 660.565 462.312 660.47 462.143C660.376 461.975 660.244 461.844 660.076 461.749C659.91 461.652 659.718 461.604 659.497 461.604C659.268 461.604 659.064 461.657 658.887 461.763C658.711 461.868 658.574 462.009 658.475 462.186C658.375 462.361 658.324 462.557 658.322 462.772V463.663C658.322 463.933 658.372 464.166 658.471 464.363C658.573 464.559 658.716 464.711 658.901 464.817C659.085 464.924 659.304 464.977 659.558 464.977C659.726 464.977 659.88 464.954 660.019 464.906C660.159 464.859 660.279 464.788 660.378 464.693C660.477 464.598 660.553 464.482 660.605 464.345L662.004 464.438C661.933 464.774 661.788 465.067 661.568 465.318C661.35 465.567 661.068 465.761 660.722 465.901C660.379 466.038 659.983 466.107 659.533 466.107ZM664.536 458.727V466H663.024V458.727H664.536ZM668.65 460.545V461.682H665.365V460.545H668.65ZM666.11 459.239H667.623V464.324C667.623 464.464 667.645 464.572 667.687 464.651C667.73 464.726 667.789 464.78 667.865 464.81C667.943 464.841 668.033 464.857 668.135 464.857C668.206 464.857 668.277 464.851 668.348 464.839C668.419 464.825 668.473 464.814 668.511 464.807L668.749 465.933C668.673 465.956 668.567 465.983 668.429 466.014C668.292 466.047 668.125 466.067 667.929 466.075C667.564 466.089 667.244 466.04 666.97 465.929C666.698 465.818 666.486 465.645 666.334 465.411C666.183 465.176 666.108 464.88 666.11 464.523V459.239ZM671.19 466.103C670.842 466.103 670.532 466.043 670.26 465.922C669.988 465.799 669.772 465.618 669.614 465.379C669.457 465.137 669.379 464.836 669.379 464.477C669.379 464.174 669.435 463.919 669.546 463.713C669.657 463.507 669.809 463.341 670.001 463.216C670.192 463.09 670.41 462.996 670.654 462.932C670.9 462.868 671.158 462.823 671.428 462.797C671.746 462.764 672.001 462.733 672.195 462.705C672.389 462.674 672.53 462.629 672.618 462.57C672.705 462.51 672.749 462.423 672.749 462.307V462.286C672.749 462.061 672.678 461.887 672.536 461.763C672.397 461.64 672.198 461.579 671.94 461.579C671.667 461.579 671.451 461.639 671.29 461.76C671.129 461.878 671.022 462.027 670.97 462.207L669.571 462.094C669.642 461.762 669.782 461.476 669.99 461.234C670.198 460.991 670.467 460.804 670.796 460.673C671.128 460.541 671.511 460.474 671.947 460.474C672.25 460.474 672.54 460.51 672.817 460.581C673.096 460.652 673.344 460.762 673.559 460.911C673.777 461.06 673.948 461.252 674.074 461.487C674.199 461.719 674.262 461.997 674.262 462.321V466H672.827V465.244H672.785C672.697 465.414 672.58 465.564 672.433 465.695C672.286 465.822 672.11 465.923 671.904 465.996C671.698 466.067 671.46 466.103 671.19 466.103ZM671.624 465.059C671.846 465.059 672.043 465.015 672.213 464.928C672.384 464.838 672.517 464.717 672.614 464.565C672.711 464.414 672.76 464.242 672.76 464.05V463.472C672.713 463.502 672.647 463.531 672.565 463.557C672.484 463.58 672.393 463.603 672.291 463.624C672.189 463.643 672.088 463.661 671.986 463.678C671.884 463.692 671.792 463.705 671.709 463.717C671.531 463.743 671.376 463.784 671.244 463.841C671.111 463.898 671.008 463.975 670.935 464.072C670.861 464.166 670.825 464.285 670.825 464.427C670.825 464.633 670.899 464.79 671.048 464.899C671.2 465.006 671.392 465.059 671.624 465.059Z" fill="#B84DBA"/>
<line x1="686" y1="462" x2="703" y2="462" stroke="#0C9600" stroke-width="4" stroke-linecap="round"/>
<path d="M719.417 462.364C719.417 463.157 719.267 463.831 718.966 464.388C718.668 464.944 718.26 465.369 717.744 465.663C717.231 465.954 716.653 466.099 716.011 466.099C715.365 466.099 714.785 465.953 714.271 465.659C713.758 465.366 713.352 464.941 713.053 464.384C712.755 463.828 712.606 463.154 712.606 462.364C712.606 461.571 712.755 460.896 713.053 460.339C713.352 459.783 713.758 459.359 714.271 459.068C714.785 458.775 715.365 458.628 716.011 458.628C716.653 458.628 717.231 458.775 717.744 459.068C718.26 459.359 718.668 459.783 718.966 460.339C719.267 460.896 719.417 461.571 719.417 462.364ZM717.858 462.364C717.858 461.85 717.781 461.417 717.627 461.064C717.476 460.711 717.261 460.444 716.984 460.261C716.707 460.079 716.383 459.988 716.011 459.988C715.64 459.988 715.315 460.079 715.038 460.261C714.761 460.444 714.546 460.711 714.392 461.064C714.241 461.417 714.165 461.85 714.165 462.364C714.165 462.877 714.241 463.311 714.392 463.663C714.546 464.016 714.761 464.284 715.038 464.466C715.315 464.648 715.64 464.739 716.011 464.739C716.383 464.739 716.707 464.648 716.984 464.466C717.261 464.284 717.476 464.016 717.627 463.663C717.781 463.311 717.858 462.877 717.858 462.364ZM725.048 458.727H726.586V463.45C726.586 463.981 726.459 464.445 726.206 464.842C725.955 465.24 725.603 465.55 725.151 465.773C724.699 465.993 724.172 466.103 723.571 466.103C722.967 466.103 722.439 465.993 721.987 465.773C721.535 465.55 721.183 465.24 720.932 464.842C720.681 464.445 720.556 463.981 720.556 463.45V458.727H722.094V463.319C722.094 463.596 722.154 463.842 722.275 464.058C722.398 464.273 722.571 464.442 722.793 464.565C723.016 464.688 723.275 464.75 723.571 464.75C723.869 464.75 724.128 464.688 724.349 464.565C724.571 464.442 724.743 464.273 724.863 464.058C724.987 463.842 725.048 463.596 725.048 463.319V458.727ZM727.574 459.995V458.727H733.547V459.995H731.32V466H729.8V459.995H727.574Z" fill="#0C9600"/>
<rect x="10" y="37" width="24.7869" height="21.16" rx="6" fill="white" fill-opacity="0.5"/>
<path d="M17.9429 40.9186L15.4031 43.4123L17.9429 45.906" stroke="#434343" stroke-width="2.4" stroke-linecap="round" stroke-linejoin="round"/>
<path d="M15.4032 43.4123H24.4514C27.1991 43.4123 29.456 45.5435 29.5631 48.2393C29.6763 51.0879 27.3549 53.4578 24.4514 53.4578H17.7977" stroke="#434343" stroke-width="2.4" stroke-linecap="round" stroke-linejoin="round"/>
<rect x="10" y="61.84" width="24.7869" height="21.16" rx="6" fill="white" fill-opacity="0.5"/>
<path d="M27.119 65.7586L29.6588 68.2524L27.119 70.7461" stroke="#434343" stroke-width="2.4" stroke-linecap="round" stroke-linejoin="round"/>
<path d="M29.6587 68.2523H20.6104C17.8628 68.2523 15.6059 70.3835 15.4988 73.0793C15.3856 75.9279 17.707 78.2978 20.6104 78.2978H27.2641" stroke="#434343" stroke-width="2.4" stroke-linecap="round" stroke-linejoin="round"/>
<rect x="39.2131" y="61.84" width="24.7869" height="21.16" rx="6" fill="white" fill-opacity="0.5"/>
<path d="M52.294 66.8356L50.9999 65.5108C50.4337 64.9312 49.7057 64.6 48.9778 64.6H45.8233C44.61 64.6 43.6393 65.5936 43.6393 66.8356V77.1856C43.6393 78.5104 44.61 79.504 45.8233 79.504H57.3899C58.6031 79.504 59.5738 78.5104 59.5738 77.2684V69.154C59.5738 67.912 58.6031 66.9184 57.3899 66.9184H52.294V66.8356Z" fill="#434343"/>
<path d="M54.0764 73.3768C53.8374 73.0456 53.2797 72.9628 52.961 73.2112L52.3236 73.7908V71.4724C52.3236 70.9756 52.0049 70.6444 51.5269 70.6444C51.0489 70.6444 50.7302 70.9756 50.7302 71.4724V73.7908L50.0131 73.2112C49.6944 72.9628 49.2164 73.0456 48.8977 73.3768C48.6587 73.708 48.6587 74.2876 49.0571 74.536L51.0489 76.192L51.1285 76.2748C51.1285 76.2748 51.2082 76.2748 51.2082 76.3576C51.2879 76.4404 51.4472 76.4404 51.5269 76.4404C51.6066 76.4404 51.7659 76.4404 51.8456 76.3576L51.9252 76.2748C51.9252 76.2748 51.9252 76.2748 52.0049 76.2748L53.9967 74.6188C54.3154 74.2876 54.3154 73.708 54.0764 73.3768Z" fill="#D5D5D5"/>
<rect x="39.2131" y="37" width="24.7869" height="21.16" rx="6" fill="white" fill-opacity="0.5"/>
<path d="M54.0035 50.708H49.2096C48.9916 50.708 48.7737 50.955 48.7737 51.2019V55.4H54.4393V51.2019C54.4393 50.955 54.2214 50.708 54.0035 50.708Z" fill="#434343"/>
<path d="M57.8954 43.0444L55.7618 40.6984C55.1928 40.151 54.4105 39.76 53.557 39.76H47.0138C45.5914 39.76 44.5246 41.0112 44.5246 42.497V52.7412C44.5246 54.227 45.5914 55.4 47.0138 55.4H47.4405V54.618V53.836V51.4118C47.4405 50.2388 48.294 49.3786 49.2897 49.3786H53.9126C54.9795 49.3786 55.7618 50.317 55.7618 51.4118V53.836V54.618V55.4H56.1885C57.5398 55.4 58.6777 54.227 58.6777 52.7412V45.4686C58.7489 44.5302 58.4644 43.7482 57.8954 43.0444Z" fill="#434343"/>
<defs>
<filter id="filter0_d_201_2" x="730" y="0" width="106" height="507" filterUnits="userSpaceOnUse" color-interpolation-filters="sRGB">
<feFlood flood-opacity="0" result="BackgroundImageFix"/>
<feColorMatrix in="SourceAlpha" type="matrix" values="0 0 0 0 0 0 0 0 0 0 0 0 0 0 0 0 0 0 127 0" result="hardAlpha"/>
<feOffset dx="-4"/>
<feGaussianBlur stdDeviation="8"/>
<feComposite in2="hardAlpha" operator="out"/>
<feColorMatrix type="matrix" values="0 0 0 0 0 0 0 0 0 0 0 0 0 0 0 0 0 0 0.5 0"/>
<feBlend mode="normal" in2="BackgroundImageFix" result="effect1_dropShadow_201_2"/>
<feBlend mode="normal" in="SourceGraphic" in2="effect1_dropShadow_201_2" result="shape"/>
</filter>
<linearGradient id="paint0_linear_201_2" x1="412" y1="16" x2="412" y2="491" gradientUnits="userSpaceOnUse">
<stop stop-opacity="0.5"/>
<stop offset="0.474181" stop-color="#222222" stop-opacity="0"/>
<stop offset="1" stop-opacity="0.5"/>
</linearGradient>
<radialGradient id="paint1_radial_201_2" cx="0" cy="0" r="1" gradientUnits="userSpaceOnUse" gradientTransform="translate(789.231 440.468) rotate(94.6323) scale(27.6219 27.6173)">
<stop stop-opacity="0.5"/>
<stop offset="1" stop-color="#C2C2C2" stop-opacity="0"/>
</radialGradient>
<radialGradient id="paint2_radial_201_2" cx="0" cy="0" r="1" gradientUnits="userSpaceOnUse" gradientTransform="translate(786.997 435.457) rotate(89.9912) scale(19.5431)">
<stop offset="0.375" stop-color="#9A3C9D"/>
<stop offset="0.473958" stop-color="#963C99"/>
<stop offset="0.71875" stop-color="#863D88"/>
<stop offset="1" stop-color="#571D58"/>
</radialGradient>
<radialGradient id="paint3_radial_201_2" cx="0" cy="0" r="1" gradientUnits="userSpaceOnUse" gradientTransform="translate(789.231 67.4684) rotate(94.6323) scale(27.6219 27.6173)">
<stop stop-opacity="0.5"/>
<stop offset="1" stop-color="#C2C2C2" stop-opacity="0"/>
</radialGradient>
<radialGradient id="paint4_radial_201_2" cx="0" cy="0" r="1" gradientUnits="userSpaceOnUse" gradientTransform="translate(786.997 63.4569) rotate(89.9912) scale(19.5431)">
<stop offset="0.375" stop-color="#9A3C9D"/>
<stop offset="0.473958" stop-color="#963C99"/>
<stop offset="0.71875" stop-color="#863D88"/>
<stop offset="1" stop-color="#571D58"/>
</radialGradient>
<linearGradient id="paint5_linear_201_2" x1="53" y1="263.396" x2="249" y2="263.396" gradientUnits="userSpaceOnUse">
<stop stop-color="#424242" stop-opacity="0"/>
<stop offset="1"/>
</linearGradient>
<radialGradient id="paint6_radial_201_2" cx="0" cy="0" r="1" gradientUnits="userSpaceOnUse" gradientTransform="translate(163 268.5) rotate(94.5739) scale(37.6198 37.1436)">
<stop stop-opacity="0.5"/>
<stop offset="1" stop-color="#C2C2C2" stop-opacity="0"/>
</radialGradient>
<radialGradient id="paint7_radial_201_2" cx="0" cy="0" r="1" gradientUnits="userSpaceOnUse" gradientTransform="translate(161.464 262.682) rotate(89.9913) scale(23.9027 23.5296)">
<stop offset="0.375" stop-color="#9A3C9D"/>
<stop offset="0.473958" stop-color="#963C99"/>
<stop offset="0.71875" stop-color="#863D88"/>
<stop offset="1" stop-color="#571D58"/>
</radialGradient>
<radialGradient id="paint8_radial_201_2" cx="0" cy="0" r="1" gradientUnits="userSpaceOnUse" gradientTransform="translate(164 349.5) rotate(94.5739) scale(37.6198 37.1436)">
<stop stop-opacity="0.5"/>
<stop offset="1" stop-color="#C2C2C2" stop-opacity="0"/>
</radialGradient>
<radialGradient id="paint9_radial_201_2" cx="0" cy="0" r="1" gradientUnits="userSpaceOnUse" gradientTransform="translate(161.464 343.682) rotate(89.9913) scale(23.9027 23.5296)">
<stop offset="0.375" stop-color="#9A3C9D"/>
<stop offset="0.473958" stop-color="#963C99"/>
<stop offset="0.71875" stop-color="#863D88"/>
<stop offset="1" stop-color="#571D58"/>
</radialGradient>
<radialGradient id="paint10_radial_201_2" cx="0" cy="0" r="1" gradientUnits="userSpaceOnUse" gradientTransform="translate(161 160.5) rotate(90) scale(53.5 53)">
<stop stop-opacity="0.5"/>
<stop offset="1" stop-color="#878787" stop-opacity="0"/>
</radialGradient>
<radialGradient id="paint11_radial_201_2" cx="0" cy="0" r="1" gradientUnits="userSpaceOnUse" gradientTransform="translate(161.396 156.58) rotate(90.6234) scale(35.4573 34.4724)">
<stop offset="0.328125" stop-color="#983E9A"/>
<stop offset="0.630208" stop-color="#8A3C8B"/>
<stop offset="1" stop-color="#793E7A"/>
</radialGradient>
<radialGradient id="paint12_radial_201_2" cx="0" cy="0" r="1" gradientUnits="userSpaceOnUse" gradientTransform="translate(39.0769 440.367) rotate(94.6323) scale(25.7169 25.7127)">
<stop stop-opacity="0.5"/>
<stop offset="1" stop-color="#595959" stop-opacity="0"/>
</radialGradient>
<radialGradient id="paint13_radial_201_2" cx="0" cy="0" r="1" gradientUnits="userSpaceOnUse" gradientTransform="translate(36.997 435.457) rotate(89.9912) scale(19.5431)">
<stop offset="0.375" stop-color="#9A3C9D"/>
<stop offset="0.473958" stop-color="#963C99"/>
<stop offset="0.71875" stop-color="#863D88"/>
<stop offset="1" stop-color="#571D58"/>
</radialGradient>
</defs>
</svg>
